<svg xmlns="http://www.w3.org/2000/svg"><defs><font id="wpmudev-plugin-icons" horiz-adv-x="1024"><font-face ascent="960" descent="-64" units-per-em="1024"/><glyph horiz-adv-x="512"/><glyph d="M512 960q106 0 199-40 94-40 163.5-109.5C944 741 957.333 709.667 984 647q40-93 40-199c0-106-13.333-137-40-199q-40-94-109.5-163.5C805 16 773.667 2.667 711-24q-93-40-199-40c-106 0-137 13.333-199 40Q219 16 149.5 85.5C80 155 66.667 186.333 40 249Q0 342 0 448c0 106 13.333 137 40 199q40 94 109.5 163.5C219 880 250.333 893.333 313 920q93 40 199 40m0-256c-35.346 0-64-28.654-64-64V448c0-35.346 28.654-64 64-64s64 28.654 64 64v192c0 35.346-28.654 64-64 64m0-512c35.346 0 64 28.654 64 64s-28.654 64-64 64-64-28.654-64-64 28.654-64 64-64" glyph-name="warning-alert" unicode="!"/><glyph d="M229.76 99.83a64 64 0 0 1 15.997-10.569l.397-.164c5.507-2.395 11.921-3.787 18.662-3.787q.64 0 1.275.017l-.062-.002h.156a48.1 48.1 0 0 1 20.021 4.331l-.302-.123c6.217 2.8 11.572 6.251 16.33 10.37l-.083-.07L613.176 411.73a50 50 0 0 1 10.905 16.35l.12.333c2.477 5.93 3.917 12.819 3.917 20.044l-.001.279v-.015l.001.262c0 7.177-1.44 14.017-4.046 20.248l.129-.346c-2.617 6.511-6.353 12.065-11.021 16.678l-.005.005-311.751 310.591a51.3 51.3 0 0 1-15.918 10.898l-.331.129c-5.488 2.22-11.852 3.508-18.518 3.508q-.868 0-1.729-.028l.084.003a39 39 0 0 1-.786.006c-13.822 0-26.352-5.539-35.489-14.52l.007.006-36.267-36.558a51.8 51.8 0 0 1-10.465-16.049l-.126-.345c-2.647-5.948-4.187-12.889-4.187-20.189 0-13.973 5.645-26.63 14.778-35.81l-.003.003 238.203-239.217-238.203-238.492a49.7 49.7 0 0 1-10.902-15.924l-.123-.323c-2.215-5.506-3.497-11.891-3.497-18.575q0-.686.017-1.366l-.002.067-.001-.266a53.1 53.1 0 0 1 4.047-20.397l-.13.353c2.373-6.284 5.984-11.622 10.569-15.938l.021-.019 36.558-37.283zm500.484 0h87.04c16.023 0 29.013 12.99 29.013 29.013v638.299c0 16.023-12.99 29.013-29.013 29.013h-87.04c-16.023 0-29.013-12.99-29.013-29.013V128.843c0-16.023 12.99-29.013 29.013-29.013" glyph-name="arrow-skip-end" unicode="&quot;"/><glyph d="M915.2 896H108.8C84.057 896 64 875.943 64 851.2v-40.619c0-24.743 20.057-44.8 44.8-44.8h806.4c24.743 0 44.8 20.057 44.8 44.8V851.2c0 24.743-20.057 44.8-44.8 44.8m0-256.256H108.8c-24.743 0-44.8-20.057-44.8-44.8v-40.619c0-24.743 20.057-44.8 44.8-44.8h806.4c24.743 0 44.8 20.057 44.8 44.8v41.365c0 24.743-20.057 44.8-44.8 44.8zm0-255.509H108.8c-24.743 0-44.8-20.057-44.8-44.8v-40.619c0-24.743 20.057-44.8 44.8-44.8h806.4c24.743 0 44.8 20.057 44.8 44.8v41.365c0 24.743-20.057 44.8-44.8 44.8zm0-255.51H108.8c-24.743 0-44.8-20.057-44.8-44.8V44.8C64 20.057 84.057 0 108.8 0h806.4C939.943 0 960 20.057 960 44.8v39.872c0 24.743-20.057 44.8-44.8 44.8z" glyph-name="align-justify" unicode="#"/><glyph d="M961.194 860.245H62.805C28.119 860.245 0 832.126 0 797.44V249.429c0-34.686 28.119-62.805 62.805-62.805h338.261V91.392H296.277c-9.897 0-17.92-8.023-17.92-17.92V54.016l-.003-.341c0-9.897 8.023-17.92 17.92-17.92h422.232c9.897 0 17.92 8.023 17.92 17.92v19.627c0 9.897-8.023 17.92-17.92 17.92h-95.573v95.232h338.261c34.686 0 62.805 28.119 62.805 62.805V797.44c0 34.686-28.119 62.805-62.805 62.805M111.956 749.311h800.085V297.556H111.956z" glyph-name="monitor" unicode="$"/><glyph d="M913.333 896H110.666c-24.165 0-43.755-19.59-43.755-43.755v-40.469c0-24.165 19.59-43.755 43.755-43.755h802.667c24.165 0 43.755 19.59 43.755 43.755v40.469c0 24.165-19.59 43.755-43.755 43.755M110.667 512.213h586.432c24.165 0 43.755 19.59 43.755 43.755v40.32c0 24.165-19.59 43.755-43.755 43.755H110.667c-24.165 0-43.755-19.59-43.755-43.755v-40.32c0-24.165 19.59-43.755 43.755-43.755m715.008-384.234H110.667c-24.165 0-43.755-19.59-43.755-43.755V43.755C66.912 19.59 86.502 0 110.667 0h715.008c24.165 0 43.755 19.59 43.755 43.755v40.32c0 24.165-19.59 43.755-43.755 43.755zM110.667 255.957H609.59c24.165 0 43.755 19.59 43.755 43.755v40.32c0 24.165-19.59 43.755-43.755 43.755H110.667c-24.113 0-43.67-19.505-43.755-43.597v-40.327c0-24.165 19.59-43.755 43.755-43.755z" glyph-name="align-left" unicode="%"/><glyph d="M913.259 896H110.592c-24.165 0-43.755-19.59-43.755-43.755v-40.469c0-24.165 19.59-43.755 43.755-43.755h802.667c24.165 0 43.755 19.59 43.755 43.755v40.469c0 24.165-19.59 43.755-43.755 43.755m0-255.957H326.827c-24.165 0-43.755-19.59-43.755-43.755v-40.32c0-24.165 19.59-43.755 43.755-43.755h586.432c24.165 0 43.755 19.59 43.755 43.755v40.32c0 24.165-19.59 43.755-43.755 43.755m-.151-512.064H198.249c-24.165 0-43.755-19.59-43.755-43.755V43.755C154.494 19.59 174.084 0 198.249 0h714.859c24.165 0 43.755 19.59 43.755 43.755v40.32c0 24.165-19.59 43.755-43.755 43.755zm44.055 212.202c0 24.165-19.59 43.755-43.755 43.755H414.485c-24.165 0-43.755-19.59-43.755-43.755v-40.32c0-24.165 19.59-43.755 43.755-43.755h498.773c24.165 0 43.755 19.59 43.755 43.755v40.32z" glyph-name="align-right" unicode="&amp;"/><glyph d="M214.449 82.518C96.86 82.518-5.028 184.406.092 320.086c8.021 222.037 243.029 386.56 426.667 493.568l54.955-46.933C350.301 688.385 221.959 567.553 214.45 427.265 209.33 286.124 381.533 221.1 381.533 215.638c-2.56-73.045-75.776-133.291-167.083-133.291zm543.232-.171c-117.419 0-219.307 102.4-214.187 237.568 7.851 221.867 242.859 386.389 425.643 493.568l54.955-46.763c-130.731-78.336-258.56-199.168-266.411-339.456-5.12-141.141 167.083-206.165 167.083-211.627-2.56-73.045-75.776-133.291-167.083-133.291z" glyph-name="quote-2" unicode="'"/><glyph d="m968.539 715.568-62.444 62.444c-7.94 8.099-18.995 13.119-31.221 13.119s-23.282-5.021-31.215-13.112l-460.37-462.087-202.941 202.941c-7.94 8.099-18.995 13.119-31.221 13.119s-23.282-5.021-31.215-13.112l-62.45-62.45c-8.099-7.94-13.119-18.995-13.119-31.221s5.021-23.282 13.112-31.215l266.016-263.518c15.821-15.822 37.676-25.608 61.819-25.608s45.998 9.786 61.819 25.608L968.54 653.751c8.099 7.94 13.119 18.995 13.119 31.221s-5.021 23.282-13.112 31.215z" glyph-name="check" unicode="("/><glyph d="m620.102 448.032 234.834 234.834c7.407 7.444 11.987 17.708 11.987 29.041s-4.579 21.597-11.988 29.042l-50.879 50.097c-7.444 7.407-17.708 11.987-29.041 11.987s-21.597-4.579-29.042-11.988L511.141 556.213 276.307 791.047c-7.377 7.168-17.458 11.588-28.572 11.588s-21.195-4.42-28.581-11.598l-50.558-50.401c-7.315-7.428-11.832-17.628-11.832-28.885s4.517-21.457 11.836-28.89l234.828-234.828-234.834-234.834c-7.407-7.444-11.987-17.708-11.987-29.041s4.579-21.597 11.988-29.042l50.566-50.097c7.427-7.445 17.696-12.051 29.041-12.051s21.615 4.606 29.041 12.05l234.835 234.835 234.834-234.834c7.444-7.407 17.708-11.987 29.041-11.987s21.597 4.579 29.042 11.988l50.409 50.409c7.407 7.444 11.987 17.708 11.987 29.041s-4.579 21.597-11.988 29.042z" glyph-name="close" unicode=")"/><glyph d="M256 512v128c0 35.346 28.654 64 64 64h384c35.346 0 64-28.654 64-64V512h192c35.346 0 64-28.654 64-64s-28.654-64-64-64H768V256c0-35.346-28.654-64-64-64H320c-35.346 0-64 28.654-64 64v128H64c-35.346 0-64 28.654-64 64s28.654 64 64 64z" glyph-name="align-y-center" unicode="*"/><glyph d="M1024 448c0 282.77-229.23 512-512 512S0 730.77 0 448 229.23-64 512-64s512 229.23 512 512M680.107 235.349c-5.961-5.964-14.198-9.652-23.296-9.652s-17.335 3.689-23.296 9.652L512 356.864 390.485 235.349c-5.961-5.964-14.198-9.652-23.296-9.652s-17.335 3.689-23.296 9.652l-49.835 49.835c-5.964 5.961-9.652 14.198-9.652 23.296s3.689 17.335 9.652 23.296l121.515 121.515-121.515 121.515c-5.964 5.961-9.652 14.198-9.652 23.296s3.689 17.335 9.652 23.296l49.835 49.835c5.961 5.964 14.198 9.652 23.296 9.652s17.335-3.689 23.296-9.652L512 550.401l121.515 121.515c5.961 5.964 14.198 9.652 23.296 9.652s17.335-3.689 23.296-9.652l49.835-49.835c5.964-5.961 9.652-14.198 9.652-23.296s-3.689-17.335-9.652-23.296L608.427 453.974l121.515-121.515c5.964-5.961 9.652-14.198 9.652-23.296s-3.689-17.335-9.652-23.296z" glyph-name="cross-close" unicode="+"/><glyph d="M512 823.467c207.365 0 375.467-168.102 375.467-375.467S719.365 72.533 512 72.533 136.533 240.635 136.533 448c.677 207.091 168.375 374.79 375.401 375.466zM512 960C229.23 960 0 730.77 0 448S229.23-64 512-64s512 229.23 512 512-229.23 512-512 512m262.144-321.707-53.248 53.248c-4.962 4.662-11.661 7.527-19.029 7.527s-14.067-2.864-19.044-7.54L512.171 520.875l-93.696 93.696c-4.946 4.7-11.65 7.591-19.029 7.591s-14.083-2.891-19.041-7.602l-53.065-53.066c-4.951-4.865-8.02-11.631-8.021-19.114v-.066a26.54 26.54 0 0 1 7.85-18.877l165.719-165.719a26.7 26.7 0 0 1 19.124-7.85h1.015a26.72 26.72 0 0 1 18.603 7.851l242.347 242.347c4.857 4.876 7.86 11.602 7.86 19.029s-3.003 14.153-7.861 19.03z" glyph-name="clock" unicode=","/><glyph d="m931.8 447.688-1.563.02c0 43.786 1.017 87.6-.287 131.348-1.304 43.68-.492 87.542-8.619 130.867-15.025 80.104-67.485 132.495-147.681 147.449-43.892 8.189-88.323 7.806-132.57 8.547-76.752 1.287-153.542 1.362-230.298.495-46.572-.522-93.31-1.731-139.622-6.212-94.406-9.144-155.559-64.7-168.54-154.863-6.048-42.022-7.724-84.879-8.499-127.409-1.41-77.315-1.386-154.675-.539-232.001.505-46.001 1.809-92.157 6.127-137.923 8.926-94.522 64.177-156.45 155.778-169.585 40.912-5.868 82.644-8.076 124.017-8.243 110.292-.444 220.6.768 330.889 2.188 22.04.283 44.377 2.7 65.987 7.062 75.008 15.148 124.105 59.129 141.708 134.571 5.516 23.631 8.564 48.213 9.424 72.479 2.369 67.038 2.983 134.134 4.291 201.209zM713.388-64.001H310.615c-6.168.853-12.326 1.802-18.504 2.546-20.292 2.451-40.902 3.335-60.836 7.482C115.529-29.892 41.115 38.658 13.183 154.295c-7.264 30.078-8.94 61.508-13.182 92.317v402.773c2.106 19.657 3.649 39.393 6.427 58.952 7.98 56.221 27.02 107.803 64.556 151.562 47.599 55.491 109.35 83.613 180.412 93.648 19.651 2.775 39.475 4.335 59.218 6.451h402.773c6.164-.853 12.322-1.799 18.5-2.546 20.292-2.451 40.905-3.331 60.839-7.479 115.75-24.078 190.15-92.641 218.088-208.268 7.267-30.078 8.943-61.508 13.186-92.32V246.612c-2.109-19.654-3.656-39.39-6.434-58.948-8.069-56.825-27.436-108.861-65.669-152.852-47.52-54.685-108.865-82.412-179.296-92.355-19.647-2.778-39.472-4.338-59.215-6.458zM511.43 278.487c-92.986.222-169.127 76.636-169.052 169.656.075 92.955 76.373 169.325 169.322 169.479 93.699.157 170.209-76.708 169.817-170.605-.389-92.969-76.875-168.755-170.086-168.53zm264.52 168.205c.949 145.681-115.575 263.745-261.789 265.243-146.295 1.502-265.178-115.828-266.11-262.629-.925-145.712 115.572-263.745 261.789-265.243 146.275-1.502 265.151 115.821 266.11 262.629m71.652 273.168c.594 35.386-26.279 63.328-61.31 63.747-34.577.413-62.454-26.003-63.358-60.044-.945-35.345 25.757-63.874 60.512-64.659 35.308-.795 63.573 26.054 64.157 60.955z" glyph-name="instagram" unicode="-"/><glyph d="M609.963 390.827c-3.917 3.892-9.315 6.297-15.275 6.297s-11.358-2.405-15.276-6.298l.001.001-130.048-130.56-125.099 125.099 130.048 130.048c3.892 3.917 6.297 9.315 6.297 15.275s-2.405 11.358-6.298 15.276l-30.548 30.548c-3.917 3.892-9.315 6.297-15.275 6.297s-11.358-2.405-15.276-6.298L263.167 446.465l-32.597 32.597c-3.101 3.17-7.422 5.135-12.203 5.135s-9.101-1.965-12.2-5.132l-83.63-83.63C85.335 357.991 62.341 306.39 62.341 249.42c0-45.244 14.502-87.1 39.111-121.175l-.419.609-82.091-82.091C7.193 35.014-.074 18.782-.074.854c0-35.857 29.068-64.926 64.926-64.926 17.929 0 34.16 7.267 45.909 19.016l82.091 82.091c33.426-24.103 75.209-38.549 120.366-38.549 57.155 0 108.904 23.143 146.389 60.568l-.003-.003 83.456 83.627c3.17 3.101 5.135 7.422 5.135 12.203s-1.965 9.101-5.132 12.2l-32.6 32.6 130.048 130.048c3.892 3.917 6.297 9.315 6.297 15.275s-2.405 11.358-6.298 15.276l.001-.001zm395.093 550.229c-11.741 11.767-27.975 19.046-45.909 19.046s-34.168-7.28-45.908-19.045l-84.481-84.481c-33.426 24.103-75.209 38.549-120.366 38.549-57.155 0-108.904-23.143-146.389-60.568l.003.003-84.139-83.627c-3.17-3.101-5.135-7.422-5.135-12.203s1.965-9.101 5.132-12.2l312.664-312.664c3.101-3.17 7.422-5.135 12.203-5.135s9.101 1.965 12.2 5.132l83.63 83.63c37.423 37.482 60.565 89.231 60.565 146.386 0 45.157-14.446 86.94-38.97 120.98l.42-.613 84.48 84.48c11.767 11.741 19.046 27.975 19.046 45.909s-7.28 34.168-19.045 45.908l-.001.001z" glyph-name="plug-disconnected" unicode="."/><glyph d="M0-34.987c-.395-1.591-.622-3.418-.622-5.298 0-6.68 2.864-12.692 7.432-16.873 4.214-4.6 10.225-7.464 16.906-7.464 1.88 0 3.707.227 5.455.655l312.163 95.029 674.133 674.133c4.857 4.876 7.86 11.602 7.86 19.029s-3.003 14.153-7.861 19.03L807.254 952.149c-4.849 4.847-11.546 7.845-18.944 7.845s-14.095-2.998-18.944-7.845L95.062 277.333zm88.235 59.904 60.757 199.168L288.085 84.992z" glyph-name="pencil" unicode="/"/><glyph d="M221.825 512v85.31c0 164.261 132.864 301.343 295.141 298.651 150.243-2.915 272.552-120.417 284.016-270.063q.058-.775.059-1.563c0-10.935-8.797-19.808-19.673-19.86H655.919c-10.016.159-18.236 7.747-19.534 18.306-8.903 61.174-61.339 108.148-124.694 108.148-4.209 0-8.368-.206-12.559-.63-63.697-7.605-113.093-62.063-113.093-128.111 0-.509.003-1.018.009-1.447V512H832c35.346 0 64-28.654 64-64V64c0-35.346-28.654-64-64-64H192c-35.346 0-64 28.654-64 64v384c0 35.346 28.654 64 64 64z" glyph-name="unlock" unicode="0"/><glyph d="M64 960h896c35.346 0 64-28.654 64-64V0c0-35.346-28.654-64-64-64H64C28.654-64 0-35.346 0 0v896c0 35.346 28.654 64 64 64m192-256c-35.346 0-64-28.654-64-64V256c0-35.346 28.654-64 64-64h512c35.346 0 64 28.654 64 64v384c0 35.346-28.654 64-64 64zm448-64c35.346 0 64-28.654 64-64s-28.654-64-64-64-64 28.654-64 64 28.654 64 64 64" glyph-name="popup" unicode="1"/><glyph d="M1024 704H448c-35.346 0-64-28.654-64-64V256c0-35.346 28.654-64 64-64h576V0c0-35.346-28.654-64-64-64H64C28.654-64 0-35.346 0 0v896c0 35.346 28.654 64 64 64h896c35.346 0 64-28.654 64-64zm-128-64c35.346 0 64-28.654 64-64s-28.654-64-64-64-64 28.654-64 64 28.654 64 64 64" glyph-name="slide-in" unicode="2"/><glyph d="M128 128h768c35.346 0 64-28.654 64-64S931.346 0 896 0H128C92.654 0 64 28.654 64 64s28.654 64 64 64m0 512h768c35.346 0 64-28.654 64-64V320c0-35.346-28.654-64-64-64H128c-35.346 0-64 28.654-64 64v256c0 35.346 28.654 64 64 64m704-64c-35.346 0-64-28.654-64-64s28.654-64 64-64 64 28.654 64 64-28.654 64-64 64M128 896h768c35.346 0 64-28.654 64-64s-28.654-64-64-64H128c-35.346 0-64 28.654-64 64s28.654 64 64 64" glyph-name="embed" unicode="3"/><glyph d="M736 64c0-70.692-57.308-128-128-128H224C153.308-64 96-6.692 96 64v576c0 70.692 57.308 128 128 128V192c0-70.692 57.308-128 128-128zM416 960h192V704c0-35.346 28.654-64 64-64h256V256c0-70.692-57.308-128-128-128H384c-53.019 0-96 42.981-96 96v608c0 70.692 57.308 128 128 128m256 0 256-256H704c-17.673 0-32 14.327-32 32z" glyph-name="copy" unicode="4"/><glyph d="M937.837 873.837c-53.702 53.791-127.937 87.068-209.944 87.068-76.601 0-146.422-29.035-199.058-76.699l.252.225-150.034-150.034c-25.673-25.71-46.631-56.139-61.458-89.87-31.665-15.309-58.252-32.532-81.502-53.399l.273.241L86.161 441.676C33.452 388.162.905 314.659.905 233.555.905 69.72 133.72-63.096 297.556-63.096c81.104 0 154.606 32.547 208.158 85.293l149.997 149.998c20.623 22.976 37.846 49.563 50.526 78.588 36.363 17.467 66.791 38.424 92.506 64.102l149.86 150.202c47.293 52.346 76.23 122.061 76.23 198.535 0 81.887-33.179 156.025-86.826 209.703zM404.516 128.793c-27.092-27.092-64.52-43.849-105.861-43.849-82.683 0-149.711 67.027-149.711 149.711 0 41.341 16.757 78.769 43.849 105.861l109.365 109.365c27.541-103.91 107.782-184.094 209.666-211.089zm81.339 292.891c-24.798 24.767-40.912 58.225-43.38 95.415 74.752-4.514 134.187-63.89 139.22-138.191-37.617 2.019-71.081 18.136-95.838 42.944zm354.58 143.199L721.672 446.12c-27.478 103.889-107.663 184.074-209.496 211.088l107.479 110 9.228 9.228c26.164 22.926 60.662 36.91 98.428 36.91 82.673 0 149.693-67.019 149.693-149.693 0-37.766-13.985-72.264-37.059-98.6z" glyph-name="link" unicode="5"/><glyph d="m129.536 783.36 109.397-110.08c5.875-5.875 13.99-9.508 22.955-9.508 17.929 0 32.463 14.534 32.463 32.463 0 8.964-3.634 17.08-9.508 22.955L175.958 828.758a32.27 32.27 0 0 1-21.215 7.903c-17.909 0-32.427-14.518-32.427-32.427a32.3 32.3 0 0 1 7.936-21.254zm189.099 43.52L358.4 676.523c3.88-13.945 16.466-24.008 31.403-24.008 17.972 0 32.541 14.569 32.541 32.541 0 3.036-.416 5.974-1.193 8.762L381.44 843.093c-3.878 13.899-16.427 23.926-31.317 23.926-17.927 0-32.459-14.532-32.459-32.459 0-3.036.417-5.975 1.196-8.762zM127.829 567.467l149.845-40.107c2.559-.725 5.497-1.142 8.533-1.142 17.927 0 32.459 14.532 32.459 32.459 0 14.891-10.027 27.439-23.697 31.263l-149.562 40.332c-2.559.725-5.497 1.142-8.533 1.142-17.927 0-32.459-14.532-32.459-32.459 0-14.891 10.027-27.439 23.697-31.263zM895.147 112.64l-110.08 110.08c-5.875 5.875-13.99 9.508-22.955 9.508-17.929 0-32.463-14.534-32.463-32.463 0-8.964 3.634-17.08 9.508-22.955L848.725 67.242a32.3 32.3 0 0 1 22.072-8.671c17.909 0 32.427 14.518 32.427 32.427a32.3 32.3 0 0 1-8.609 22.005zM706.048 69.12 665.6 219.477c-3.88 13.945-16.466 24.008-31.403 24.008-17.972 0-32.541-14.569-32.541-32.541 0-3.036.416-5.974 1.193-8.762l40.052-149.616c3.878-13.899 16.427-23.926 31.317-23.926 17.927 0 32.459 14.532 32.459 32.459 0 3.036-.417 5.975-1.196 8.762zm190.805 259.413L747.008 368.64c-2.559.725-5.497 1.142-8.533 1.142-17.927 0-32.459-14.532-32.459-32.459 0-14.891 10.027-27.439 23.697-31.263l150.074-40.161c2.559-.725 5.497-1.142 8.533-1.142 17.927 0 32.459 14.532 32.459 32.459 0 14.891-10.027 27.439-23.697 31.263zm-404.821 99.67c-40.919 40.905-97.441 66.205-159.872 66.205-58.335 0-111.51-22.088-151.619-58.358l.196.174L66.39 321.877C28.279 281.492 4.853 226.889 4.853 166.815c0-124.89 101.243-226.133 226.133-226.133 60.074 0 114.677 23.425 155.173 61.64l114.236 114.243c36.095 39.914 58.183 93.089 58.183 151.424 0 62.431-25.3 118.953-66.206 159.873zM417.963 192 308.566 82.603c-20.662-20.514-49.128-33.193-80.555-33.193-63.151 0-114.345 51.194-114.345 114.345 0 31.724 12.919 60.43 33.783 81.145l109.404 109.404c19.827 17.113 45.846 27.537 74.3 27.537 62.963 0 114.005-51.042 114.005-114.005 0-28.453-10.424-54.472-27.661-74.446zm540.501 701.781c-40.919 40.905-97.441 66.205-159.872 66.205-58.335 0-111.51-22.088-151.619-58.358l.196.174-114.347-114.347c-37.354-40.216-60.276-94.288-60.276-153.712 0-124.89 101.243-226.133 226.133-226.133 59.467 0 113.573 22.954 153.941 60.486l114.207 114.218c36.095 39.914 58.183 93.089 58.183 151.424 0 62.431-25.3 118.953-66.206 159.873zm-74.24-235.69L774.827 548.694c-19.918-17.349-46.131-27.926-74.814-27.926-63.058 0-114.176 51.118-114.176 114.176 0 29.023 10.829 55.518 28.668 75.662l-.104-.12 109.397 109.397c19.827 17.113 45.846 27.537 74.3 27.537 62.963 0 114.005-51.042 114.005-114.005 0-28.453-10.424-54.472-27.661-74.446z" glyph-name="unlink" horiz-adv-x="1025" unicode="6"/><glyph d="M384 832h576c35.346 0 64-28.654 64-64s-28.654-64-64-64H384c-35.346 0-64 28.654-64 64s28.654 64 64 64m0-320h576c35.346 0 64-28.654 64-64s-28.654-64-64-64H384c-35.346 0-64 28.654-64 64s28.654 64 64 64m0-320h576c35.346 0 64-28.654 64-64s-28.654-64-64-64H384c-35.346 0-64 28.654-64 64s28.654 64 64 64M85.76 687.36v108.16c-4.8-2.24-9.92-3.52-15.04-3.52-18.56 0-32.32 13.44-32.32 32 0 21.44 14.4 30.4 16.64 29.44 6.4-4.16 12.48-6.4 20.16-6.4 13.76 0 25.28 8.64 28.8 23.36h16.64c18.24 0 28.16-9.92 28.16-29.76V687.36c0-19.52-9.92-29.76-28.16-29.76h-8c-17.6 0-26.88 10.24-26.88 29.76M25.6 369.6v12.16c0 36.16 35.52 56.64 63.36 69.12 24 11.2 42.56 16.64 42.56 29.44 0 13.12-8.64 19.84-26.56 19.84-21.44 0-34.24-16-37.44-32.32 0-.64-41.28-2.24-41.28 28.48S56 550.4 109.12 550.4c54.72 0 84.48-24.96 84.48-66.88 0-39.68-27.2-52.48-56.64-63.36-24.96-9.6-43.52-16.64-51.2-30.4h79.36c22.08 0 30.08-8.32 30.08-23.36v-2.56c0-16-7.68-24.96-30.08-24.96H64c-29.76 0-38.4 4.16-38.4 30.72M22.4 62.72c0 32 37.12 31.36 37.76 29.12 5.44-19.52 21.76-29.44 44.8-29.44 20.16 0 32.32 8.32 32.32 21.44s-7.68 18.88-24.32 18.88h-6.4c-20.8 0-29.44 6.72-29.44 20.8v3.2q0 21.12 28.8 21.12h11.2c11.2 0 18.24 6.08 18.24 15.68 0 11.52-11.84 18.88-31.36 18.88-27.2 0-37.44-15.04-40.96-27.52-.32-2.56-36.8-3.52-36.8 28.8 0 26.56 30.4 46.72 79.04 46.72 57.92 0 89.28-20.16 89.28-57.92 0-20.48-13.44-34.88-37.76-41.92 26.56-8.64 40.96-26.56 40.96-51.84 0-40.96-33.28-64.32-92.16-64.32-51.52 0-83.2 22.08-83.2 48.32" glyph-name="list-number" unicode="7"/><glyph d="M384 832h576c35.346 0 64-28.654 64-64s-28.654-64-64-64H384c-35.346 0-64 28.654-64 64s28.654 64 64 64m0-320h576c35.346 0 64-28.654 64-64s-28.654-64-64-64H384c-35.346 0-64 28.654-64 64s28.654 64 64 64m0-320h576c35.346 0 64-28.654 64-64s-28.654-64-64-64H384c-35.346 0-64 28.654-64 64s28.654 64 64 64M64 864h64c35.346 0 64-28.654 64-64v-64c0-35.346-28.654-64-64-64H64c-35.346 0-64 28.654-64 64v64c0 35.346 28.654 64 64 64m0-320h64c35.346 0 64-28.654 64-64v-64c0-35.346-28.654-64-64-64H64c-35.346 0-64 28.654-64 64v64c0 35.346 28.654 64 64 64m0-320h64c35.346 0 64-28.654 64-64V96c0-35.346-28.654-64-64-64H64C28.654 32 0 60.654 0 96v64c0 35.346 28.654 64 64 64" glyph-name="list-bullet" unicode="8"/><glyph d="m222.575 512 .016 102.193C229.782 771.065 356.769 896 512.37 896s282.589-124.933 289.803-282.466V512H832c35.346 0 64-28.654 64-64V64c0-35.346-28.654-64-64-64H192c-35.346 0-64 28.654-64 64v384c0 35.346 28.654 64 64 64zm163.47 0h251.758v101.532c0 70.902-56.355 128.377-125.878 128.377s-125.88-57.478-125.88-128.377z" glyph-name="lock" unicode="9"/><glyph d="M794.729 99.707a64 64 0 0 0-16-10.573l-.397-.165c-5.848-2.66-12.683-4.209-19.879-4.209s-14.031 1.549-20.188 4.334l.309-.125c-6.234 2.89-11.594 6.486-16.301 10.782l.05-.044-312.112 312.112a48.15 48.15 0 0 0-10.913 16.22l-.116.322c-2.207 5.658-3.485 12.207-3.485 19.054q0 .282.003.562v-.028l-.001.262c0 7.179 1.44 14.021 4.047 20.254l-.129-.346c2.401 6.771 6.01 12.577 10.613 17.434l-.02-.022 312.837 310.661a48.3 48.3 0 0 0 15.934 10.909l.317.119c5.872 2.541 12.708 4.02 19.891 4.02 14.167 0 26.989-5.751 36.262-15.046l.001-.001 35.549-36.566c9.237-9.35 14.944-22.209 14.944-36.398a51.6 51.6 0 0 0-4.043-20.097l.128.341c-2.696-6.333-6.42-11.732-11.019-16.244l-.007-.007-237.24-239.271 237.24-238.546a49.7 49.7 0 0 0 10.904-15.928l.123-.324c2.479-5.769 3.919-12.482 3.919-19.533l-.002-.364v.018l.001-.266a53.1 53.1 0 0 0-4.047-20.403l.131.353c-2.552-6.29-6.299-11.62-10.995-15.931l-.031-.028-35.549-37.291zm-500.599 0h-87.06c-16.027 0-29.019 12.992-29.019 29.019V767.17c0 16.027 12.992 29.019 29.019 29.019h87.06c16.027 0 29.019-12.992 29.019-29.019V128.726c0-16.027-12.992-29.019-29.019-29.019" glyph-name="arrow-skip-start" unicode=":"/><glyph d="M137.076 447.767q33.216-20.523 51.93-45.943c18.714-25.42 21.209-38.558 26.199-64.833q7.485-39.412 7.485-100.981 0-46.176 2.105-68.098c2.105-21.922 4.211-25.731 8.421-33.349q6.316-11.427 15.205-14.926c8.889-3.499 16.062-4.586 30.409-6.763q17.777-2.332 29.474-17.258C320.001 80.69 320 72.606 320 56.436Q320-.001 251.228-.001q-42.573 0-76.023 17.724c-33.45 17.724-39.532 28.529-51.696 50.141q-18.246 32.416-18.713 74.395-1.404 70.897-2.807 113.807c-1.403 42.91-2.339 47.109-4.211 55.504q-7.017 31.25-20.819 47.109c-13.802 15.859-21.209 20.445-36.023 29.618q-22.222 13.76-31.579 24.72C0 423.977 0 431.907 0 447.766q0 34.515 27.135 51.773 33.684 20.989 47.953 35.681c14.269 14.692 16.218 22.388 20.117 37.78q5.848 23.088 6.784 50.374c.936 27.286 1.559 61.956 2.807 131.298q1.404 64.367 40.936 102.846c39.532 38.479 61.52 38.48 105.497 38.48q68.772 0 68.772-55.504 0-25.187-11.462-39.646c-11.462-14.459-17.544-15.237-29.708-16.791q-27.135-3.732-37.895-11.194c-10.76-7.462-11.852-14.615-14.035-28.918q-3.275-21.456-4.211-83.023-.936-60.169-7.251-98.649c-6.315-38.48-12.476-47.497-24.795-65.533q-18.48-27.053-53.567-48.974zm749.848 0q-33.216-20.523-51.93-45.943c-18.714-25.42-21.209-38.558-26.199-64.833q-7.485-39.412-7.485-100.981 0-46.176-2.105-68.098c-2.105-21.922-4.211-25.731-8.421-33.349q-6.316-11.427-15.205-14.926c-8.889-3.499-16.062-4.586-30.409-6.763q-17.778-2.332-29.474-17.258C704 80.69 704 72.606 704 56.436Q704-.001 772.772-.001q42.573 0 76.023 17.724c33.45 17.724 39.532 28.529 51.696 50.141q18.246 32.416 18.713 74.395 1.404 70.897 2.807 113.807c1.403 42.91 2.339 47.109 4.211 55.504q7.017 31.25 20.819 47.109c13.802 15.859 21.209 20.445 36.023 29.618q22.222 13.76 31.579 24.72c9.357 10.96 9.357 18.89 9.357 34.749q0 34.515-27.135 51.773-33.684 20.989-47.953 35.681c-14.269 14.692-16.218 22.388-20.117 37.78q-5.848 23.088-6.784 50.374c-.936 27.286-1.559 61.956-2.807 131.298q-1.404 64.367-40.936 102.846c-39.532 38.479-61.52 38.48-105.497 38.48q-68.772 0-68.772-55.504 0-25.187 11.462-39.646c11.462-14.459 17.544-15.237 29.708-16.791q27.135-3.732 37.895-11.194c10.76-7.462 11.852-14.615 14.035-28.918q3.275-21.456 4.211-83.023.936-60.169 7.251-98.649c6.315-38.48 12.476-47.497 24.795-65.533q18.48-27.053 53.567-48.974z" glyph-name="code" unicode=";"/><glyph d="M600.183 22.811v-.143c0-15.931-7.276-30.162-18.685-39.552-11.343-10.55-26.453-17.019-43.073-17.137h-.033c-11.14 0-21.521 3.244-30.253 8.839-9.496 6.164-17 15.152-21.316 25.776l-44.678 99.359H158.838L114.465 1.308c-4.412-10.932-11.786-19.9-21.129-26.154-8.647-5.591-18.965-8.837-30.041-8.837q-.377 0-.75.005c-16.766.139-32.034 6.598-43.532 17.111C7.377-7.341-.052 6.859-.052 22.794v.019c.497 9.522 2.9 18.373 6.832 26.334l225.616 474.401c5.839 13.038 15.402 23.536 27.33 30.381 11.701 6.853 25.389 10.801 39.998 10.801s28.297-3.948 40.055-10.835a74.4 74.4 0 0 0 27.932-29.427L593.527 48.754c3.869-7.822 6.285-16.984 6.652-26.671zM203.041 199.11h194.731l-96.939 217.429zm777.387 147.626q43.52-43.861 43.52-134.144V23.664c.067-1.036.105-2.247.105-3.466 0-15.424-6.089-29.425-15.995-39.732-10.73-9.683-25.041-15.619-40.738-15.619a62 62 0 0 0-3.789.116 27 27 0 0 0-1.635-.037c-16.095 0-30.664 6.534-41.2 17.094C910.147-7.626 903.61 6.78 903.61 22.714q0 .77.02 1.537l-.002 5.727c-7.996-20.951-22.288-37.999-40.536-49.25-18.994-11.008-41.281-17.361-65.052-17.361q-1.92 0-3.826.055c-.297-.009-.87-.012-1.443-.012-26.924 0-52.375 6.304-74.959 17.516-20.968 10.24-38.97 26.053-51.962 45.498-12.607 18.963-19.936 41.675-19.936 66.099q0 .677.007 1.353a95 95 0 0 0-.163 5.713c0 24.818 8.756 47.591 23.347 65.398 19.243 18.899 44.285 32.287 72.24 37.242 38.061 7.624 80.858 11.917 124.658 11.917q8.322 0 16.595-.206l20.858.016v15.019c.19 1.951.299 4.218.299 6.51 0 16.996-5.972 32.597-15.932 44.819-11.911 9.935-27.533 16.048-44.582 16.048q-3.443-.001-6.8-.327c-37.555-3.095-72.498-12.15-104.744-26.231-7.318-4.335-18.437-7.661-30.26-8.382a36 36 0 0 0-1.627-.038c-11.135 0-21.095 5.03-27.732 12.942-6.891 8.683-11.027 19.729-11.027 31.74q0 1.292.063 2.569a31 31 0 0 0-.044 1.802 47.4 47.4 0 0 0 7.661 25.911 70.6 70.6 0 0 0 23.056 19.429c21.018 11.107 44.941 19.783 70.137 24.97 26.728 6.037 55.41 9.331 84.859 9.347q90.294 0 133.814-43.861zM880.929 75.035c14.043 15.93 22.615 36.976 22.615 60.024q0 2.097-.094 4.172l.007 13.969h-14.165c-4.533.256-9.837.403-15.176.403-28.403 0-55.84-4.137-81.741-11.842-13.531-4.937-24.486-19.494-24.486-36.61q0-1.122.062-2.228a31 31 0 0 1-.033-1.586c0-13.9 5.691-26.471 14.87-35.51 9.691-9.115 22.769-14.712 37.154-14.712q.93 0 1.853.031a63 63 0 0 1 2.857-.059c22.309 0 42.392 9.534 56.396 24.749zM571.852 565.36l19.797 53.589c19.302 51.135 58.945 90.778 108.798 109.654l55.042 19.882-53.589 19.797c-51.135 19.302-90.778 58.945-109.654 108.798l-20.394 55.554-19.797-53.76c-19.302-51.135-58.945-90.778-108.798-109.654l-55.042-20.735 53.589-19.797c51.122-19.322 90.758-58.958 109.653-108.798zm317.781-92.16 13.483 36.352c13.184 34.97 40.294 62.08 74.388 74.973l37.569 13.773-36.693 13.653c-34.97 13.184-62.08 40.294-74.973 74.388l-13.773 37.569-13.483-36.693c-13.221-35-40.396-62.12-74.557-74.974l-37.571-13.772 36.693-13.483c35-13.221 62.12-40.396 74.974-74.557z" glyph-name="style-type" unicode="&lt;"/><glyph d="M592 528h224c44.183 0 80-35.817 80-80s-35.817-80-80-80H592V144c0-44.183-35.817-80-80-80s-80 35.817-80 80v224H208c-44.183 0-80 35.817-80 80s35.817 80 80 80h224v224c0 44.183 35.817 80 80 80s80-35.817 80-80z" glyph-name="plus" unicode="="/><glyph d="M96 644.091c.383 6.356.719 12.715 1.158 19.067 2.407 34.835 9.752 68.393 22.669 100.482 10.283 25.546 23.75 49 40.315 70.389 11.371 14.684 24.127 27.819 37.886 39.915 11.775 10.351 23.209 21.152 34.745 31.815 7.805 7.214 16.098 13.568 25.71 17.741 16.771 7.281 32.938 5.537 48.531-3.861 15.58-9.389 27.495-23.14 38.498-37.917 14.867-19.967 26.85-42.028 39.684-63.47 9.421-15.74 18.561-31.656 26.011-48.611 7.548-17.177 13.557-34.88 15.397-53.95 2.536-26.278-3.773-49.817-20.485-69.211-9.59-11.13-20.792-20.641-31.103-31.069-10.013-10.126-21.434-18.212-32.501-26.842-13.34-10.402-23.591-23.417-27.874-41.004-3.58-14.703-2.625-29.374.561-43.979 4.338-19.88 12.228-38.199 21.467-55.904 16.31-31.257 36.336-59.679 57.602-87.145 20.172-26.052 41.282-51.184 64.197-74.492 19.154-19.485 39.281-37.668 62.295-51.801 13.611-8.358 27.832-14.956 43.525-17.296 20.317-3.03 38.018 3.112 53.341 17.542 3.092 2.911 6.23 5.854 8.874 9.211 11.704 14.855 25.651 27.129 39.36 39.64 7.778 7.098 15.694 14.267 24.381 19.919 21.681 14.106 44.907 15.397 68.798 7.237 19.479-6.653 36.955-17.52 52.816-31.05 19.334-16.493 38.017-33.873 56.871-51.008 13.325-12.112 25.947-25.026 36.91-39.689 9.418-12.596 17.396-26.049 20.847-42.074.578-2.685 1.014-5.405 1.515-8.109v-9.888c-.282-1.5-.581-2.997-.845-4.501-2.861-16.304-11.322-29.058-22.392-39.964-10.796-10.635-22.351-20.414-32.79-31.428-23.2-24.478-49.419-44.015-79.015-58.372-29.561-14.341-60.527-22.693-92.863-25.201-5.43-.421-10.862-.81-16.293-1.214h-12.641c-1.228.156-2.453.36-3.685.46-8.106.661-16.235 1.068-24.315 1.989-29.335 3.343-57.659 11.278-85.211 22.44-43.679 17.696-83.615 42.727-121.293 72.116-32.133 25.064-62.033 52.964-90.438 82.743-33.21 34.815-64.16 71.844-93.455 110.497-28.62 37.762-55.164 77.111-78.554 118.856-27.723 49.479-50.598 101.29-64.649 157.281-6.417 25.57-10.826 51.513-12.438 77.972-.368 6.048-.749 12.095-1.123 18.143z" glyph-name="phone" unicode="&gt;"/><glyph d="M512 960C229.23 960 0 730.77 0 448S229.23-64 512-64s512 229.23 512 512-229.23 512-512 512m40.789-789.333c-11.513-10.623-26.956-17.137-43.921-17.137q-1.589 0-3.16.076a47 47 0 0 0-2.864-.076c-16.965 0-32.408 6.514-43.966 17.177-11.108 11.186-18 26.656-18 43.736s6.893 32.549 18.048 43.779c12.419 10.757 28.738 17.313 46.589 17.313s34.17-6.556 46.681-17.392c11.062-11.151 17.955-26.621 17.955-43.7s-6.893-32.549-18.048-43.779zm123.563 356.864c-14.593-25.881-32.311-48.004-53.036-66.882l-32.638-31.081c-18.585-17.435-31.085-41.162-34.087-67.765l-1.582-24.907h-102.4a232 232 0 0 0-.163 8.863c0 28.82 5.063 56.457 14.347 82.072 11.385 24.359 28.247 46.249 49.016 63.625 18.67 15.401 34.551 32.639 47.867 51.794 8.039 12.997 12.482 27.729 12.496 43.498q0 68.271-62.464 68.271c-.543.017-1.181.026-1.822.026-17.84 0-33.952-7.398-45.435-19.293-11.575-12.699-18.652-29.637-18.652-48.228q0-1.127.035-2.246l-116.056.109c-.089 1.957-.14 4.251-.14 6.558 0 44.597 19.006 84.754 49.36 112.815 32.988 27.163 75.53 43.576 121.907 43.576q5.702 0 11.321-.328 84.816.024 131.067-40.936c28.949-26.748 47.016-64.908 47.016-107.288a148 148 0 0 0-.273-9.004c.02.268.021.101.021-.066 0-23.235-5.614-45.158-15.561-64.488z" glyph-name="question" unicode="?"/><glyph d="M576 512v128c0 35.346-28.654 64-64 64s-64-28.654-64-64V512H320c-35.346 0-64-28.654-64-64s28.654-64 64-64h128V256c0-35.346 28.654-64 64-64s64 28.654 64 64v128h128c35.346 0 64 28.654 64 64s-28.654 64-64 64zM512-64C229.23-64 0 165.23 0 448s229.23 512 512 512 512-229.23 512-512S794.77-64 512-64" glyph-name="plus-circle" unicode="@"/><glyph d="M248.822-63.976c-51.495 1.136-97.52 23.616-129.751 58.91-61.91 61.751-69.59 121.313-65.321 160.396 7.914 52.328 33.104 97.701 69.471 131.097l392.695 392.679c109.568 109.568 182.443 69.462 216.235 35.84 40.789-40.789 68.267-111.275-36.693-215.381L334.157 138.093l-70.315 70.998 361.131 360.448c55.636 55.636 42.839 68.267 36.693 74.752s-19.797 19.797-75.435-35.84L193.697 215.917c-20.474-18.438-35.098-43.015-40.978-70.817-3.054-26.463 8.893-52.063 36.37-79.711 34.133-34.133 59.904-30.549 68.267-29.355 30.677 7.419 56.812 23.685 76.316 45.914l465.551 465.744c32.165 29.338 56.871 66.31 71.298 108.071 14.547 53.038-2.178 100.313-50.648 148.782-51.2 51.2-133.291 104.448-257.536-19.968L133.622 354.838c-9.043-9.107-21.57-14.742-35.413-14.742-27.56 0-49.901 22.344-49.901 49.901 0 13.716 5.534 26.14 14.491 35.16l429.224 429.736C625.314 987.672 770.551 995.01 890.701 874.69c93.184-93.184 93.184-183.979 76.627-243.712-19.472-60.91-53.065-112.682-97.048-153.387L404.469 11.97c-34.177-37.539-79.859-64.066-131.449-74-8.08-1.219-15.674-1.778-23.4-1.778l-.843.002z" glyph-name="paperclip" unicode="A"/><glyph d="M684.799 460.033c72.576 14.976 132.48 80.64 132.48 176.127 0 102.528-74.88 195.84-221.184 195.84H227.328C207.816 832 192 816.184 192 796.672V99.328C192 79.817 207.816 64 227.328 64h381.439C756.223 64 832 156.16 832 272.384 832 368 768.001 448 684.799 460.033M355.455 688h204.801c55.296 0 89.599-33.408 89.599-80.64 0-49.536-34.56-80.64-89.599-80.64H355.455zm211.839-480.129H355.455v175.104h211.968c63.36 0 97.92-39.168 97.92-87.552 0-55.296-36.864-87.552-97.92-87.552z" glyph-name="bold" unicode="B"/><glyph d="M993.343 183.651h-90.771v593.951c0 33.106-26.837 59.943-59.943 59.943H250.048v88.202c0 18.918-15.336 34.253-34.253 34.253h-57.032c-18.918 0-34.253-15.336-34.253-34.253v-88.373H34.253C15.335 837.374 0 822.038 0 803.121v-57.374c0-18.918 15.336-34.253 34.253-34.253h90.771V118.228c0-33.106 26.837-59.943 59.943-59.943h592.581v-88.716c0-18.918 15.336-34.253 34.253-34.253h57.374c18.918 0 34.253 15.336 34.253 34.253v89.058h89.915c18.918 0 34.253 15.336 34.253 34.253v56.86c0 18.918-15.336 34.253-34.253 34.253zm-743.808.342V712.52h528.013V183.65h-527.5z" glyph-name="crop" unicode="C"/><glyph d="M128 831.909h768c70.692 0 128-57.308 128-128v-512c0-70.692-57.308-128-128-128H128c-70.692 0-128 57.308-128 128v512c0 70.692 57.308 128 128 128M864 192c17.673 0 32 14.327 32 32v448c0 17.673-14.327 32-32 32H160c-17.673 0-32-14.327-32-32V394.886a32 32 0 0 1 13.735-26.275c14.511-10.087 34.453-6.501 44.54 8.011l5.468 7.866c3.088 5.029 9.354 8.471 16.582 8.471s13.494-3.441 16.631-8.559l42.74-61.863 174.711 252.92c5.545 10.301 17.931 17.472 32.319 17.472 14.004 0 26.108-6.793 31.951-16.825L768.719 196.41a16.1 16.1 0 0 0 1.886-4.41zM736 640c53.019 0 96-42.981 96-96s-42.981-96-96-96-96 42.981-96 96 42.981 96 96 96" glyph-name="photo-picture" unicode="D"/><glyph d="M957.76 551.04C935.511 448.896 744.512 369.152 512 369.152c-247.446 0-448 90.346-448 201.898V447.999c0-111.552 200.555-201.898 448-201.898s448 90.347 448 201.898q-.026 7.105-2.24 103.042zM512 123.051c-247.446 0-448 90.347-448 201.897V201.897C64 90.345 264.555 0 512 0s448 90.347 448 201.897v123.051c0-111.552-200.555-201.897-448-201.897m448 571.05C960 582.399 759.445 492.8 512 492.8S64 582.4 64 694.101 264.555 896 512 896s448-90.347 448-201.899" glyph-name="user-reputation-points" unicode="E"/><glyph d="m952.182 832 .031-.002c39.701-.323 71.788-33.5 71.788-74.38V138.379c0-40.88-32.087-74.058-71.818-74.38H72.374C32.403 63.999.001 97.302.001 138.382v619.234c0 41.082 32.403 74.383 72.373 74.383zM128 736c-17.673 0-32-14.327-32-32v-64c0-17.673 14.327-32 32-32h96c17.673 0 32 14.327 32 32v64c0 17.673-14.327 32-32 32zm224 0c-17.673 0-32-14.327-32-32v-64c0-17.673 14.327-32 32-32h96c17.673 0 32 14.327 32 32v64c0 17.673-14.327 32-32 32zm224 0c-17.673 0-32-14.327-32-32v-64c0-17.673 14.327-32 32-32h96c17.673 0 32 14.327 32 32v64c0 17.673-14.327 32-32 32zm224 0c-17.673 0-32-14.327-32-32v-64c0-17.673 14.327-32 32-32h96c17.673 0 32 14.327 32 32v64c0 17.673-14.327 32-32 32zM128 288c-17.673 0-32-14.327-32-32v-64c0-17.673 14.327-32 32-32h96c17.673 0 32 14.327 32 32v64c0 17.673-14.327 32-32 32zm224 0c-17.673 0-32-14.327-32-32v-64c0-17.673 14.327-32 32-32h96c17.673 0 32 14.327 32 32v64c0 17.673-14.327 32-32 32zm224 0c-17.673 0-32-14.327-32-32v-64c0-17.673 14.327-32 32-32h96c17.673 0 32 14.327 32 32v64c0 17.673-14.327 32-32 32zm224 0c-17.673 0-32-14.327-32-32v-64c0-17.673 14.327-32 32-32h96c17.673 0 32 14.327 32 32v64c0 17.673-14.327 32-32 32z" glyph-name="animation-video" unicode="F"/><glyph d="M239.765 896H95.36C78.04 896 64 881.96 64 864.64V720.235c0-17.32 14.04-31.36 31.36-31.36h144.405c17.32 0 31.36 14.04 31.36 31.36V864.64c0 17.32-14.04 31.36-31.36 31.36m344.363 0H439.872c-17.32 0-31.36-14.04-31.36-31.36V720.235c0-17.32 14.04-31.36 31.36-31.36h144.405c17.32 0 31.36 14.04 31.36 31.36V864.64c0 17.32-14.04 31.36-31.36 31.36h-.158zM960 864.64c0 17.32-14.04 31.36-31.36 31.36H784.235c-17.32 0-31.36-14.04-31.36-31.36V720.384c0-17.32 14.04-31.36 31.36-31.36H928.64c17.32 0 31.36 14.04 31.36 31.36zM239.765 551.488H95.36c-17.32 0-31.36-14.04-31.36-31.36V375.723c0-17.32 14.04-31.36 31.36-31.36h144.405c17.32 0 31.36 14.04 31.36 31.36v144.405c0 17.32-14.04 31.36-31.36 31.36m344.363 0H439.872c-17.32 0-31.36-14.04-31.36-31.36V375.723c0-17.32 14.04-31.36 31.36-31.36h144.405c17.32 0 31.36 14.04 31.36 31.36v144.405c0 17.32-14.04 31.36-31.36 31.36zm344.512 0H784.235c-17.32 0-31.36-14.04-31.36-31.36V375.872c0-17.32 14.04-31.36 31.36-31.36H928.64c17.32 0 31.36 14.04 31.36 31.36v144.256c0 17.32-14.04 31.36-31.36 31.36M239.765 206.976H95.36c-17.32 0-31.36-14.04-31.36-31.36V31.36C64 14.04 78.04 0 95.36 0h144.405c17.32 0 31.36 14.04 31.36 31.36v144.256c0 17.32-14.04 31.36-31.36 31.36m344.363 0H439.872c-17.32 0-31.36-14.04-31.36-31.36V31.36c0-17.32 14.04-31.36 31.36-31.36h144.405c17.32 0 31.36 14.04 31.36 31.36v144.256c0 17.32-14.04 31.36-31.36 31.36zm344.512 0H784.235c-17.32 0-31.36-14.04-31.36-31.36V31.36c0-17.32 14.04-31.36 31.36-31.36H928.64C945.96 0 960 14.04 960 31.36v144.256c0 17.32-14.04 31.36-31.36 31.36" glyph-name="thumbnails" unicode="G"/><glyph d="M716.894 672.58a304 304 0 0 1-3.872 3.467c-69.009 60.732-161.584 87.586-253.821 71.323-165.344-29.155-275.747-186.827-246.593-352.171s186.827-275.747 352.171-246.593c77.947 13.744 145.751 56.436 191.797 118.844 26.232 35.553 76.318 43.109 111.871 16.877s43.109-76.318 16.877-111.871C815.135 77.328 711.353 11.984 592.562-8.962 340.195-53.461 99.538 115.049 55.038 367.416S179.049 860.44 431.416 904.94c140.63 24.797 282.185-16.266 387.309-108.781a465 465 0 0 0 17.455-16.171l48.279 43.47a64 64 0 0 0 42.81 16.439c35.346.008 64.006-28.639 64.014-63.986l.048-215.702c0-2.244-.117-4.487-.352-6.718-3.703-35.152-35.2-60.646-70.352-56.944l-214.515 22.595a64 64 0 0 0-40.857 20.824c-23.651 26.267-21.53 66.734 4.737 90.386l46.901 42.23z" glyph-name="refresh" unicode="H"/><glyph d="M512 960q106 0 199-40 94-40 163.5-109.5C944 741 957.333 709.667 984 647q40-93 40-199c0-106-13.333-137-40-199q-40-94-109.5-163.5C805 16 773.667 2.667 711-24q-93-40-199-40c-106 0-137 13.333-199 40Q219 16 149.5 85.5C80 155 66.667 186.333 40 249Q0 342 0 448c0 106 13.333 137 40 199q40 94 109.5 163.5C219 880 250.333 893.333 313 920q93 40 199 40m0-448c-35.346 0-64-28.654-64-64V256c0-35.346 28.654-64 64-64s64 28.654 64 64v192c0 35.346-28.654 64-64 64m0 64c35.346 0 64 28.654 64 64s-28.654 64-64 64-64-28.654-64-64 28.654-64 64-64" glyph-name="info" unicode="I"/><glyph d="M936.881 602.057 524.72 921.258c-5.37 4.22-12.228 6.767-19.68 6.767s-14.31-2.547-19.748-6.819L86.32 601.737c-7.236-5.902-11.824-14.814-11.84-24.797V-.025c0-17.673 14.327-32 32-32h236.959c17.673 0 32 14.327 32 32v353.281H648.56V-.025c0-17.673 14.327-32 32-32h236.959c17.673 0 32 14.327 32 32v576.962c-.037 10.179-4.821 19.232-12.251 25.068z" glyph-name="home" unicode="J"/><glyph d="M984.615 578.511v36.871c0 6.047-.759 12.093-1.519 18.139v2.507c-6.367 48.931-29.099 91.815-62.608 124.154-46.486 44.413-110.252 71.819-180.597 71.819s-134.113-27.408-180.624-71.843c-35.29-35.503-39.688-47.3-46.966-47.3s-11.978 11.354-47.458 46.452c-45.645 44.199-108.596 71.522-178.109 71.522q-.347 0-.693-.002c-.924.014-2.059.019-3.195.019-69.737 0-132.896-27.384-178.73-71.7-33.584-32.102-56.491-74.702-63.092-122.331-.125-1.975-.125-2.859-.125-3.596 0-6.047-1.212-11.945-1.519-18.139v-36.871c7.231-60.554 28.069-115.236 59.461-162.689l-.933 1.507c2.121-3.244 3.639-6.636 5.913-9.88C189.338 277.674 437.547 63.997 511.996 63.997c74.599 0 322.657 214.27 408.477 343.745 2.123 3.244 3.792 6.636 5.913 9.88 30.401 46.27 51.058 101.344 57.763 160.506l.461.382z" glyph-name="heart" unicode="K"/><glyph d="M858.453 613.355v.384c0 191.341-155.112 346.453-346.453 346.453S165.547 805.08 165.547 613.739c0-103.281 45.193-196.007 116.883-259.48 16.89-14.701 27.326-35.713 27.501-59.166v-44.234c0-23.187 18.797-41.984 41.984-41.984h320.171c23.187 0 41.984 18.797 41.984 41.984v44.203c.203 23.426 10.635 44.375 27.04 58.628 72.14 63.639 117.344 156.172 117.344 259.263v.425zM695.978 74.389H328.021c-9.991 0-18.091 8.099-18.091 18.091v39.424c0 9.991 8.099 18.091 18.091 18.091h367.957c9.991 0 18.091-8.099 18.091-18.091V92.48c0-9.991-8.099-18.091-18.091-18.091M631.125-64.192H392.192c-9.991 0-18.091 8.099-18.091 18.091v39.253c0 9.991 8.099 18.091 18.091 18.091h238.933c9.991 0 18.091-8.099 18.091-18.091v-39.424c-.097-9.918-8.159-17.92-18.09-17.92z" glyph-name="lightbulb" unicode="L"/><glyph d="M989.867 631.637c-7.098 18.287-24.554 31.016-44.983 31.016a48 48 0 0 1-17.128-3.137l-14.006-5.18c-44.074 84.36-111.225 151.511-193.089 194.394l2.796 15.526c1.895 4.965 2.992 10.707 2.992 16.706 0 20.352-12.633 37.754-30.485 44.791C641.155 947.43 578.037 959.932 512 959.932s-129.155-12.502-187.114-35.269c-14.81-5.894-27.539-23.351-27.539-43.78 0-6.033 1.11-11.807 3.137-17.128l5.18-14.006c-84.36-44.074-151.511-111.225-194.394-193.089l-15.526 2.796c-4.965 1.895-10.707 2.992-16.706 2.992-20.352 0-37.754-12.633-44.791-30.485C12.57 577.154.068 514.036.068 447.999S12.57 318.844 35.337 260.885c5.894-14.81 23.351-27.539 43.78-27.539 6.033 0 11.807 1.11 17.128 3.137l14.006 5.18C154.334 157.31 221.482 90.162 303.34 47.27l-2.795-15.527c-1.895-4.965-2.992-10.707-2.992-16.706 0-20.352 12.633-37.754 30.485-44.791C382.823-51.41 445.911-63.9 511.916-63.9s129.093 12.49 187.029 35.235c14.81 5.895 27.539 23.351 27.539 43.781 0 6.033-1.11 11.807-3.137 17.128l-5.18 14.006c84.422 44.057 151.629 111.21 194.564 193.091l15.527-2.797c4.965-1.895 10.707-2.992 16.706-2.992 20.352 0 37.754 12.633 44.791 30.485 21.656 54.785 34.146 117.873 34.146 183.878s-12.49 129.093-35.235 187.029zm-684.715-266.24L79.019 281.77c-19.522 49.344-30.84 106.508-30.84 166.315s11.318 116.97 31.93 169.465l10.174-7.246 214.869-79.531c-10.091-24.452-15.95-52.843-15.95-82.603s5.859-58.15 16.487-84.082zM512 911.872h.068c59.758 0 116.869-11.337 169.297-31.979l-7.232-10.176-79.531-214.869c-24.452 10.091-52.843 15.95-82.603 15.95s-58.15-5.859-84.082-16.487l-82.147 226.67c49.292 19.553 106.403 30.891 166.161 30.891h.072zm0-927.573h-.068c-59.758 0-116.869 11.337-169.297 31.979l86.763 225.045c24.452-10.091 52.843-15.95 82.603-15.95s58.15 5.859 84.082 16.487L678.23 15.19C628.929-4.425 571.803-15.821 512.021-15.871zm162.133 528.896c7.926-19.144 12.529-41.376 12.529-64.683s-4.603-45.539-12.949-65.836c-1.787-4.171-3.069-10.354-3.069-16.837 0-20.603 12.946-38.182 31.147-45.047l5.793-2.158c-17.663-26.282-39.596-48.214-65.032-65.341l-2.893 4.925c-6.974 18.532-24.553 31.478-45.156 31.478a48 48 0 0 1-18.311-3.606c-18.824-7.81-41.056-12.413-64.362-12.413s-45.539 4.603-65.836 12.949c-4.13 1.75-10.262 3.009-16.689 3.009-20.58 0-38.144-12.918-45.024-31.088l-2.158-5.792c-26.211 17.68-48.086 39.609-65.169 65.027l4.923 2.898c18.532 6.974 31.478 24.553 31.478 45.156a48 48 0 0 1-3.606 18.311c-7.81 18.824-12.413 41.056-12.413 64.362s4.603 45.539 12.949 65.836c1.75 4.13 3.009 10.262 3.009 16.689 0 20.58-12.918 38.144-31.088 45.024l-5.792 2.158c17.637 26.198 39.509 48.07 64.864 65.171l2.891-4.926c6.974-18.532 24.553-31.478 45.156-31.478a48 48 0 0 1 18.311 3.606c18.823 7.818 41.054 12.426 64.362 12.426s45.54-4.608 65.834-12.962c4.173-1.787 10.356-3.069 16.839-3.069 20.603 0 38.182 12.946 45.047 31.147l2.158 5.793c26.269-17.621 48.198-39.496 65.343-64.868l-4.927-2.886c-18.501-6.99-31.419-24.554-31.419-45.134a48 48 0 0 1 3.545-18.163zm270.848-231.424-11.264 4.096-214.869 79.531c10.091 24.452 15.95 52.843 15.95 82.603s-5.859 58.15-16.487 84.082l226.67 82.147c19.522-49.344 30.84-106.508 30.84-166.315s-11.318-116.97-31.93-169.465z" glyph-name="help-support" unicode="M"/><glyph d="M512 960c-34.404 0-62.293-27.89-62.293-62.293V745.984c0-34.404 27.89-62.293 62.293-62.293s62.293 27.89 62.293 62.293v151.723c0 34.404-27.89 62.293-62.293 62.293m0-747.691c-34.404 0-62.293-27.89-62.293-62.293V-1.707C449.707-36.111 477.597-64 512-64s62.293 27.89 62.293 62.293v151.723c0 34.404-27.89 62.293-62.293 62.293m210.603 384h.11c17.165 0 32.7 6.981 43.92 18.259L873.985 721.92c11.99 11.377 19.45 27.428 19.45 45.221 0 34.404-27.89 62.293-62.293 62.293-17.793 0-33.843-7.46-45.195-19.422L678.572 702.635c-11.263-11.271-18.229-26.838-18.229-44.032 0-34.392 27.871-62.275 62.26-62.293zM301.397 299.691h-.11c-17.165 0-32.7-6.981-43.92-18.259L150.015 174.08c-11.99-11.377-19.45-27.428-19.45-45.221 0-34.404 27.89-62.293 62.293-62.293 17.793 0 33.843 7.46 45.195 19.422l107.375 107.377c11.263 11.271 18.229 26.838 18.229 44.032 0 34.392-27.871 62.275-62.26 62.293zm660.31 210.602H809.984c-34.404 0-62.293-27.89-62.293-62.293s27.89-62.293 62.293-62.293h151.723c34.404 0 62.293 27.89 62.293 62.293s-27.89 62.293-62.293 62.293M276.309 448c0 34.404-27.89 62.293-62.293 62.293H62.293C27.889 510.293 0 482.403 0 448s27.89-62.293 62.293-62.293h151.723c34.404 0 62.293 27.89 62.293 62.293m490.326-166.571c-11.377 11.99-27.428 19.45-45.221 19.45-34.404 0-62.293-27.89-62.293-62.293 0-17.793 7.46-33.843 19.422-45.195L785.92 86.016c11.377-11.99 27.428-19.45 45.221-19.45 34.404 0 62.293 27.89 62.293 62.293 0 17.793-7.46 33.843-19.422 45.195zM238.08 809.984c-11.14 10.571-26.233 17.073-42.843 17.073-34.404 0-62.293-27.89-62.293-62.293 0-16.611 6.502-31.703 17.099-42.871l107.323-107.322c11.377-11.99 27.428-19.45 45.221-19.45 34.404 0 62.293 27.89 62.293 62.293 0 17.793-7.46 33.843-19.422 45.195z" glyph-name="loader" unicode="N"/><glyph d="m757.93 655.274 2.731 274.603.002.341c0 16.212-13.143 29.355-29.355 29.355h-87.042c-16.055-.093-29.068-12.987-29.354-28.986l-2.731-275.312H412.16l2.731 274.432c.003.152.004.332.004.512 0 16.154-13.048 29.26-29.179 29.354h-87.053c-16.126 0-29.233-12.929-29.521-28.986l-2.731-275.312H189.44v-168.96c.699-144.669 96.73-266.722 228.462-306.607l5.01-214.268c.049-8.233 3.581-15.631 9.196-20.803 5.313-5.089 12.508-8.21 20.432-8.21h.072-.004c29.355 0 45.568.853 61.781 1.536s31.573 1.365 59.904 1.536h.002c16.281 0 29.501 13.101 29.694 29.336v209.597c133.939 40.538 229.895 162.573 230.57 307.121v169.039z" glyph-name="plugin-2" unicode="O"/><glyph d="M974.681 663.513 538.457 226.948c-8.921-8.874-23.335-8.874-32.256 0l-53.931 53.931c-8.874 8.921-8.874 23.335 0 32.256l456.192 456.704c-169.457 210.118-473.148 252.116-693.27 95.875S-65.489 408.932 76.947 179.636C219.383-49.661 515.64-128.552 753.247-.457s334.532 418.951 221.263 663.971zM137.39 349.145c-2.2.028-4.384.373-6.485 1.024a22.53 22.53 0 0 0-15.872 17.067 396.6 396.6 0 0 0-8.533 81.579c.282 221.575 179.833 401.126 401.408 401.408h31.744l-93.184-94.208a22.35 22.35 0 0 0-10.581-5.973c-139.542-32.965-237.89-157.845-237.227-301.227a289 289 0 0 1 2.219-34.133 22.7 22.7 0 0 0-6.485-18.773l-40.789-40.107a22.87 22.87 0 0 0-16.213-6.656zM389.933 210.99a16.78 16.78 0 0 0-11.074-11.977l-158.358-51.594a16.5 16.5 0 0 0-5.352 0c-5.398.015-10.46 2.62-13.605 7s-3.988 10.003-2.268 15.111l51.679 158.099c1.813 5.55 6.386 9.759 12.073 11.113s11.671-.343 15.796-4.479l106.679-106.505a16.57 16.57 0 0 0 4.43-15.662zm-41.257 184.235a22.7 22.7 0 0 0-16.213 6.656l-53.931 53.931c-8.874 8.921-8.874 23.335 0 32.256l353.621 353.28c8.921 8.874 23.335 8.874 32.256 0l53.931-53.931c8.874-8.921 8.874-23.335 0-32.256L364.889 400.857a22.87 22.87 0 0 0-16.213-6.656zM507.908 47.406a403 403 0 0 0-95.061 11.435 22.868 22.868 0 0 0-10.752 38.571l39.424 39.595a23.04 23.04 0 0 0 19.627 6.315 302 302 0 0 1 46.592-3.755c150.162-.036 278.547 108.033 304.128 256a22.2 22.2 0 0 0 6.144 12.117l88.405 88.405 1.365-19.115c0-9.045 1.365-18.091 1.365-27.136.283-221.908-179.33-402.055-401.237-402.432" glyph-name="forminator" unicode="P"/><glyph d="M864 704 804.89-5.315C802.126-38.486 774.397-64 741.111-64H282.888c-33.286 0-61.015 25.514-63.779 58.685L159.999 704h-32c-35.346 0-64 28.654-64 64s28.654 64 64 64h768c35.346 0 64-28.654 64-64s-28.654-64-64-64zM352 960h320c17.673 0 32-14.327 32-32v-64H320v64c0 17.673 14.327 32 32 32m-32.117-384.624c-26.445-1.849-46.384-24.786-44.535-51.231l29.019-414.987c1.849-26.445 24.786-46.384 51.231-44.535s46.384 24.786 44.535 51.231l-29.019 414.987c-1.849 26.445-24.786 46.384-51.231 44.535M512 576c-26.51 0-48-21.49-48-48V112c0-26.51 21.49-48 48-48s48 21.49 48 48v416c0 26.51-21.49 48-48 48m195.598-.624c-26.445 1.849-49.382-18.09-51.231-44.535l-29.019-414.987c-1.849-26.445 18.09-49.382 44.535-51.231s49.382 18.09 51.231 44.535l29.019 414.987c1.849 26.445-18.09 49.382-44.535 51.231" glyph-name="trash" unicode="Q"/><glyph d="M354.645 573.269c-2.821 2.878-6.749 4.661-11.093 4.661s-8.272-1.784-11.091-4.659l-.002-.003-119.467-119.467c-33.906-33.962-54.873-80.85-54.873-132.635 0-40.902 13.08-78.749 35.286-109.586l-.381.556L17.067 36.349C6.41 25.692-.182 10.969-.182-5.294c0-32.525 26.367-58.892 58.892-58.892 16.262 0 30.985 6.592 41.643 17.249L276.14 129.191c30.28-21.825 68.127-34.905 109.029-34.905 51.785 0 98.673 20.967 132.637 54.876l119.465 119.465c2.836 2.84 4.59 6.762 4.59 11.093s-1.754 8.253-4.59 11.094zm652.288 369.664c-10.629 10.65-25.324 17.239-41.557 17.239s-30.929-6.589-41.556-17.238L747.691 766.976c-30.26 21.781-68.071 34.834-108.93 34.834-51.75 0-98.609-20.939-132.568-54.806L386.73 627.541c-2.836-2.84-4.59-6.762-4.59-11.093s1.754-8.253 4.59-11.094L669.354 322.73c2.821-2.878 6.749-4.661 11.093-4.661s8.272 1.784 11.091 4.659l.002.003 119.467 119.467c33.906 33.962 54.873 80.85 54.873 132.635 0 40.902-13.08 78.749-35.286 109.586l.381-.556 175.957 175.787c10.701 10.637 17.325 25.366 17.325 41.643s-6.623 31.006-17.322 41.64l-.003.003z" glyph-name="plug-connected" unicode="R"/><glyph d="M1022.693 572.936c-3.255 9.924-12.398 16.98-23.2 17.067H653.2L535.269 923.315c-3.443 9.687-12.531 16.499-23.211 16.499s-19.767-6.811-23.157-16.327L370.917 589.321H24.634C11.08 589.296.102 578.303.102 564.745c0-7.796 3.63-14.744 9.292-19.247L279.78 331.443 158.777-10.914c-.92-2.477-1.453-5.339-1.453-8.325 0-13.573 11.003-24.576 24.576-24.576 4.699 0 9.091 1.319 12.824 3.607l317.333 190.403 317.44-190.293c3.626-2.227 8.017-3.546 12.717-3.546 13.573 0 24.576 11.003 24.576 24.576a24.5 24.5 0 0 1-1.508 8.495L744.334 331.443l270.336 214.016c5.646 4.542 9.228 11.45 9.228 19.194 0 2.907-.505 5.696-1.431 8.284z" glyph-name="star" unicode="S"/><glyph d="M999.595 431.957 768 341.333l75.264-57.856c-40.448-87.723-120.32-185.856-277.163-204.8v405.845h87.552c32.896 0 59.563 26.667 59.563 59.563v37.717c0 6.881-5.578 12.459-12.459 12.459H566.784v83.968c54.046 22.297 91.392 74.577 91.392 135.579 0 80.778-65.483 146.261-146.261 146.261s-146.261-65.483-146.261-146.261c0-61.002 37.345-113.282 90.421-135.224l.971-.356V594.26H323.243c-6.881 0-12.459-5.578-12.459-12.459v-37.717c0-32.896 26.667-59.563 59.563-59.563h86.869V79.017C331.349 90.203 226.46 169.781 179.175 279.939l-.829 2.171 77.653 59.221-231.595 90.624 9.728-260.437 61.44 47.104C165.14 82.12 299.856-12.389 457.623-24.149l1.469-.088c1.783-5.006 4.522-9.283 8.023-12.801l-.001.001 19.797-17.067c6.359-6.346 15.137-10.269 24.832-10.269s18.473 3.924 24.833 10.27l-.001-.001 19.797 17.067a35.2 35.2 0 0 1 7.943 12.556l.078.244C723.899-13.123 858.812 82.162 925.918 217.109l1.142 2.537 62.805-48.128zM512 868.523c30.256 0 54.784-24.528 54.784-54.784S542.256 758.955 512 758.955s-54.784 24.528-54.784 54.784 24.528 54.784 54.784 54.784" glyph-name="shipper-anchor" unicode="T"/><glyph d="M417.792 403.456a12.5 12.5 0 0 1 1.595 6.144c0 6.975-5.654 12.629-12.629 12.629H262.997a4.607 4.607 0 0 0-3.075 8.018l.004.003 508.075 460.629c-72.482 41.722-159.387 66.332-252.04 66.332-282.77 0-512-229.23-512-512 0-168.707 81.597-318.357 207.479-411.636l1.383-.979zM789.675 878.08l-186.88-329.045c-.991-1.775-1.574-3.894-1.574-6.15 0-7.069 5.731-12.8 12.8-12.8q.2 0 .399.006h143.341a4.61 4.61 0 0 0 3.243-7.851L233.644 18.432c80.343-54.904 179.602-87.673 286.514-87.673 282.77 0 512 229.23 512 512 0 182.975-95.982 343.532-240.344 434.07z" glyph-name="performance" unicode="U"/><glyph d="m1004.63 797.657-99.726 100.512c-12.377 14.769-30.829 24.092-51.462 24.092-37.008 0-67.008-30-67.008-67.008 0-20.631 9.324-39.085 23.988-51.378l99.83-100.755c12.106-12.011 28.781-19.434 47.189-19.434s35.083 7.422 47.194 19.439c11.97 12.12 19.366 28.788 19.366 47.184s-7.396 35.066-19.377 47.196zM116.059 898.171 15.547 798.445C5.874 786.909.001 771.906.001 755.529c0-37.008 30-67.008 67.008-67.008 16.375 0 31.38 5.875 43.02 15.632l100.567 99.799c14.769 12.377 24.092 30.829 24.092 51.462 0 37.008-30 67.008-67.008 67.008-20.631 0-39.085-9.324-51.378-23.988zm391.827-200.396h.316c165.059 0 298.863-133.806 298.863-298.863S673.259 100.049 508.202 100.049c-165.059 0-298.863 133.806-298.863 298.863 0 82.645 33.546 157.456 87.765 211.558 53.635 53.931 127.883 87.306 209.925 87.306l.904-.001zm0 127.723c-235.095-.207-425.595-190.836-425.595-425.96 0-235.251 190.709-425.96 425.96-425.96s425.96 190.709 425.96 425.96c0 117.871-47.878 224.562-125.246 301.684C732.064 778.293 625.75 825.97 508.301 825.97h-.436zm125.68-395.129v2.674c-1.409 5.069-2.804 9.151-4.394 13.131.304.867-.64 2.599-1.427 4.171-13.481 30.382-37.255 54.158-66.805 67.307l-.834.332h-1.574v125.837h-99.254V517.984h-.943c-16.521-6.724-30.636-16.144-42.483-27.853-23.224-23.43-37.582-55.705-37.582-91.334l.001-.378v.02-.786c.037-6.525.55-12.899 1.506-19.125l-.092.721c1.638-11.347 4.497-21.575 8.493-31.212l-31.773-30.607-12.899-12.899 68.896-68.896 44.358 44.358 2.202-1.102h1.102c13.995-5.58 30.214-8.814 47.189-8.814s33.193 3.237 48.073 9.124l1.631-.308c47.547 20.067 80.376 66.17 80.693 119.976-.062 11.245-1.549 22.076-4.292 32.396zm-91.231-64.806c-8.852-8.843-21.075-14.314-34.578-14.314-27.018 0-48.918 21.903-48.918 48.918s21.903 48.918 48.918 48.918c13.501 0 25.726-5.47 34.578-14.314 8.899-8.836 14.407-21.077 14.407-34.605s-5.508-25.769-14.404-34.603z" glyph-name="stopwatch" unicode="V"/><glyph d="M512 960C229.23 960 0 730.77 0 448S229.23-64 512-64s512 229.23 512 512-229.23 512-512 512m413.696-464.725H800.085c-9.899 146.603-64.853 273.067-143.019 343.04 144.888-55.283 249.655-184.947 268.267-341.061zM460.8 789.333V495.786H319.659c11.093 146.773 73.045 256 140.629 293.547zm-.512-389.12V106.666c-68.267 37.888-129.195 146.261-140.629 292.523zm95.573-296.618v296.107H704.17c-11.776-151.723-77.824-262.827-148.309-296.619zm0 392.021v297.131c70.656-34.133 136.533-145.237 148.309-297.472zM366.763 838.315c-78.165-70.656-133.12-196.267-143.019-343.04H98.304c18.804 158.093 123.57 287.757 265.597 342.078zM98.475 399.701h125.44C233.984 253.44 288.768 128.17 366.763 58.368 222.395 113.438 117.87 242.337 98.679 397.673zM657.237 58.368c77.995 70.485 132.949 195.755 142.848 341.333h125.44C906.13 242.337 801.606 113.438 660.099 59.329z" glyph-name="web-globe-world" unicode="W"/><glyph d="M930.718 452.783H718.311c-26.382 0-48.763-17.131-56.625-40.877C640.65 347.653 581.614 302.363 512 302.363s-128.649 45.29-149.248 108.012c-8.298 25.277-30.679 42.408-57.061 42.408H93.283c-32.935 0-59.634-26.699-59.634-59.634V52.723c0-32.935 26.699-59.634 59.634-59.634h837.433c32.935 0 59.634 26.699 59.634 59.634V392.99c0 32.935-26.699 59.634-59.634 59.634zm-431.314-31.89c2.927-4.074 7.652-6.697 12.989-6.697h.091-.005.086c5.338 0 10.062 2.623 12.957 6.649l165.064 232.208a15.84 15.84 0 0 1 3.315 9.732c0 8.807-7.139 15.945-15.945 15.945q-.234 0-.468-.007l-77.629.001v208.243c0 8.807-7.139 15.945-15.945 15.945H440.409c-8.807 0-15.945-7.139-15.945-15.945V678.724h-77.971l-.202.001c-8.807 0-15.945-7.139-15.945-15.945 0-3.538 1.153-6.807 3.103-9.453z" glyph-name="download" unicode="X"/><glyph d="M64 896V776.533h59.733s0 74.667 74.667 74.667V567.467s0-14.933-29.867-14.933H153.6v-44.8h194.133v44.8H332.8c-29.867 0-29.867 14.933-29.867 14.933V851.2c74.667 0 74.667-74.667 74.667-74.667h59.733V896zm866.133-134.4H541.866c-16.495 0-29.867 13.372-29.867 29.867v74.667c0 16.495 13.372 29.867 29.867 29.867h388.267c16.495 0 29.867-13.372 29.867-29.867v-74.667c0-16.495-13.372-29.867-29.867-29.867m0-761.6H93.866C77.371 0 63.999 13.372 63.999 29.867v74.667c0 16.495 13.372 29.867 29.867 29.867h836.267c16.495 0 29.867-13.372 29.867-29.867V29.867C960 13.372 946.628 0 930.133 0m0 253.867H93.866c-16.495 0-29.867 13.372-29.867 29.867v74.667c0 16.495 13.372 29.867 29.867 29.867h836.267c16.495 0 29.867-13.372 29.867-29.867v-74.667c0-16.495-13.372-29.867-29.867-29.867m0 253.866H541.866c-16.495 0-29.867 13.372-29.867 29.867v74.667c0 16.495 13.372 29.867 29.867 29.867h388.267c16.495 0 29.867-13.372 29.867-29.867V537.6c0-16.495-13.372-29.867-29.867-29.867" glyph-name="blog" unicode="Y"/><glyph d="m736.179 470.143 106.335 106.335c4.546 4.541 7.359 10.818 7.359 17.751s-2.812 13.209-7.358 17.751l-88.584 88.755c-4.541 4.546-10.818 7.359-17.751 7.359s-13.209-2.812-17.751-7.358L611.923 594.4zM558.67 541.146 88.782 71.087c-6.84-6.803-11.073-16.22-11.073-26.626s4.233-19.824 11.071-26.624l70.834-70.834c6.822-6.799 16.233-11.002 26.626-11.002s19.805 4.203 26.627 11.003l470.058 469.887zM328.419 815.603l14.849-40.281c14.496-38.367 44.243-68.113 81.647-82.29l41.244-15.169-40.281-14.849c-38.367-14.496-68.113-44.243-82.29-81.647l-15.169-41.244-14.849 40.281c-14.424 38.305-44.04 68.034-81.309 82.287l-41.241 15.171 40.281 14.849c38.367 14.496 68.113 44.243 82.29 81.647zM629.503 960l10.241-27.479c9.878-26.261 30.235-46.617 55.839-56.278l28.137-10.458-27.479-10.241c-26.248-9.898-46.597-30.248-56.277-55.838l-10.459-27.454-10.241 27.479c-9.898 26.248-30.248 46.597-55.838 56.277l-28.138 10.459 27.479 10.241c26.261 9.878 46.617 30.235 56.278 55.839zm244.588-648.591 7.852-20.994c7.585-20.051 23.131-35.597 42.679-43.015l21.668-8.019-21.165-7.852c-20.051-7.585-35.597-23.131-43.015-42.679l-8.019-21.497-7.852 20.994c-7.585 20.051-23.131 35.597-42.679 43.015l-21.668 8.019 21.165 7.852c20.051 7.585 35.597 23.131 43.015 42.679z" glyph-name="wand-magic" unicode="Z"/><glyph d="M916.651 761.003c-12.235 15.422-30.974 25.224-52.003 25.224-15.397 0-29.566-5.255-40.813-14.069l.144.109c-15.645-12.197-25.611-31.046-25.611-52.223 0-15.306 5.207-29.396 13.945-40.596l-.11.147c49.588-63.037 79.531-143.561 79.531-231.079v-.544.028c0-209.721-170.012-379.733-379.733-379.733S132.268 238.279 132.268 448l-.002 1.245c0 87.421 29.877 167.864 79.977 231.675l-.615-.813c8.478 10.994 13.589 24.965 13.589 40.129 0 21.067-9.863 39.83-25.223 51.924l-.141.107c-11.057 8.587-25.133 13.767-40.419 13.767-21.171 0-40.022-9.936-52.144-25.398l-.109-.144C40.351 675.414.002 566.778.002 448.718l.001-.756v.04c0-282.77 229.23-512 512-512s512 229.23 512 512c.002.53.003 1.158.003 1.785 0 117.964-40.283 226.52-107.844 312.661l.833-1.103zM512 382.123c36.271.193 65.61 29.593 65.707 65.868v445.961c0 36.477-29.571 66.048-66.048 66.048s-66.048-29.571-66.048-66.048V448c.097-36.404 29.63-65.878 66.048-65.878l.36.001z" glyph-name="power-on-off" unicode="["/><glyph d="M847.787 959.998H173.824c-19.099-1.203-34.134-16.988-34.134-36.284l.001-.251V-27.479l-.001-.238c0-19.296 15.035-35.081 34.029-36.279l674.068-.005c20.171 0 36.523 16.352 36.523 36.523v950.955c0 20.171-16.352 36.523-36.523 36.523zM510.55-33.965c-16.495 0-29.867 13.372-29.867 29.867s13.372 29.867 29.867 29.867 29.867-13.372 29.867-29.867-13.372-29.867-29.867-29.867m253.952 89.43H259.158v785.067h505.173V55.465z" glyph-name="tablet-portrait" unicode="]"/><glyph d="M110.667 0h802.667c24.165 0 43.755 19.59 43.755 43.755v40.32c0 24.165-19.59 43.755-43.755 43.755H110.667c-24.113 0-43.67-19.505-43.755-43.597V43.757c0-24.165 19.59-43.755 43.755-43.755zm64.362 340.181v-40.32c0-24.165 19.59-43.755 43.755-43.755h586.432c24.165 0 43.755 19.59 43.755 43.755v40.32c0 24.165-19.59 43.755-43.755 43.755H218.784c-24.165 0-43.755-19.59-43.755-43.755m-20.309 427.84h714.859c24.165 0 43.755 19.59 43.755 43.755v40.469c0 24.165-19.59 43.755-43.755 43.755H154.571c-24.165 0-43.755-19.59-43.755-43.755v-40.469c0-24.165 19.59-43.755 43.755-43.755h.158zm64.064-212.202c0-24.165 19.59-43.755 43.755-43.755h498.923c24.165 0 43.755 19.59 43.755 43.755v40.32c0 24.165-19.59 43.755-43.755 43.755H262.689c-24.165 0-43.755-19.59-43.755-43.755v-40.32z" glyph-name="align-center" unicode="^"/><glyph d="M874.008 810.069C781.357 902.705 653.369 960 512 960 229.23 960 0 730.77 0 448S229.23-64 512-64C653.37-64 781.358-6.705 874.009 85.932 966.68 178.588 1024 306.6 1024 448s-57.32 269.412-149.991 362.068zM724.675 535.125 473.283 283.733c-10.683-10.67-25.435-17.268-41.728-17.268s-31.045 6.599-41.729 17.269L263.021 410.539c-6.868 6.884-11.116 16.386-11.116 26.88s4.247 19.996 11.116 26.881l29.695 29.695c6.893 6.919 16.429 11.201 26.965 11.201s20.073-4.282 26.964-11.2l85.335-85.335 209.067 210.091c6.884 6.868 16.386 11.116 26.88 11.116s19.996-4.247 26.881-11.116l29.695-29.695c6.868-6.884 11.116-16.386 11.116-26.88s-4.247-19.996-11.116-26.881z" glyph-name="check-tick" unicode="_"/><glyph d="M128 544h768c35.346 0 64-28.654 64-64v-64c0-35.346-28.654-64-64-64H128c-35.346 0-64 28.654-64 64v64c0 35.346 28.654 64 64 64m0 320h768c35.346 0 64-28.654 64-64v-64c0-35.346-28.654-64-64-64H128c-35.346 0-64 28.654-64 64v64c0 35.346 28.654 64 64 64m0-640h768c35.346 0 64-28.654 64-64V96c0-35.346-28.654-64-64-64H128c-35.346 0-64 28.654-64 64v64c0 35.346 28.654 64 64 64" glyph-name="list" unicode="`"/><glyph d="m755.131 601.565-230.261 76.87V780.87L755.131 704zm0-153.566-230.261 76.87V627.13l230.261-76.696zm0-153.566L524.87 371.129v102.435l230.261-76.696zm0 460.696-230.261 76.87v102.435l230.261-76.87zm-563.13-281.565v281.565c0 42.453 34.415 76.87 76.87 76.87h588.696c0 70.693-57.308 128-128 128H192.001c-70.653-.099-127.902-57.348-128-127.99V396.87c0-70.693 57.308-128 128-128h537.74c70.597 0 127.826 57.229 127.826 127.826v.183-.009h-588.87c-42.358 0-76.696 34.338-76.696 76.696zm332.869-256h230.261V14.26c0-43.222-35.039-78.261-78.261-78.261h-73.739c-43.222 0-78.261 35.039-78.261 78.261zM473.74 63.999c0-42.453-34.415-76.87-76.87-76.87S320 21.544 320 63.999c0 42.453 34.415 76.87 76.87 76.87s76.87-34.415 76.87-76.87m486.261 0c0-42.453-34.415-76.87-76.87-76.87s-76.87 34.415-76.87 76.87c0 42.453 34.415 76.87 76.87 76.87s76.87-34.415 76.87-76.87M448 89.564h384v-51.13H448z" glyph-name="zip" unicode="a"/><glyph d="M96 640h832c17.673 0 32-14.327 32-32V64c0-35.346-28.654-64-64-64H128C92.654 0 64 28.654 64 64v544c0 17.673 14.327 32 32 32m0 256h832c35.346 0 64-28.654 64-64v-96c0-17.673-14.327-32-32-32H64c-17.673 0-32 14.327-32 32v96c0 35.346 28.654 64 64 64m288-384c-35.346 0-64-28.654-64-64s28.654-64 64-64h256c35.346 0 64 28.654 64 64s-28.654 64-64 64z" glyph-name="archive" unicode="b"/><glyph d="M128 896h768c35.346 0 64-28.654 64-64s-28.654-64-64-64H128c-35.346 0-64 28.654-64 64s28.654 64 64 64m0-768h768c35.346 0 64-28.654 64-64S931.346 0 896 0H128C92.654 0 64 28.654 64 64s28.654 64 64 64m0 512h768c35.346 0 64-28.654 64-64V320c0-35.346-28.654-64-64-64H128c-35.346 0-64 28.654-64 64v256c0 35.346 28.654 64 64 64" glyph-name="inlinecss" unicode="c"/><glyph d="M301.227 888.491 0 691.712l208.213-166.741L512 712.534zM0 358.229 301.227 161.45 512 337.407 208.213 524.97zm512-20.821 210.773-175.957L1024 358.23 815.787 524.971zm210.773 551.083L512 712.534l303.787-187.563L1024 691.712zM301.227 124.245l-90.453 59.051v-66.219L512.683-64l301.739 181.077v66.219l-90.453-59.051L512.684 299.52 301.228 124.245z" glyph-name="social-dropbox" unicode="d"/><glyph d="M512 223.915c123.759 0 224.085 100.326 224.085 224.085S635.759 672.085 512 672.085 287.915 571.759 287.915 448 388.241 223.915 512 223.915M0 448s136.533 352.085 512 352.085S1024 448 1024 448 887.467 95.915 512 95.915 0 448 0 448m512-95.915c52.972 0 95.915 42.942 95.915 95.915S564.973 543.915 512 543.915c-52.972 0-95.915-42.942-95.915-95.915s42.942-95.915 95.915-95.915" glyph-name="eye" unicode="e"/><glyph d="M374.272-64v512H264.533v176.469h109.739v105.984c0 144.213 62.123 229.547 238.08 229.547h147.115V783.531h-91.989c-68.267 0-73.216-24.747-73.216-70.656V624.64h165.205L740.694 448H594.091V-64z" glyph-name="social-facebook" unicode="f"/><glyph d="M.859 463.671C-9.823 328.886 80.277 196.158 207.298 149.057s288.992-15.32 369.92 96.716c53.411 70.766 64.905 161.88 58.635 247.392-103.683.229-207.136.229-310.705.229V384.217c61.885-1.943 124.003-1.029 185.772-1.943-27.285-135.243-214.219-179.143-313.491-90.772-100.897 77.625-96.137 247.621 9.637 319.528 73.845 58.076 178.923 43.67 252.883-6.516 28.893 26.616 55.809 54.024 81.285 82.701-60.385 49.568-135.854 83.978-216.085 80.549C157.722 773.022 3.763 628.52.86 463.668zm837.02 121.182c0-30.409-.581-60.82-.812-91.456l-92.885-.572v-91.456l92.885-.915c0-30.41 0-60.819.581-91.458h92.885c0 30.41 0 60.819.581 91.458l92.885.801v92.144l-92.885.572c0 30.409 0 60.933-.581 91.456z" glyph-name="social-google-plus" unicode="g"/><glyph d="M512 934.741h-.371c-282.77 0-512-229.23-512-512 0-225.03 145.173-416.153 346.974-484.823 29.205-5.844 37.739 10.028 37.739 23.51v87.04c-142.507-30.891-172.544 68.267-172.544 68.267-23.211 59.733-56.661 75.264-56.661 75.264-46.421 31.744 3.584 31.061 3.584 31.061 33.642-4.794 61.856-24.567 78.061-52.229 46.013-78.673 119.741-56.145 149.267-43.003 2.518 26.917 14.443 50.654 32.408 68.248-113.645 12.989-233.112 57.192-233.112 253.458-.013.842-.02 1.835-.02 2.83 0 52.018 20.062 99.35 52.871 134.681-6.822 18.19-10.702 39.335-10.702 61.387 0 26.775 5.72 52.215 16.004 75.163s42.541 12.658 140.333-53.731c38.377 10.941 82.454 17.232 128 17.232s89.623-6.291 131.409-18.052c94.383 67.038 137.221 53.385 137.221 53.385 9.885-21.837 15.644-47.349 15.644-74.205 0-21.975-3.856-43.05-10.929-62.584 32.998-33.856 52.995-81.074 52.995-132.964q0-1.658-.027-3.309c.002-196.442-119.465-239.791-233.811-252.421 18.432-15.872 34.133-47.104 34.133-94.891V-38.404c0-13.653 9.216-29.696 35.157-24.576 205.138 69.887 350.066 260.877 350.066 485.717 0 282.66-229.052 511.822-511.67 512z" glyph-name="social-github" unicode="h"/><glyph d="M264.704.001H79.083v598.528h185.621zM171.82 680.364h-.149c-59.547 0-107.819 48.272-107.819 107.819s48.272 107.819 107.819 107.819S279.49 847.73 279.49 788.183v-.149c0-59.465-48.206-107.669-107.669-107.669zM960.149.001H774.677v291.051c0 69.44-1.344 158.741-96.469 158.741S566.805 374.23 566.805 296.129V.001H381.184v598.528h178.155v-81.835h2.539c24.939 47.04 84.672 96.768 175.616 96.768 188.011 0 222.656-123.947 222.656-284.928z" glyph-name="social-linkedin" unicode="i"/><glyph d="M66.821 114.541a35.933 35.933 0 0 0 .007 4.861l-.007 368.828c0 19.18 15.548 34.728 34.728 34.728h68.118c18.63-.575 33.532-15.737 33.688-34.415V111.577c-1.836-17.264-16.143-30.648-33.651-31.017l-.036-.001h-68.125c-18.918 0-34.303 15.127-34.718 33.946zm205.543-57.879v500.131c0 19.18 15.548 34.728 34.728 34.728H445.11a41.2 41.2 0 0 0 7.51 8.41l135.406 234.531c13.649 24.095 39.075 40.115 68.252 40.219 43.398-.502 78.374-35.789 78.374-79.244l-.002-.474.741.024V591.521h188.031c18.793-.498 33.836-15.849 33.836-34.715v-.012.001-385.857a17.3 17.3 0 0 0-5.047-12.17L818.646 25.203a16.82 16.82 0 0 0-10.786-3.885q-1.283.001-2.514.185l-498.256-.011h-.038c-18.523 0-33.645 14.565-34.537 32.866l-.004.08v1.039zm644.084 113.086" glyph-name="like" unicode="j"/><glyph d="M957.15 638.747a17.3 17.3 0 0 1-5.046 12.168L818.561 784.458a16.97 16.97 0 0 1-10.829 3.876q-1.259 0-2.47-.178l-497.289.011h-.038c-18.519 0-33.639-14.563-34.531-32.861l-.004-.08V253.542a35 35 0 0 1-.011-.89c0-19.129 15.468-34.644 34.578-34.722h137.707c2.083-3.341 4.489-6.219 7.238-8.726l1.516-2.551v-1.485h.89L588.862-24.974C602.644-48.472 627.779-64 656.54-64l.296.001c43.409.335 78.482 35.615 78.482 79.087q0 .315-.003.628l.742-.033V218.82h187.259c18.789.498 33.832 15.847 33.832 34.711v.012-.001 385.795zm-754.233 54.011c-.251 18.984-15.699 34.276-34.719 34.276h-67.517c-18.672-.413-33.67-15.566-33.832-34.26V316.013c1.7-17.439 16.134-30.998 33.8-31.308h67.992c19.072 0 34.553 15.376 34.72 34.408.054.726.085 1.554.085 2.391s-.031 1.664-.09 2.484z" glyph-name="dislike" unicode="k"/><glyph d="M4.084 320H384v128H18.061c35.286 82.255 118.578 141.042 216.896 145.083C248.743 691.829 337.249 768 444.377 768c99.562 0 183.04-65.792 204.508-156.092 18.238 6.353 37.93 9.82 58.468 9.82 87.884 0 160.254-63.463 170.904-145.972 83.204-16.805 145.664-87.332 145.738-172.055-2.662-97.469-86.2-175.7-189.092-175.7H249.174c-119.608 0-223.556 83.058-245.09 192zM384 528.297V239.703c0-35.346 28.654-64 64-64a64 64 0 0 1 42.814 16.429l160.33 144.297c26.273 23.645 28.402 64.112 4.757 90.385a64 64 0 0 1-4.757 4.757l-160.33 144.297c-26.273 23.645-66.739 21.516-90.385-4.757A64 64 0 0 1 384 528.297" glyph-name="cloud-migration" unicode="l"/><glyph d="m0 576 512-192 512 192V192c0-70.692-57.308-128-128-128H128C57.308 64 0 121.308 0 192zm128 256h768c70.692 0 128-57.308 128-128v-32L512 480 0 672v32c0 70.692 57.308 128 128 128" glyph-name="mail" unicode="m"/><glyph d="M840.532 896H601.599V776.533H756.01L287.999 308.97c-.527-.539-.854-1.277-.854-2.091s.326-1.552.854-2.092l80.788-80.788c.539-.527 1.277-.854 2.091-.854s1.552.326 2.092.854l467.562 468.01V537.598h119.467v358.4zm0-746.667c0-16.495-13.372-29.867-29.867-29.867H213.332c-16.495 0-29.867 13.372-29.867 29.867v597.333c0 16.495 13.372 29.867 29.867 29.867h194.133V896h-224c-65.979 0-119.467-53.487-119.467-119.467V119.466c0-65.979 53.487-119.467 119.467-119.467h657.067c65.979 0 119.467 53.487 119.467 119.467v224H840.532z" glyph-name="open-new-window" unicode="n"/><glyph d="M725.143 384.331H469.028L109.932 25.235c-24.83-24.83-65.088-24.83-89.918 0l-.124.124c-24.83 24.83-24.83 65.088 0 89.918L352.613 448 19.89 780.723c-24.83 24.83-24.83 65.088 0 89.918l.124.124c24.83 24.83 65.088 24.83 89.918 0l359.096-359.096h256.115v131.106c0 17.557 14.233 31.791 31.791 31.791a31.8 31.8 0 0 0 20.208-7.25l236.543-194.776c13.554-11.161 15.494-31.196 4.333-44.75a32 32 0 0 0-4.333-4.333L777.142 228.681c-13.554-11.161-33.589-9.22-44.75 4.333a31.8 31.8 0 0 0-7.25 20.208V384.33z" glyph-name="combine" unicode="o"/><glyph d="M214.488 616.412H91.959a27.96 27.96 0 0 0-17.578 6.217c-12.007 9.708-13.871 27.311-4.164 39.319l178.422 220.684a28 28 0 0 0 4.164 4.164c12.007 9.708 29.611 7.844 39.319-4.164l178.422-220.684a27.96 27.96 0 0 0 6.217-17.578c0-15.441-12.517-27.958-27.958-27.958H326.321V57.235c0-30.882-25.034-55.916-55.916-55.916s-55.916 25.034-55.916 55.916v559.177zm559.161-335.505h122.482c15.441 0 27.958-12.517 27.958-27.958a27.96 27.96 0 0 0-6.217-17.578L739.45 14.687C729.742 2.68 712.139.816 700.131 10.523a28 28 0 0 0-4.164 4.164L517.545 235.371c-9.708 12.007-7.844 29.611 4.164 39.319a27.96 27.96 0 0 0 17.578 6.217h122.529v559.177c0 30.882 25.035 55.916 55.916 55.916s55.916-25.034 55.916-55.916V280.907z" glyph-name="defer" unicode="p"/><glyph d="M201.216 838.997c-2.596 2.605-6.187 4.217-10.155 4.217s-7.559-1.612-10.154-4.216l-61.44-60.928c-2.605-2.596-4.217-6.187-4.217-10.155s1.612-7.559 4.216-10.154l701.27-700.758c2.596-2.605 6.187-4.217 10.155-4.217s7.559 1.612 10.154 4.216l60.928 60.928c2.605 2.596 4.217 6.187 4.217 10.155s-1.612 7.559-4.216 10.154zM665.6 456.533c-4.372 78.297-66.77 140.695-144.666 145.049zm-307.2-19.114c5.285-76.768 66.251-137.734 142.541-142.992zM512 671.915l.818.002c123.288 0 223.232-99.944 223.232-223.232 0-19.895-2.603-39.181-7.486-57.539l150.881-148.97c60.159 57.039 108.919 125.422 142.957 201.809S887.467 800.086 512 800.086c-.695.003-1.517.005-2.339.005-58.177 0-114.196-9.241-166.669-26.335l113.712-108.838c16.592 4.431 35.643 6.983 55.287 6.997zm0-448-.768-.001C387.944 223.914 288 323.858 288 447.146c0 19.337 2.459 38.1 7.081 55.993L143.701 652.8C83.962 595.992 35.501 527.964 1.599 452.01S136.533 96.085 512 96.085c.727-.004 1.587-.006 2.447-.006 57.572 0 113.029 9.053 165.026 25.812l-113.884 109.02c-16.056-4.238-34.509-6.722-53.525-6.826z" glyph-name="eye-hide" unicode="q"/><glyph d="M1018.197 2.048c-94.208 337.749-356.693 426.667-516.779 448.683l-84.309 11.605V238.763L0 566.272l417.109 327.339V717.654l62.293-10.069c203.264-33.28 352.939-115.2 442.197-243.883 82.773-119.467 115.712-279.723 96.256-461.653z" glyph-name="reply" unicode="r"/><glyph d="M801.445 594.226c-18.787-.03-36.732-3.598-53.217-10.072L369.317 803.975v9.728c-.286 80.75-65.812 146.1-146.602 146.1-80.966 0-146.603-65.636-146.603-146.603s65.636-146.603 146.603-146.603c32.171 0 61.921 10.362 86.096 27.931l352.858-203.215c-4.21-13.064-6.637-28.094-6.637-43.691s2.427-30.627 6.924-44.733L309.413 200.496c-23.762 17.425-53.583 27.883-85.845 27.883-80.684 0-146.091-65.407-146.091-146.091S142.884-63.803 223.568-63.803 369.659 1.604 369.659 82.288v8.981l380.416 220.16c15.309-5.943 33.028-9.386 51.552-9.386 80.778 0 146.261 65.483 146.261 146.261s-65.483 146.261-146.261 146.261h-.371z" glyph-name="share" unicode="s"/><glyph d="M1024 765.024c-34.892-15.915-75.37-27.521-117.814-32.769 41.325 26.083 73.925 66.439 89.754 114.431-37.902-21.718-82.513-39.422-130.042-49.091C824.776 838.326 770.208 864 709.653 864c-115.932 0-209.914-94.097-209.914-210.171 0-17.16 2.054-33.841 5.93-49.808-174.836 10.663-328.295 93.84-431.157 219.996-18.77-29.233-29.36-65.72-29.36-104.683 0-72.4 36.563-136.25 92.212-174.047-34.281.657-66.827 10.245-95.241 26.306 1.042-1.401 1.042-2.261 1.042-3.122.044-101.219 71.547-185.705 166.738-205.632-15.119-4.882-34.048-7.552-53.598-7.552h-.477a209 209 0 0 0-40.532 3.945c28.881-84.309 105.824-144.285 197-146.014-70.547-55.954-161.022-89.749-259.379-89.749h-.925A442 442 0 0 0 0 126.535c92.776-59.354 203.777-94.534 322.988-94.534h.567c385.577 0 596.35 319.845 596.35 597.251v27.096c41.174 30.039 75.86 66.047 103.567 107.158l.529 1.519z" glyph-name="social-twitter" unicode="t"/><glyph d="M128 896h768c35.346 0 64-28.654 64-64s-28.654-64-64-64H128c-35.346 0-64 28.654-64 64s28.654 64 64 64m0-256h768c35.346 0 64-28.654 64-64s-28.654-64-64-64H128c-35.346 0-64 28.654-64 64s28.654 64 64 64m0-256h768c35.346 0 64-28.654 64-64V64c0-35.346-28.654-64-64-64H128C92.654 0 64 28.654 64 64v256c0 35.346 28.654 64 64 64" glyph-name="movefooter" unicode="u"/><glyph d="M383.488 316.075 205.824 10.752h640.512L1024 316.075zm-54.272 573.269 320.341-554.667 353.28-1.024L682.666 888.32l-353.451 1.024zM0 313.173 175.787 6.656l320.171 554.667L320.342 867.84z" glyph-name="social-drive" unicode="v"/><glyph d="M512 960C229.23 960 0 730.77 0 448S229.23-64 512-64s512 229.23 512 512-229.23 512-512 512M255.147 644.608c25.259 1.365 47.957 4.096 47.957 4.096 8.85.729 15.756 8.091 15.756 17.067 0 9.456-7.665 17.121-17.121 17.121q-.721 0-1.427-.059c-.706-.059-68.205-5.287-111.725-5.287h-26.965C237.674 792.072 366.107 866.54 511.933 866.54c109.329 0 208.881-41.857 283.507-110.42l-5.764.274c-39.179-1.128-70.51-33.157-70.51-72.505q0-1.005.027-2.004c-.002-34.035 19.966-63.731 41.129-98.206 21.048-32.798 33.711-72.734 34.132-115.6.001-35.952-13.823-77.595-31.914-135.622l-41.813-139.776-150.869 451.925c25.259 1.365 47.957 4.096 47.957 4.096 8.85.729 15.756 8.091 15.756 17.067 0 9.456-7.665 17.121-17.121 17.121q-.721 0-1.427-.059c-.706-.059-68.205-5.287-111.725-5.287-41.131 0-110.421 5.291-110.421 5.291-.409.035-.885.055-1.365.055-9.456 0-17.121-7.665-17.121-17.121 0-8.975 6.906-16.337 15.694-17.063s21.395-2.564 44.094-4.1l65.365-179.541-91.819-274.603zm73.898-573.952C188.015 140.189 92.701 282.94 92.701 447.953c0 61.818 13.377 120.511 37.393 173.343zm190.294 341.333L648.534 58.197a38 38 0 0 1 3.161-5.948c-41.53-14.922-89.365-23.635-139.236-23.635-42.262 0-83.063 6.257-121.527 17.896zM722.773 85.675l128 370.347c19.469 44.241 31.134 95.751 31.911 149.895l.004.694a320 320 0 0 1-3.094 44.45c32.457-59.671 51.452-128.883 51.452-202.531 0-153.868-82.908-288.372-206.488-361.276z" glyph-name="wordpress" unicode="w"/><glyph d="m938.501 520.575-113.642 11.2c-8.043 29.678-19.119 55.638-33.222 79.602l73.392 86.905a23.75 23.75 0 0 1 5.35 15.068 23.8 23.8 0 0 1-6.993 16.889l-69.143 69.143a23.82 23.82 0 0 1-16.889 6.993 23.8 23.8 0 0 1-15.111-5.385l-88.363-72.543c-22.463 13.288-48.424 24.362-75.854 31.88l-13.449 114.168c-1.253 12.117-11.401 21.488-23.742 21.504h-97.666c-12.343-.016-22.489-9.387-23.735-21.401l-11.209-113.894c-29.677-8.033-55.636-19.107-79.596-33.22l-86.911 73.39a23.75 23.75 0 0 1-15.068 5.35 23.8 23.8 0 0 1-16.889-6.993l-68.992-68.992a23.82 23.82 0 0 1-6.993-16.889 23.8 23.8 0 0 1 5.385-15.111l72.541-88.363c-13.295-22.465-24.369-48.426-31.882-75.857L85.504 520.577C73.387 519.324 64.016 509.174 64 496.835v-97.666c.016-12.343 9.387-22.489 21.401-23.735l113.894-11.209c8.029-29.675 19.103-55.638 33.219-79.594l-73.39-86.912a23.62 23.62 0 0 1-5.471-15.16c0-6.561 2.66-12.5 6.962-16.798l68.992-68.992a23.82 23.82 0 0 1 16.889-6.993 23.8 23.8 0 0 1 15.111 5.385l88.363 72.541c22.461-13.325 48.417-24.446 75.844-32.022l13.458-114.175C440.527 9.377 450.691.001 463.046.001h97.785c12.343.016 22.489 9.387 23.735 21.401l11.209 113.745c29.678 8.082 55.638 19.205 79.587 33.367l86.921-73.388a23.75 23.75 0 0 1 15.068-5.35 23.8 23.8 0 0 1 16.889 6.993l68.992 68.992a23.67 23.67 0 0 1 6.962 16.798c0 5.78-2.065 11.081-5.5 15.199l-72.545 88.366c13.284 22.463 24.358 48.424 31.88 75.852l114.169 13.449c12.247 1.108 21.772 11.309 21.803 23.741v97.668c-.016 12.343-9.387 22.489-21.401 23.735l-.098.007zM512.004 315.839c-72.991 0-132.161 59.171-132.161 132.16s59.169 132.16 132.161 132.16c72.991 0 132.161-59.169 132.161-132.16s-59.171-132.16-132.161-132.16" glyph-name="widget-settings-config" unicode="x"/><glyph d="M1014.113 648.12s-9.729 68.939-41.116 99.375c-26.137 25.868-62.396 42.035-102.554 42.459C727.079 800 512.078 800 512.078 800s-215 0-358.439-10.044c-40.234-.442-76.491-16.603-102.611-42.436-31.41-30.459-40.669-99.4-40.669-99.4C4.29 600.066.542 543.866.007 486.922l-.006-76.817c.482-57.604 4.175-113.815 10.915-169.122s9.33-61.741 39.932-92.177c38.92-39.873 90.08-38.655 112.993-42.762C245.761 98.434 512.08 96 512.08 96s215.158 0 358.595 10.501c40.103.467 76.235 16.564 102.301 42.286 31.408 30.457 40.824 99.396 40.824 99.396 6.032 48.161 9.725 104.427 10.196 161.437l.006 76.731c-.476 57.648-4.169 113.913-10.915 169.273l1.028-7.505zM405.206 309.206v281.997L677.331 453.02z" glyph-name="social-youtube" unicode="y"/><glyph d="M986.647 776.462c-.058 41.498-32.921 75.301-74.044 76.87l-797.997.005h-.225c-42.544 0-77.032-34.489-77.032-77.032 0-24.244 11.2-45.872 28.708-59.994l357.79-358.074v-221.45c.616-14.21 8.524-26.445 20.054-33.115l.194-.103 95.855-55.362c5.842-3.483 12.883-5.541 20.405-5.541 22.276 0 40.336 18.059 40.336 40.336V358.24l361.281 361.124c15.197 14.06 24.68 34.107 24.68 56.37q0 .386-.004.772zm-685.074-77.191" glyph-name="filter" unicode="z"/><glyph d="M497.129 99.768a60.8 60.8 0 0 0-15.872-10.582l-.379-.155c-5.848-2.66-12.683-4.209-19.878-4.209s-14.031 1.549-20.186 4.334l.309-.125c-6.287 2.892-11.694 6.487-16.451 10.788l.056-.051-311.959 312.104a48.1 48.1 0 0 0-10.912 16.22l-.116.322c-2.207 5.658-3.485 12.206-3.485 19.054q0 .282.003.562v-.028l-.001.262c0 7.178 1.44 14.021 4.046 20.253l-.129-.346c2.4 6.77 6.009 12.577 10.613 17.434l-.02-.022 312.685 310.653c9.35 9.237 22.207 14.942 36.397 14.942a51.6 51.6 0 0 0 20.095-4.043l-.341.128c6.333-2.695 11.732-6.42 16.244-11.019l.007-.007 35.694-36.564c9.237-9.35 14.942-22.207 14.942-36.397a51.6 51.6 0 0 0-4.043-20.095l.128.341c-2.695-6.333-6.42-11.732-11.019-16.244l-.007-.007-237.234-239.265 237.234-238.54a49.7 49.7 0 0 0 10.904-15.928l.123-.323c2.479-5.769 3.919-12.482 3.919-19.533l-.002-.364v.018l.001-.266a53.1 53.1 0 0 0-4.047-20.401l.131.353c-2.552-6.29-6.299-11.62-10.995-15.931l-.031-.028-35.694-37.289zm376.383 0a64 64 0 0 0-15.999-10.572l-.397-.165c-5.77-2.659-12.518-4.208-19.629-4.208l-.263.001h.014-.156a48.14 48.14 0 0 0-20.025 4.331l.302-.123c-6.224 2.933-11.578 6.522-16.309 10.788l.059-.051L490.02 411.873a48.1 48.1 0 0 0-10.912 16.22l-.116.322c-2.479 5.965-3.918 12.896-3.918 20.161v.162-.008l-.001.262c0 7.178 1.44 14.021 4.046 20.253l-.129-.346c2.617 6.512 6.355 12.067 11.023 16.681l.005.005 311.815 310.653a51.4 51.4 0 0 0 15.92 10.9l.331.129c5.488 2.22 11.854 3.509 18.522 3.509q.868 0 1.731-.028l-.084.003c.233.005.509.006.786.006 13.826 0 26.358-5.541 35.495-14.522l-.007.006 36.275-36.564c9.237-9.35 14.942-22.207 14.942-36.397a51.6 51.6 0 0 0-4.043-20.095l.128.341c-2.695-6.333-6.42-11.732-11.019-16.244l-.007-.007-238.25-239.265 238.25-238.54a49.7 49.7 0 0 0 10.904-15.928l.123-.323c2.216-5.484 3.501-11.843 3.501-18.502q0-.726-.02-1.447l.002.071.001-.266a53.1 53.1 0 0 0-4.047-20.401l.131.353c-2.552-6.29-6.299-11.62-10.995-15.931l-.031-.028-36.13-37.289z" glyph-name="arrow-skip-back" unicode="{"/><glyph d="M910.404 754.49h-.118c-2.422 0-4.731-.494-6.837-1.39l.119.044c-37.374-20.496-81.739-32.542-128.846-32.556l-.511-.002c-85.841 0-162.626 39.821-213.792 102.454-46.563 45.349-109.104 72.959-177.923 72.959-66.249 0-126.68-25.587-172.432-67.66-9.486 21.49-30.172 35.949-54.147 35.949-33.091 0-59.916-27.549-59.916-61.529q0-.334.003-.665V61.679c0-34.065 26.89-61.68 60.061-61.68s60.061 27.615 60.061 61.68v333.487c36.633 19.388 79.944 30.753 125.841 30.753 85.965 0 162.863-39.873 214.109-102.593 46.514-45.22 108.949-72.744 177.645-72.744 74.257 0 141.198 32.162 188.336 83.661 3.695 3.474 5.927 8.257 5.943 13.578v388.3c0 10.04-7.845 18.198-17.583 18.368z" glyph-name="flag" unicode="|"/><glyph d="M526.871 99.768a60.8 60.8 0 0 1 15.872-10.582l.379-.155c5.848-2.66 12.683-4.209 19.878-4.209s14.031 1.549 20.186 4.334l-.309-.125c6.287 2.892 11.694 6.487 16.451 10.788l-.056-.051 311.959 312.104a48.1 48.1 0 0 1 10.912 16.22l.116.322c2.207 5.658 3.485 12.206 3.485 19.054q0 .282-.003.562v-.028l.001.262c0 7.178-1.44 14.021-4.046 20.253l.129-.346c-2.4 6.77-6.009 12.577-10.613 17.434l.02-.022-312.685 310.653c-9.35 9.237-22.207 14.942-36.397 14.942a51.6 51.6 0 0 1-20.095-4.043l.341.128c-6.333-2.695-11.732-6.42-16.244-11.019l-.007-.007-35.694-36.564c-9.237-9.35-14.942-22.207-14.942-36.397a51.6 51.6 0 0 1 4.043-20.095l-.128.341c2.695-6.333 6.42-11.732 11.019-16.244l.007-.007 237.234-239.265-237.234-238.54a49.7 49.7 0 0 1-10.904-15.928l-.123-.323c-2.479-5.769-3.919-12.482-3.919-19.533l.002-.364v.018l-.001-.266a53.1 53.1 0 0 1 4.047-20.401l-.131.353c2.552-6.29 6.299-11.62 10.995-15.931l.031-.028 35.694-37.289zm-376.383 0a64 64 0 0 1 15.999-10.572l.397-.165c5.509-2.395 11.923-3.787 18.665-3.787q.64 0 1.276.017l-.062-.002h.156a48.14 48.14 0 0 1 20.025 4.331l-.302-.123c6.219 2.8 11.574 6.251 16.334 10.372l-.083-.07 311.089 312.104a48.1 48.1 0 0 1 10.912 16.22l.116.322c2.479 5.965 3.918 12.896 3.918 20.161v.162-.008l.001.262c0 7.178-1.44 14.021-4.046 20.253l.129-.346c-2.617 6.512-6.355 12.067-11.023 16.681l-.005.005-311.815 310.653a51.4 51.4 0 0 1-15.92 10.9l-.331.129c-5.488 2.22-11.854 3.509-18.522 3.509q-.868 0-1.731-.028l.084.003a39 39 0 0 1-.786.006c-13.826 0-26.358-5.541-35.495-14.522l.007.006-36.275-36.564c-9.237-9.35-14.942-22.207-14.942-36.397a51.6 51.6 0 0 1 4.043-20.095l-.128.341c2.695-6.333 6.42-11.732 11.019-16.244l.007-.007 238.25-239.265-238.25-238.54a49.7 49.7 0 0 1-10.904-15.928l-.123-.323c-2.216-5.484-3.501-11.843-3.501-18.502q0-.726.02-1.447l-.002.071-.001-.266a53.1 53.1 0 0 1 4.047-20.401l-.131.353c2.426-6.264 6.031-11.593 10.576-15.946l.017-.016 36.564-37.289z" glyph-name="arrow-skip-forward" unicode="}"/><glyph d="M160.069 366.08a97 97 0 0 1-.069-3.65c0-54.576 44.719-98.816 99.886-98.816q1.948 0 3.876.072l82.621-.006a58 58 0 0 0 3.192.086c32.585 0 59-26.132 59-58.368q0-1.666-.093-3.31l.008-219.496C408.589-43.1 429.614-63.904 455.576-64h112.661c25.97.096 47 20.9 47.097 46.582v219.486a56 56 0 0 0-.097 3.338c0 32.236 26.415 58.368 59 58.368q1.782 0 3.536-.102l82.645.008a96 96 0 0 1 3.869-.074c55.07 0 99.712 44.164 99.712 98.644q0 2.02-.081 4.02l.006 102.21H160.063l.004-102.4zM420.565 960l-74.183-73.388L272.199 960H160.064V509.44h703.861V960z" glyph-name="brush" unicode="~"/><glyph d="M0 60.27v30.507a64 64 0 0 0 22.761 48.942l277.261 233.626c54.49 45.914 129.926 57.876 195.947 31.07l54.621-22.177c74.466-30.235 159.884-10.889 214.057 48.479l203.715 223.251c11.913 13.055 32.153 13.981 45.208 2.068a32 32 0 0 0 10.43-23.638V128c0-70.692-57.308-128-128-128H60.27C26.984 0 0 26.984 0 60.27m322.145 448.286L103.98 334.024c-27.601-22.081-67.875-17.606-89.956 9.995s-17.606 67.875 9.995 89.956l261.785 209.428c58.993 47.194 140.179 55.407 207.428 20.983l74.82-38.3c25.85-13.232 57.37-7.401 76.775 14.203L907.92 933.198c20.545 28.762 60.516 35.424 89.278 14.88s35.424-60.516 14.88-89.278L736.962 542.115c-55.434-63.809-146.777-82.504-222.822-45.603l-56.154 27.249c-44.423 21.557-97.285 15.639-135.842-15.207z" glyph-name="graph-line" unicode=""/><glyph d="M512 128v128h80.297a64 64 0 0 1 42.814 16.429c26.273 23.645 28.402 64.112 4.757 90.385l-144.297 160.33a64 64 0 0 1-4.757 4.757c-26.273 23.645-66.739 21.516-90.385-4.757l-144.297-160.33A64 64 0 0 1 239.703 320c0-35.346 28.654-64 64-64H384V128H249.174C114.688 128 0 233.007 0 361.656l.002.09c.964 124.682 104.79 225.987 234.836 230.305l.118 1.032C248.742 691.829 337.248 768 444.376 768c99.562 0 183.04-65.792 205.694-155.731l-1.186-.361c18.238 6.353 37.93 9.82 58.468 9.82 87.884 0 160.254-63.463 169.706-145.77l-.004.002 1.202-.204c83.204-16.805 145.664-87.332 145.742-171.82l-.004-.235c-2.662-97.469-86.2-175.7-188.862-175.7H511.998z" glyph-name="upload-cloud" unicode=""/><glyph d="M384 759.638V512h-80.297c-35.346 0-64-28.654-64-64a64 64 0 0 1 16.429-42.814l144.297-160.33c23.645-26.273 64.112-28.402 90.385-4.757a64 64 0 0 1 4.757 4.757l144.297 160.33c23.645 26.273 21.516 66.739-4.757 90.385A64 64 0 0 1 592.297 512H512v245.413c68.105-22.058 120.518-76.658 136.885-145.505 18.238 6.353 37.93 9.82 58.468 9.82 87.884 0 160.254-63.463 170.904-145.972 83.204-16.805 145.664-87.332 145.738-172.055-2.662-97.469-86.2-175.7-189.092-175.7H249.174C114.688 128.001 0 233.008.002 361.747c.964 124.682 104.79 225.987 234.954 231.337C246.042 672.491 305.447 737.3 384 759.639z" glyph-name="download-cloud" unicode=""/><glyph d="m646.997 791.552 45.056-45.227-304.299-304.469c.395-4.001.62-8.648.62-13.348 0-37.29-14.17-71.27-37.419-96.85l22.634-22.41 22.528-22.528c25.415 23.141 59.352 37.311 96.598 37.311 4.687 0 9.321-.224 13.893-.663l303.887 304.514 45.056-45.227 51.2 51.2-208.896 208.384zm-140.8-406.187c-6.949-6.006-16.072-9.665-26.049-9.665-22.056 0-39.936 17.88-39.936 39.936 0 9.977 3.659 19.1 9.708 26.1l273.024 273.016 56.32-56.491zm493.227 550.059c-15.17 15.196-36.14 24.597-59.307 24.597s-44.137-9.401-59.306-24.596L762.538 816.981l118.613-119.467 118.272 118.443c15.411 15.23 24.955 36.367 24.955 59.733s-9.544 44.503-24.947 59.725zM486.571 51.2H115.883v371.029h156.331a9.216 9.216 0 0 1 9.216 9.216v96.768a9.216 9.216 0 0 1-9.216 9.216H9.217a9.216 9.216 0 0 1-9.216-9.216V-54.809a9.216 9.216 0 0 1 9.93-9.189L593.75-64a9.216 9.216 0 0 1 9.216 9.216v262.485a9.216 9.216 0 0 1-9.216 9.216h-97.451a9.216 9.216 0 0 1-9.216-9.216z" glyph-name="color-pick-eyedropper" unicode=""/><glyph d="M64 832h896c35.346 0 64-28.654 64-64s-28.654-64-64-64H64c-35.346 0-64 28.654-64 64s28.654 64 64 64m256-256h384c35.346 0 64-28.654 64-64V128c0-35.346-28.654-64-64-64H320c-35.346 0-64 28.654-64 64v384c0 35.346 28.654 64 64 64" glyph-name="align-y-top" unicode=""/><glyph d="M192 960h640c70.692 0 128-57.308 128-128V64c0-70.692-57.308-128-128-128H192C121.308-64 64-6.692 64 64v768c0 70.692 57.308 128 128 128m64-128c-35.346 0-64-28.654-64-64v-32c0-35.346 28.654-64 64-64h512c35.346 0 64 28.654 64 64v32c0 35.346-28.654 64-64 64zm-32-256c-17.673 0-32-14.327-32-32v-64c0-17.673 14.327-32 32-32h96c17.673 0 32 14.327 32 32v64c0 17.673-14.327 32-32 32zm240 0c-17.673 0-32-14.327-32-32v-64c0-17.673 14.327-32 32-32h96c17.673 0 32 14.327 32 32v64c0 17.673-14.327 32-32 32zM224 384c-17.673 0-32-14.327-32-32v-64c0-17.673 14.327-32 32-32h96c17.673 0 32 14.327 32 32v64c0 17.673-14.327 32-32 32zm240 0c-17.673 0-32-14.327-32-32v-64c0-17.673 14.327-32 32-32h96c17.673 0 32 14.327 32 32v64c0 17.673-14.327 32-32 32zM224 192c-17.673 0-32-14.327-32-32V96c0-17.673 14.327-32 32-32h96c17.673 0 32 14.327 32 32v64c0 17.673-14.327 32-32 32zm240 0c-17.673 0-32-14.327-32-32V96c0-17.673 14.327-32 32-32h96c17.673 0 32 14.327 32 32v64c0 17.673-14.327 32-32 32zm240 384c-17.673 0-32-14.327-32-32v-64c0-17.673 14.327-32 32-32h96c17.673 0 32 14.327 32 32v64c0 17.673-14.327 32-32 32zm0-192c-17.673 0-32-14.327-32-32v-64c0-17.673 14.327-32 32-32h96c17.673 0 32 14.327 32 32v64c0 17.673-14.327 32-32 32zm0-192c-17.673 0-32-14.327-32-32V96c0-17.673 14.327-32 32-32h96c17.673 0 32 14.327 32 32v64c0 17.673-14.327 32-32 32z" glyph-name="calculator" unicode=""/><glyph d="M958.507 723.968H65.344v116.928c0 30.433 24.671 55.104 55.104 55.104h782.955c30.433 0 55.104-24.671 55.104-55.104zM272.171 0H120.448C90.015 0 65.344 24.671 65.344 55.104v610.624h206.827zm55.253 665.728h631.232V334.656H327.424zM903.403 0H327.424v275.968h631.083V55.104C958.507 24.671 933.836 0 903.403 0" glyph-name="layout" unicode=""/><glyph d="M512 64c141.385 0 256 114.615 256 256v608c0 17.673 14.327 32 32 32h64c17.673 0 32-14.327 32-32V320c0-212.077-171.923-384-384-384S128 107.923 128 320v608c0 17.673 14.327 32 32 32h320c17.673 0 32-14.327 32-32zM384 98.248V832H256V320c0-94.756 51.481-177.488 128-221.752" glyph-name="branda" unicode=""/><glyph d="M125.27 257.806h773.803c29.523.097 53.419 24.053 53.419 53.589v473.941c0 29.502-23.916 53.419-53.419 53.419H125.27c-29.502 0-53.419-23.916-53.419-53.419V311.224c0-29.537 23.896-53.492 53.409-53.589zm53.418 473.942h666.795V364.473H178.859zm820.907-527.531H24.918c-13.667 0-24.747-11.079-24.747-24.747v-59.733l-.003-.363a24.65 24.65 0 0 1 6.505-16.722l34.117-37.87c4.505-4.65 10.806-7.537 17.782-7.537q.613 0 1.219.029l902.258-.002a24.68 24.68 0 0 1 17.065 7.337l37.549 37.89a24.66 24.66 0 0 1 7.168 17.048v59.752c-.096 13.534-11.042 24.48-24.567 24.576zm-394.411-85.675a4.95 4.95 0 0 0-4.417-5.46l-177.344-.002a4.953 4.953 0 0 0-4.435 5.484l-.002 24.041a4.95 4.95 0 0 0 4.417 5.46l177.514.002a4.953 4.953 0 0 0 4.435-5.484z" glyph-name="laptop" unicode=""/><glyph d="M109.982 293.839 63.985 18.154a15 15 0 0 1-.231-2.682c0-4.315 1.744-8.223 4.562-11.058l-.001.001A14.9 14.9 0 0 1 79.118-.208Q80.68-.206 82.15.1l274.843 46.428c7.493 1.27 13.129 7.712 13.129 15.471 0 4.342-1.764 8.271-4.615 11.111l-53.764 53.764 144.264 144.264c2.861 2.841 4.63 6.777 4.63 11.127s-1.771 8.285-4.629 11.126l-99.463 99.463c-2.841 2.861-6.777 4.63-11.127 4.63s-8.285-1.771-11.126-4.629L190.326 248.59l-53.764 53.764a15.63 15.63 0 0 1-11.112 4.615c-7.759 0-14.201-5.636-15.458-13.035zM914.04 602.081l45.997 275.685c.133.768.209 1.652.209 2.555 0 4.305-1.734 8.202-4.542 11.037l.001-.001a15.8 15.8 0 0 1-11.404 4.851q-1.398-.002-2.729-.234l-274.843-46.731c-7.493-1.27-13.129-7.712-13.129-15.471 0-4.342 1.764-8.271 4.615-11.111l53.764-53.764-144.264-144.414c-2.861-2.841-4.63-6.777-4.63-11.127s1.771-8.285 4.629-11.126l99.463-99.463c2.841-2.861 6.777-4.63 11.127-4.63s8.285 1.771 11.126 4.629L833.844 647.18l53.764-53.764a15.63 15.63 0 0 1 11.112-4.615c7.759 0 14.201 5.636 15.458 13.035z" glyph-name="arrows-expand" unicode=""/><glyph d="M311.743 222.622q1.393-1.257 2.802-2.497c69.009-60.732 161.584-87.586 253.821-71.323 103.046 18.17 187.795 87.13 227.628 181.864 17.126 40.729 64.026 59.863 104.755 42.737s59.863-64.026 42.737-104.755C882.793 124.304 753.309 18.943 596.149-8.768 455.519-33.565 313.964 7.498 208.84 100.013a466 466 0 0 0-16.422 15.167l-47.146-42.45a64 64 0 0 0-42.81-16.439c-35.346-.008-64.006 28.639-64.014 63.986L38.4 335.979a64 64 0 0 0 .352 6.718c3.703 35.152 35.2 60.646 70.352 56.944l214.515-22.595a64 64 0 0 0 40.857-20.824c23.651-26.267 21.53-66.734-4.737-90.386l-47.997-43.216zm405.156 449.962a313 313 0 0 1-3.885 3.478c-69.009 60.732-161.584 87.586-253.821 71.323-103.046-18.17-187.795-87.13-227.628-181.864-17.126-40.729-64.026-59.863-104.755-42.737S66.947 586.81 84.073 627.539C144.766 771.883 274.25 877.244 431.41 904.955c140.63 24.797 282.185-16.266 387.309-108.781a466 466 0 0 0 17.467-16.183l48.274 43.466a64 64 0 0 0 42.81 16.439c35.346.008 64.006-28.639 64.014-63.986l.048-215.702c0-2.244-.117-4.487-.352-6.718-3.703-35.152-35.2-60.646-70.352-56.944l-214.515 22.595a64 64 0 0 0-40.857 20.824c-23.651 26.267-21.53 66.734 4.737 90.386l46.906 42.235z" glyph-name="update" unicode=""/><glyph d="M963.754 468.992 574.805 857.6c-5.491 5.46-13.061 8.836-21.419 8.836s-15.927-3.375-21.42-8.837l-62.463-62.121c-5.46-5.491-8.836-13.061-8.836-21.419s3.375-15.927 8.837-21.42L700.073 522.24H78.163c-14.644 0-26.527-11.823-26.623-26.444v-95.583c0-14.704 11.92-26.624 26.624-26.624h621.909l-230.4-230.4c-5.46-5.491-8.836-13.061-8.836-21.419s3.375-15.927 8.837-21.42l62.292-61.951c5.491-5.46 13.061-8.836 21.419-8.836s15.927 3.375 21.42 8.837l388.948 388.607c5.38 5.401 8.706 12.851 8.706 21.077s-3.326 15.677-8.707 21.078z" glyph-name="arrow-right" unicode=""/><glyph d="M1009.323 570.197c-72.363-3.755-161.621-7.509-238.933-8.192l192.171 128.512c19.042-34.586 34.899-74.653 45.502-116.806zM512 960c189.862-.034 355.572-103.406 443.951-256.93-61.487-12.553-225.839-36.617-400.943-48.051-34.133-2.219-55.979-36.181-68.267-62.464 0 0-31.061 195.925-244.907 145.408a1386 1386 0 0 1-116.224 46.251c94.16 107.956 231.957 175.787 385.597 175.787l.836-.001zM0 448l-.001.746c0 121.29 42.344 232.689 113.056 320.222 39.45-15.556 74.218-33.581 106.162-55.431s37.807-77.121 65.284-135.489 46.592-91.136 54.613-161.109 65.877-184.491 168.277-221.867C472.512 147.1 441.409 92.474 416.632 34.498c26.898-39.4 57.774-69.843 91.053-97.495C227.481-62.257-.001 166.301-.001 447.991v.01zM573.952-60.416c0 19.115 0 36.352 1.195 51.2 2.803 46.275 12.454 89.473 27.966 129.761 19.44 50.098 31.281 111.481 31.281 175.63a517 517 0 0 1-1.314 36.896c-1.165 15.156-3.891 30.694-7.991 45.664l392.938 149.478c4.007-24.063 6.297-51.79 6.297-80.052 0-260.928-195.185-476.268-447.514-507.978z" glyph-name="hummingbird" unicode=""/><glyph d="m182.38 504.833 35.667 57.002c9.973 16.21 27.72 26.868 47.983 26.868q1.504 0 2.988-.078a57.41 57.41 0 0 0 48.475-29.9l41.331-76.592 89.944 160.768c9.965 17.66 28.725 29.404 50.254 29.404 24.723 0 45.794-15.488 53.863-37.202l79.733-220.042 36.184 61.61c10.179 16.966 28.59 28.162 49.64 28.162h122.665l118.891-56.832v256l-447.997 256-447.997-256v-256l118.374 56.832zm569.645-113.664-81.33-138.24c-10.179-16.962-28.58-28.154-49.622-28.16h-5.688c-22.3 2.314-40.643 16.942-48.116 36.812l-79.22 216.116-79.434-143.36c-9.615-17.626-28.136-29.4-49.43-29.4q-1.193 0-2.375.048c-21.49.312-40.172 12.404-49.707 30.07l-44.261 82.736c-10.278-16.092-28.15-26.624-48.506-26.624h-.089L63.999 447.999V192L511.994-64l447.997 256v255.999L841.1 391.167z" glyph-name="uptime" unicode=""/><glyph d="m293.643 886.078 531.188-386.319c28.586-20.79 34.906-60.816 14.116-89.402a64 64 0 0 0-14.116-14.116L293.643 9.922c-28.586-20.79-68.612-14.47-89.402 14.116A64 64 0 0 0 192 61.681v772.637c0 35.346 28.654 64 64 64a64 64 0 0 0 37.643-12.241z" glyph-name="play" unicode=""/><glyph d="M921.991 173.375c-37.632 62.123-126.037 74.667-170.24 89.6s-129.173 76.907-129.173 76.907v44.8c17.386 16.117 32.259 34.602 44.19 55.017l.61 1.132c1.792 3.136 3.285 6.123 4.779 8.96v1.195c1.195 2.688 2.24 5.077 3.136 7.467v1.643c.825 2.114 1.645 4.757 2.298 7.466 1.567 7.063 2.834 15.217 3.613 23.513 7.977 2.92 12.009-1.41 22.165 24.723 11.499 29.867 30.912 96.171 18.219 110.208-2.949 3.455-7.309 5.633-12.176 5.633a15.9 15.9 0 0 1-9.081-2.83c6.241 25.947 9.791 55.696 9.791 86.275q-.002 11.626-.678 23.08c-5.775 93.026-97.764 146.937-182.884 155.298-94.379 9.259-91.989-7.317-102.144-40.917-68.992 1.045-98.261-62.421-98.261-62.421-16.725-38.229-17.771-88.107-3.136-159.787a15.84 15.84 0 0 1-9.028 2.795 15.95 15.95 0 0 1-12.159-5.61c-12.712-14.06 6.701-80.812 18.2-110.229s14.933-21.205 23.595-24.341c0-3.883 1.195-19.413 2.091-23.445 11.669-33.197 30.989-61.224 55.92-82.983l.231-46.192s-85.12-62.123-129.323-76.907-132.459-27.776-170.091-89.6S66.018.001 66.018.001h891.968s1.643 111.253-35.989 173.376z" glyph-name="profile-male" unicode=""/><glyph d="M64 192h896c35.346 0 64-28.654 64-64s-28.654-64-64-64H64C28.654 64 0 92.654 0 128s28.654 64 64 64m256 640h384c35.346 0 64-28.654 64-64V384c0-35.346-28.654-64-64-64H320c-35.346 0-64 28.654-64 64v384c0 35.346 28.654 64 64 64" glyph-name="align-y-bottom" unicode=""/><glyph d="M922.965 925.867c-2.901 0-212.309 22.016-330.923 34.133V601.6l-80.043-36.523-79.531 35.499V960c-119.125-12.117-328.533-34.133-331.435-34.133C42.762 912.933-.166 861.694-.166 800.429c0-7.354.618-14.563 1.806-21.579l87.788-576.951c6.661-42.74 32.169-78.424 67.598-98.803L511.999-64l355.157 166.741c36.081 20.752 61.581 56.427 68.166 98.378l87.994 578.315c1.066 6.216 1.675 13.377 1.675 20.679 0 61.596-43.335 113.07-101.18 125.599zM806.059 215.552 512 83.627 217.771 215.552l-60.928 378.88L512 436.053l354.987 158.379z" glyph-name="defender" unicode=""/><glyph d="M425.472 625.835h173.056c25.921 0 46.933 21.013 46.933 46.933v173.227c0 25.921-21.013 46.933-46.933 46.933H425.472c-25.921 0-46.933-21.013-46.933-46.933V672.768c0-25.921 21.013-46.933 46.933-46.933m173.056-355.67H425.472c-25.921 0-46.933-21.013-46.933-46.933V50.005c0-25.921 21.013-46.933 46.933-46.933h173.056c25.921 0 46.933 21.013 46.933 46.933v173.227c0 25.921-21.013 46.933-46.933 46.933m378.539 0H803.84c-25.921 0-46.933-21.013-46.933-46.933V50.005c0-25.921 21.013-46.933 46.933-46.933h173.227c25.921 0 46.933 21.013 46.933 46.933v173.227c0 25.921-21.013 46.933-46.933 46.933m-756.907 0H46.933C21.012 270.165 0 249.152 0 223.232V50.005C0 24.084 21.013 3.072 46.933 3.072H220.16c25.921 0 46.933 21.013 46.933 46.933v173.227c0 25.921-21.013 46.933-46.933 46.933m-42.155 174.934h290.133v-85.333h89.088v85.333h290.133v-85.333h89.088v85.333c0 49.202-39.886 89.088-89.088 89.088H178.004c-49.129-.097-88.917-39.946-88.917-89.088v-85.333h89.088z" glyph-name="sitemap" unicode=""/><glyph d="M1024 39.595 797.184 266.411c50.818 70.758 81.267 159.126 81.267 254.605 0 242.711-196.756 439.467-439.467 439.467S-.483 763.727-.483 521.016 196.273 81.549 438.984 81.549c95.479 0 183.847 30.449 255.922 82.165l225.67-227.715zM146.432 520.704v.171c0 161.744 131.12 292.864 292.864 292.864S732.16 682.619 732.16 520.875 601.04 228.011 439.296 228.011c-161.606.194-292.573 131.101-292.864 292.665z" glyph-name="magnifying-glass-search" unicode=""/><glyph d="M0 768.157C0 803.416 28.862 832 63.41 832h257.18c35.02 0 76.361-25.903 92.04-57.261L447.999 704H256.311c-70.865 0-144.008-54.934-163.628-123.604L-.002 256v512.157zm155.208-250.798C175.528 585.092 249.187 640 320.177 640h575.647c70.79 0 111.807-54.566 91.384-122.641L868.793 122.641C848.473 54.908 774.814 0 703.824 0H128.177C57.387 0 16.37 54.566 36.793 122.641z" glyph-name="folder-open" unicode=""/><glyph d="M877.227 836.778v1.707c0 34.404-27.89 62.293-62.293 62.293H640.683v40.107l.001.171c0 10.462-8.482 18.944-18.944 18.944H402.774c-10.462 0-18.944-8.482-18.944-18.944v-40.448H209.067c-34.404 0-62.293-27.89-62.293-62.293V-1.195l-.002-.512c0-34.404 27.89-62.293 62.293-62.293h605.698c34.344 0 62.196 27.792 62.293 62.113s0 .009 0 .009v838.656zM759.126 53.93H264.193v728.747h59.392V745.13c0-11.876 9.628-21.504 21.504-21.504h333.312c11.876 0 21.504 9.628 21.504 21.504v37.547h59.221zM383.147 553.471c-.094 7.751-6.4 13.999-14.164 13.999q-.18 0-.36-.004h-30.702c-7.823 0-14.165-6.342-14.165-14.165V522.41c0-7.823 6.342-14.165 14.165-14.165h30.72l.171-.001c7.823 0 14.165 6.342 14.165 14.165v31.062zm316.758 0c0 7.823-6.342 14.165-14.165 14.165H456.705c-7.823 0-14.165-6.342-14.165-14.165V522.58c0-7.823 6.342-14.165 14.165-14.165H685.74c7.823 0 14.165 6.342 14.165 14.165zM383.147 435.028c0 7.823-6.342 14.165-14.165 14.165h-30.72c-7.785-.095-14.07-6.381-14.165-14.156v-30.9c0-7.823 6.342-14.165 14.165-14.165h30.379l.171-.001c7.823 0 14.165 6.342 14.165 14.165v30.892zm316.758 0c0 7.823-6.342 14.165-14.165 14.165H456.705c-7.785-.095-14.07-6.381-14.165-14.156v-30.9c0-7.823 6.342-14.165 14.165-14.165H685.74c7.823 0 14.165 6.342 14.165 14.165zM383.147 316.586c0 7.823-6.342 14.165-14.165 14.165h-30.72c-7.785-.095-14.07-6.381-14.165-14.156v-30.9c0-7.823 6.342-14.165 14.165-14.165h30.379l.171-.001c7.823 0 14.165 6.342 14.165 14.165v30.892zm316.758 0c0 7.823-6.342 14.165-14.165 14.165H456.705c-7.785-.095-14.07-6.381-14.165-14.156v-30.9c0-7.823 6.342-14.165 14.165-14.165H685.74c7.823 0 14.165 6.342 14.165 14.165z" glyph-name="clipboard-notes" unicode=""/><glyph d="m995.157 353.621-65.365 113.152-8.192 15.36L818.859 422.4l-14.677-8.363 8.533-14.677 65.365-113.152c7.865-13.361 12.511-29.434 12.511-46.592 0-51.37-41.643-93.013-93.013-93.013H557.227V11.094H797.3c126.21 0 228.523 102.313 228.523 228.523 0 42.105-11.387 81.55-31.249 115.424l.584-1.077zM593.749 778.069 697.002 599.04l9.557-17.067 15.189 11.264 82.091 61.099 12.117 8.875-7.509 12.971-97.451 169.472c-40.252 68.771-113.761 114.229-197.888 114.229s-157.636-45.458-197.304-113.151l-.584-1.078-65.365-113.323-8.533-14.677 14.677-8.363 102.571-59.563 8.533 14.507 65.365 113.323c16.425 27.992 46.373 46.489 80.64 46.489s64.215-18.497 80.402-46.051l.238-.438zM228.864 146.261h-.052c-51.37 0-93.013 41.643-93.013 93.013 0 17.158 4.646 33.231 12.748 47.029l-.237-.437 110.251 190.976 9.557 17.067-17.067 7.509-94.379 40.107-13.653 5.973-7.509-12.971L31.062 353.62C11.783 320.823.396 281.378.396 239.273c0-126.191 102.282-228.492 228.465-228.523H376.49v135.509H228.863zm169.131-67.925L644.608-64v284.843zL644.608-64v284.843zM289.28 665.429 42.667 522.922 289.28 380.586zL42.667 522.922 289.28 380.586zm562.688-199.338v284.843L605.355 608.427zv284.843L605.355 608.427z" glyph-name="refresh2" unicode=""/><glyph d="m532.993-3.924 388.949 388.949c5.46 5.491 8.836 13.061 8.836 21.419s-3.375 15.927-8.837 21.42l-62.463 62.463c-5.491 5.46-13.061 8.836-21.419 8.836s-15.927-3.375-21.42-8.837L586.24 260.098v621.568l.002.341c0 14.704-11.92 26.624-26.624 26.624h-95.405c-14.704 0-26.624-11.92-26.624-26.624V260.098l-230.4 230.229c-5.491 5.46-13.061 8.836-21.419 8.836s-15.927-3.375-21.42-8.837l-62.292-62.463c-5.46-5.491-8.836-13.061-8.836-21.419s3.375-15.927 8.837-21.42L491.007-3.924c5.401-5.38 12.851-8.706 21.077-8.706s15.677 3.326 21.078 8.707z" glyph-name="arrow-down" unicode=""/><glyph d="M256 960h512c141.385 0 256-114.615 256-256V192c0-141.385-114.615-256-256-256H256C114.615-64 0 50.615 0 192v512c0 141.385 114.615 256 256 256m501-425q5 5 8 12c3 7 3 9.667 3 15q0 8-3 15c-3 7-4.667 8.667-8 12l-30 30q-5 5-12 8c-7 3-9.667 3-15 3q-8 0-15-3c-7-3-8.667-4.667-12-8L464 409l-85 85q-6 5-12.5 8c-6.5 3-9.167 3-14.5 3q-8 0-15-3c-7-3-8.667-4.667-12-8l-30-30q-5-5-8-12c-3-7-3-9.667-3-15q0-7 3-14c3-7 4.667-8.667 8-12l127-127q8-8 18.5-13c10.5-5 14.833-5 23.5-5q12 0 22.5 5c10.5 5 13.167 7.667 18.5 13z" glyph-name="element-checkbox" unicode=""/><glyph d="M407.04 307.541h-58.368V198.314h33.109v34.133h25.259a37 37 0 0 1 2.53-.085c20.736 0 37.547 16.81 37.547 37.547s-16.81 37.547-37.547 37.547q-1.335 0-2.648-.092zm-4.267-46.25h-20.992v17.067h20.992c5.632 0 9.899-2.731 9.899-8.704s-4.437-8.533-9.899-8.533zM512 307.541h-48.469V198.314H512c34.133 0 59.733 19.797 59.733 54.784s-25.6 54.443-59.733 54.443m0-80.384h-15.36v51.2H512a23 23 0 0 0 2.474.128c13.196 0 23.893-10.697 23.893-23.893q0-1.06-.091-2.095c.007.033.007-.035.007-.102 0-13.95-11.309-25.259-25.259-25.259q-.54 0-1.076.022zm80.384-28.842h33.109v40.789h48.64v28.843h-48.64v10.752h49.835v28.843h-82.944zM870.4 891.733v47.787c0 11.311-9.169 20.48-20.48 20.48H460.8L153.6 652.8V-43.52c0-11.311 9.169-20.48 20.48-20.48h675.84c11.311 0 20.48 9.169 20.48 20.48v29.013zM271.531 53.931V611.84H481.28c11.311 0 20.48 9.169 20.48 20.48v209.749h250.88V53.93z" glyph-name="page-pdf" unicode=""/><glyph d="M463.533 359.569H290.137c-10.274 0-18.604-8.039-18.604-17.957V81.962c0-9.918 8.33-17.959 18.604-17.959h173.396c10.274 0 18.604 8.039 18.604 17.957v259.812c0 9.918-8.33 17.957-18.604 17.957zM733.867 896H560.471c-10.274 0-18.602-8.041-18.602-17.959V81.961c0-9.918 8.328-17.957 18.602-17.957h173.396c10.274 0 18.602 8.039 18.602 17.957v796.08c0 9.918-8.328 17.959-18.602 17.959m271.531-241.855H832.172c-10.274 0-18.602-8.041-18.602-17.959V81.96c0-9.918 8.328-17.959 18.602-17.959h173.226c10.274 0 18.602 8.039 18.602 17.957v554.226c0 9.918-8.328 17.959-18.602 17.959zm-813.566 0H18.604C8.33 654.145 0 646.104 0 636.186V81.96c0-9.918 8.33-17.959 18.604-17.959h173.228c10.274 0 18.604 8.039 18.604 17.957v554.226c0 9.918-8.33 17.959-18.604 17.959z" glyph-name="graph-bar" unicode=""/><glyph d="M512 960c282.77 0 512-229.23 512-512S794.77-64 512-64 0 165.23 0 448s229.23 512 512 512m0-768c141.385 0 256 114.615 256 256S653.385 704 512 704 256 589.385 256 448s114.615-256 256-256" glyph-name="element-radio" unicode=""/><glyph d="M973.995 832H50.006C22.248 831.332.001 808.671.001 780.814V541.852c0-27.857 22.247-50.518 49.943-51.185l924.051-.001c27.758.668 50.005 23.329 50.005 51.186v238.962c0 27.857-22.247 50.518-49.943 51.185zM137.728 612.864c-26.1.853-46.933 22.216-46.933 48.445 0 26.769 21.7 48.469 48.469 48.469 26.76 0 48.455-21.687 48.469-48.444 0-26.77-21.7-48.471-48.469-48.471zm836.267-207.531H50.006C22.248 404.665.001 382.004.001 354.147V115.185C.001 87.328 22.248 64.667 49.944 64l924.051-.001c27.758.668 50.005 23.329 50.005 51.186v238.962c0 27.857-22.247 50.518-49.943 51.185zM137.728 186.197c-26.1.853-46.933 22.216-46.933 48.445 0 26.769 21.7 48.469 48.469 48.469 26.76 0 48.455-21.687 48.469-48.444 0-26.77-21.7-48.471-48.469-48.471z" glyph-name="storage-server-data" unicode=""/><glyph d="M256 960h512c141.385 0 256-114.615 256-256V192c0-141.385-114.615-256-256-256H256C114.615-64 0 50.615 0 192v512c0 141.385 114.615 256 256 256m256-704 256 320H256z" glyph-name="element-select" unicode=""/><glyph d="m699.311 230.329 4.865 17.484c2.331 6.169 3.68 13.292 3.68 20.721 0 12.481-3.807 24.103-10.36 33.831-10.141 13.064-26.265 21.658-44.475 21.957l-369.356 4.589c-2.423.02-4.562 1.181-5.874 2.956a7.1 7.1 0 0 0-1.227 3.996c0 .886.162 1.737.462 2.523 1.302 3.466 4.592 5.987 8.528 6.272l372.667 4.467c49.36 5.311 90.168 36.077 108.48 78.264l21.576 54.666c.338 1.058.531 2.274.531 3.534s-.195 2.476-.555 3.623c-25.625 105.442-122.001 182.789-237.024 182.789-105.653 0-195.57-65.257-229.144-156.432-18.511 11.439-41.211 19.308-65.81 19.308-60.376 0-109.319-47.412-109.319-105.899a103 103 0 0 1 3.491-26.649C66.714 400.446 0 334.194 0 252.847c0-8.034.651-15.924 1.905-23.618.347-2.592 3.356-5.226 6.998-5.226h682.474c3.98.062 7.324 2.627 8.432 6.138l-.497.187zM810.55 477.714c-2.091-.689-3.635-2.431-3.965-4.557l-14.341-48.393c-2.331-6.169-3.68-13.292-3.68-20.721 0-12.481 3.807-24.103 10.358-33.831 10.37-12.792 26.603-21.091 44.835-21.091q.072 0 78.927-4.589c2.331-.083 4.368-1.231 5.618-2.954a7.1 7.1 0 0 0 1.227-3.998c0-.886-.164-1.737-.462-2.523-1.301-3.466-4.593-5.987-8.527-6.272l-81.703-4.467c-49.568-5.316-90.522-36.306-108.74-78.757l-6.213-15.858a4 4 0 0 1-.282-1.494c0-2.249 1.82-4.088 4.112-4.21h281.63c3.461 0 6.332 2.17 7.283 5.156 4.685 15.738 7.372 33.755 7.372 52.38 0 107.959-90.254 195.497-201.656 195.676l-11.792.501z" glyph-name="cloudflare" unicode=""/><glyph d="M870.4 891.733v47.787c0 11.311-9.169 20.48-20.48 20.48H460.8L153.6 652.8V-43.52c0-11.311 9.169-20.48 20.48-20.48h675.84c11.311 0 20.48 9.169 20.48 20.48v29.013zM271.531 53.931V611.84H481.28c11.311 0 20.48 9.169 20.48 20.48v209.749h250.88V53.93z" glyph-name="page" unicode=""/><glyph d="M716.62 38.236a76.2 76.2 0 0 0-18.644-12.262c-7.344-3.354-15.383-5.196-23.852-5.196s-16.508 1.841-23.738 5.146a76.8 76.8 0 0 0-19.008 12.382L264.524 405.341a58.6 58.6 0 0 0-12.829 19.236c-3.048 7.438-4.735 15.621-4.735 24.198s1.687 16.76 4.748 24.235a59 59 0 0 0 12.814 19.027l367.789 365.4c10.89 10.984 25.984 17.784 42.667 17.784s31.777-6.8 42.662-17.78l41.818-43.012a60.2 60.2 0 0 0 12.822-18.894c3.056-7.305 4.744-15.342 4.744-23.773s-1.689-16.467-4.746-23.789a60.5 60.5 0 0 0-12.816-18.703L480.418 447.837l279.04-280.576a60.3 60.3 0 0 0 12.821-18.893 58.9 58.9 0 0 0 4.758-23.801l.001-.182a62.1 62.1 0 0 0-4.76-23.926c-2.85-6.986-7.257-13.255-12.781-18.327l-42.021-43.895z" glyph-name="chevron-left" unicode=""/><glyph d="M491.007 899.925 102.058 510.976c-5.46-5.491-8.836-13.061-8.836-21.419s3.375-15.927 8.837-21.42l62.463-62.463c5.491-5.46 13.061-8.836 21.419-8.836s15.927 3.375 21.42 8.837L437.76 635.903V14.335l-.002-.342c0-14.645 11.824-26.528 26.446-26.623h95.412c14.704 0 26.624 11.92 26.624 26.624v621.909l230.4-230.4c5.491-5.46 13.061-8.836 21.419-8.836s15.927 3.375 21.42 8.837l62.463 62.463c5.46 5.491 8.836 13.061 8.836 21.419s-3.375 15.927-8.837 21.42L532.993 899.925c-5.401 5.38-12.851 8.706-21.077 8.706s-15.677-3.326-21.078-8.707z" glyph-name="arrow-up" unicode=""/><glyph d="M512.001 527.104c65.98 0 119.467-53.487 119.467-119.467S577.981 288.17 512.001 288.17s-119.467 53.487-119.467 119.467 53.487 119.467 119.467 119.467m464.896 246.954H766.294v35.84c0 26.015-21.089 47.104-47.104 47.104H304.811c-26.015 0-47.104-21.089-47.104-47.104V774.57H47.103c-26.015 0-47.104-21.089-47.104-47.104l.001-.36V86.442l-.001-.341c0-26.015 21.089-47.104 47.104-47.104h929.794c26.015 0 47.104 21.089 47.104 47.104l-.001.36v640.664c0 26.015-21.089 47.104-47.104 47.104zM515.073 162.901c-134.693 0-243.883 109.19-243.883 243.883s109.19 243.883 243.883 243.883 243.883-109.19 243.883-243.883-109.19-243.883-243.883-243.883M961.025 585.13H774.657v125.952h186.368z" glyph-name="camera" unicode=""/><glyph d="m832 192 192 192H640zm0 512 192-192H640zM249.96 128C140.312 128 57.612 161.932 0 219.429l87.347 113.108c42.744-39.588 101.285-61.267 160.755-61.267 67.833 0 101.285 33.932 101.285 72.577 0 42.415-32.523 72.577-96.639 72.577-49.249 0-88.276-14.138-122.657-47.128L19.514 396.63V768h449.742V626.616H179.339V505.025c29.735 29.219 78.054 49.956 132.878 49.956 105.002 0 199.782-78.233 199.782-204.536C511.999 214.716 410.714 128 249.959 128z" glyph-name="element-number" unicode=""/><glyph d="M256 896V704c0-35.346 28.654-64 64-64h320c35.346 0 64 28.654 64 64v192h37.49a64 64 0 0 0 45.255-18.745l154.51-154.51A64 64 0 0 0 960 677.49V64c0-35.346-28.654-64-64-64H128C92.654 0 64 28.654 64 64v768c0 35.346 28.654 64 64 64zm256 0h128V736c0-17.673-14.327-32-32-32h-64c-17.673 0-32 14.327-32 32zM256 448c-35.346 0-64-28.654-64-64V192c0-35.346 28.654-64 64-64h512c35.346 0 64 28.654 64 64v192c0 35.346-28.654 64-64 64zm32-64h448c17.673 0 32-14.327 32-32s-14.327-32-32-32H288c-17.673 0-32 14.327-32 32s14.327 32 32 32m0-128h448c17.673 0 32-14.327 32-32s-14.327-32-32-32H288c-17.673 0-32 14.327-32 32s14.327 32 32 32" glyph-name="save" unicode=""/><glyph d="M448 704h384c35.346 0 64-28.654 64-64V256c0-35.346-28.654-64-64-64H448c-35.346 0-64 28.654-64 64v384c0 35.346 28.654 64 64 64M192 960c35.346 0 64-28.654 64-64V0c0-35.346-28.654-64-64-64s-64 28.654-64 64v896c0 35.346 28.654 64 64 64" glyph-name="align-x-left" unicode=""/><glyph d="M1011.883 558.08 564.054 297.813c-14.438-8.497-31.806-13.517-50.347-13.517s-35.908 5.019-50.819 13.773L12.118 558.25C4.828 562.561.016 570.382.016 579.327s4.812 16.766 11.989 21.015L447.66 853.503c17.935 10.569 39.513 16.813 62.549 16.813s44.615-6.244 63.135-17.131l438.54-253.122c7.29-4.311 12.102-12.132 12.102-21.077s-4.812-16.766-11.989-21.015zm0-306.176L829.099 357.547l-264.875-153.6c-14.438-8.497-31.806-13.517-50.347-13.517s-35.908 5.019-50.819 13.773L194.901 358.4 12.117 252.075C4.827 247.764.015 239.943.015 230.998s4.812-16.766 11.989-21.015L463.36-50.516c14.438-8.497 31.806-13.517 50.347-13.517s35.908 5.019 50.819 13.773l447.357 259.327c7.29 4.311 12.102 12.132 12.102 21.077s-4.812 16.766-11.989 21.015z" glyph-name="layers" unicode=""/><glyph d="M911.531 741.206h-38.059V7.339c0-9.426-7.641-17.067-17.067-17.067H314.197v-37.205c0-9.426 7.641-17.067 17.067-17.067h580.267c9.426 0 17.067 7.641 17.067 17.067v771.584c0 9.426-7.641 17.067-17.067 17.067zM818.688 61.953v772.096c0 9.426-7.641 17.067-17.067 17.067h-37.547V117.249c0-9.426-7.641-17.067-17.067-17.067H204.799V62.123c0-9.426 7.641-17.067 17.067-17.067h580.267c9.426 0 17.067 7.641 17.067 17.067zM709.803 171.35v771.584c0 9.426-7.641 17.067-17.067 17.067H112.469c-9.426 0-17.067-7.641-17.067-17.067V171.35c0-9.426 7.641-17.067 17.067-17.067h580.267c9.426 0 17.067 7.641 17.067 17.067" glyph-name="page-multiple" unicode=""/><glyph d="M475.793 894.803C208.938 875.007 0 655.832 0 388.353 0 236.23 67.582 99.731 174.648 6.666 179.675 2.338 185.53 0 191.936 0a25.54 25.54 0 0 1 22.004 12.477l43.671 74.793c2.042 3.51 3.246 7.719 3.246 12.207 0 6.912-2.858 13.164-7.468 17.66C180.383 185.38 134.94 281.84 134.94 388.808c0 206.208 168.886 373.374 377.217 373.374s377.217-167.165 377.217-373.374c0-106.966-45.444-203.427-118.265-271.499-4.794-4.668-7.653-10.919-7.653-17.832 0-4.487 1.204-8.697 3.311-12.327l43.692-74.554c4.47-7.53 12.613-12.505 21.929-12.505a25.4 25.4 0 0 1 16.579 6.11c107.517 93.526 175.031 229.964 175.031 382.01C1023.998 668.654 794.314 896 510.983 896c-12.383 0-24.663-.434-36.826-1.288l1.635.091zm-13.429-595.158-58.544 66.013a33.54 33.54 0 0 0-8.51 22.366c0 11.288 5.573 21.288 14.146 27.45l289.953 206.469c5.48 3.846 12.303 6.148 19.67 6.148a34.32 34.32 0 0 0 25.566-11.341l13.156-14.968a33.52 33.52 0 0 0 8.173-21.978c0-8.805-3.391-16.825-8.951-22.853L512.61 298.603a34.33 34.33 0 0 0-24.938-10.663 34.32 34.32 0 0 0-25.727 11.521l.42.186z" glyph-name="speed-optimize" unicode=""/><glyph d="M921.583 588.559a51.35 51.35 0 0 0 12.847-18.431c2.739-6.961 4.255-14.629 4.255-22.65q0-1.106-.038-2.204c.004-.035.005-.201.005-.368a59 59 0 0 0-4.757-23.293 60 60 0 0 0-12.321-18.397L555.333 136.122a73.9 73.9 0 0 0-19.153-12.272c-7.479-3.363-15.665-5.215-24.282-5.215s-16.803 1.851-24.179 5.178a74.4 74.4 0 0 0-19.334 12.377L102.384 503.225a60.2 60.2 0 0 0-12.31 18.382 58.7 58.7 0 0 0-4.757 23.802l-.001.246a61.8 61.8 0 0 0 4.76 23.857c2.613 7.223 6.867 13.729 12.297 19.037l42.506 43.359a76.2 76.2 0 0 0 18.81 12.263c7.349 3.353 15.388 5.195 23.857 5.195s16.508-1.841 23.738-5.146a75.9 75.9 0 0 0 19.004-12.379L511.983 350.82l280.576 279.723c10.689 10.554 25.384 17.073 41.602 17.073q.471 0 .941-.007l.198.001a62.8 62.8 0 0 0 24.065-4.762c6.98-2.849 13.25-7.256 18.322-12.78z" glyph-name="chevron-down" unicode=""/><glyph d="M297.155 870.486c125.418 101.021 304.273 101.021 429.691 0 123.952-99.841 157.486-274.697 79.264-413.31L512.001-64 217.892 457.176c-78.222 138.613-44.689 313.469 79.264 413.31zM512 486.4c70.692 0 128 57.308 128 128s-57.308 128-128 128-128-57.308-128-128 57.308-128 128-128" glyph-name="pin" unicode=""/><glyph d="M768 256h129.906C932.199 256 960 228.2 960 193.906v-3.813c0-34.293-27.8-62.094-62.094-62.094H768v-1.906c0-34.293-27.8-62.094-62.094-62.094h-3.813c-34.293 0-62.094 27.8-62.094 62.094v1.906H126.093c-34.293 0-62.094 27.8-62.094 62.094v3.813c0 34.293 27.8 62.094 62.094 62.094h513.906v1.906c0 34.293 27.8 62.094 62.094 62.094h3.813C740.199 320 768 292.2 768 257.906zM448 768v1.906C448 804.199 475.8 832 510.094 832h3.813c34.293 0 62.094-27.8 62.094-62.094V768h321.906c34.293 0 62.094-27.8 62.094-62.094v-3.813c0-34.293-27.8-62.094-62.094-62.094H576.001v-1.906c0-34.293-27.8-62.094-62.094-62.094h-3.813c-34.293 0-62.094 27.8-62.094 62.094v1.906H126.094c-34.293 0-62.094 27.8-62.094 62.094v3.813C64 740.199 91.8 768 126.094 768zM256 512v1.906C256 548.199 283.8 576 318.094 576h3.813c34.293 0 62.094-27.8 62.094-62.094V512h513.906c34.293 0 62.094-27.8 62.094-62.094v-3.813c0-34.293-27.8-62.094-62.094-62.094H384.001v-1.906c0-34.293-27.8-62.094-62.094-62.094h-3.813c-34.293 0-62.094 27.8-62.094 62.094v1.906H126.094c-34.293 0-62.094 27.8-62.094 62.094v3.813C64 484.199 91.8 512 126.094 512z" glyph-name="settings-slider-control" horiz-adv-x="978" unicode=""/><glyph d="M576 704h128c35.346 0 64-28.654 64-64V256c0-35.346-28.654-64-64-64H576V0c0-35.346-28.654-64-64-64s-64 28.654-64 64v192H320c-35.346 0-64 28.654-64 64v384c0 35.346 28.654 64 64 64h128v192c0 35.346 28.654 64 64 64s64-28.654 64-64z" glyph-name="align-x-center" unicode=""/><glyph d="m586.039 394.981 67.882 67.882c12.497 12.497 12.497 32.758 0 45.255l-45.255 45.255c-12.497 12.497-32.758 12.497-45.255 0l-67.882-67.882-67.882 67.882c-12.497 12.497-32.758 12.497-45.255 0l-45.255-45.255c-12.497-12.497-12.497-32.758 0-45.255l67.882-67.882-67.882-67.882c-12.497-12.497-12.497-32.758 0-45.255l45.255-45.255c12.497-12.497 32.758-12.497 45.255 0l67.882 67.882 67.882-67.882c12.497-12.497 32.758-12.497 45.255 0l45.255 45.255c12.497 12.497 12.497 32.758 0 45.255zm121.314 226.747c87.884 0 160.254-63.463 170.904-145.972 83.204-16.805 145.664-87.332 145.738-172.055-2.662-97.469-86.2-175.7-189.092-175.7H249.174C114.688 128.001 0 233.008.002 361.747c.964 124.682 104.79 225.987 234.954 231.337 13.786 98.746 102.292 174.917 209.42 174.917 99.562 0 183.04-65.792 204.508-156.092 18.238 6.353 37.93 9.82 58.468 9.82z" glyph-name="unpublish" unicode=""/><glyph d="M536.811 853.105 645.849 960l378.152-376.456-109.038-109.219q-48.718 30.21-105.558 25.562c-56.84-4.648-69.985-18.59-96.278-46.476l-46.399-44.152q-39.439-41.829-45.239-98.762c-5.8-56.933 4.253-73.2 24.359-105.733L539.13 97.869 395.293 241.945 228.257 74.631q-16.24-16.266-62.639-51.124-57.999-41.828-99.758-65.066-51.039-30.21-62.639-19.752c-11.6 10.458-1.547 28.273 18.56 63.905q23.199 41.829 64.959 97.6 34.8 48.8 51.039 65.066l167.036 164.99-143.837 144.076 109.038 109.219q46.399-30.21 103.238-25.562c56.839 4.648 70.758 18.59 98.598 46.476l44.079 44.152q41.76 41.828 47.559 98.762c5.799 56.934-5.026 73.2-26.679 105.733z" glyph-name="post-pin" unicode=""/><glyph d="M0 768c0 35.346 28.862 64 63.41 64h257.18c35.02 0 76.361-25.903 92.04-57.261L447.999 704h-448zm0-128h767.625C838.525 640 896 583.204 896 512.025V127.976C896 57.297 838.588.001 767.625.001h-639.25C57.475.001 0 56.797 0 127.976z" glyph-name="folder" unicode=""/><glyph d="M931.584 741.355c94.454-135.064 118.112-307.338 63.563-462.862S814.513 3.213 656.384-43.264A1937 1937 0 0 1 760.32 131.579c120.064 222.842 171.264 468.98 171.264 609.776m-736.128-44.927a1969 1969 0 0 1-174.72-103.933c44.483 151.22 156.145 273.521 302.706 331.549s311.682 45.313 447.63-34.469c11.648-6.4 22.528-14.208 34.048-22.015-141.056.64-386.816-51.583-609.664-171.131zM529.024-64H512C229.23-64 0 165.224 0 447.986v17.152c181.888 56.447 569.216 193.531 646.016 116.605S585.6 117.627 529.024-64" glyph-name="automate" unicode=""/><glyph d="M106.101 270.054 63.838 16.629a14.5 14.5 0 0 1-.159-2.171A14.9 14.9 0 0 1 67.873 4.08l-.005.005A14.88 14.88 0 0 1 78.241-.106c.765 0 1.519.058 2.253.169l252.15 42.701c6.673 1.588 11.559 7.498 11.559 14.547 0 3.826-1.438 7.317-3.804 9.959l-49.418 49.416 132.612 132.612c2.511 2.666 4.054 6.267 4.054 10.229s-1.543 7.564-4.061 10.237l-90.94 91.239c-2.666 2.511-6.267 4.054-10.229 4.054s-7.564-1.543-10.237-4.061L179.874 228.391l-49.431 49.431a14.86 14.86 0 0 1-9.944 3.792c-7.051 0-12.96-4.886-14.528-11.457zm811.5 355.724 42.263 253.425c.101.652.159 1.406.159 2.171a14.9 14.9 0 0 1-4.194 10.378l.005-.005a14.89 14.89 0 0 1-10.545 4.36 15 15 0 0 1-2.384-.189L691.058 853.07c-6.673-1.588-11.559-7.498-11.559-14.547 0-3.826 1.438-7.317 3.804-9.959l49.418-49.416-133.359-132.612c-2.511-2.666-4.054-6.267-4.054-10.229s1.543-7.564 4.061-10.237l91.687-91.387c2.666-2.511 6.267-4.054 10.229-4.054s7.564 1.543 10.237 4.061l132.605 132.605 49.431-49.431a14.87 14.87 0 0 1 9.916-3.767c7.095 0 13.034 4.949 14.556 11.582zM689.712 42.165 943.585.202a14.5 14.5 0 0 1 2.171-.159 14.9 14.9 0 0 1 10.378 4.194l-.005-.005a14.88 14.88 0 0 1 4.191 10.373c0 .765-.058 1.519-.169 2.253l-43.149 251.85c-1.588 6.673-7.498 11.559-14.547 11.559a14.88 14.88 0 0 1-9.959-3.804l-49.416-49.418-132.612 133.359c-2.666 2.511-6.267 4.054-10.229 4.054s-7.564-1.543-10.237-4.061l-91.387-91.687c-2.511-2.666-4.054-6.267-4.054-10.229s1.543-7.564 4.061-10.237l132.605-132.605-49.431-49.431a14.87 14.87 0 0 1-3.767-9.916c0-7.095 4.949-13.034 11.582-14.556zM333.99 853.667 80.565 895.93c-.612.09-1.319.14-2.037.14-4.097 0-7.809-1.65-10.509-4.322l.001.001a14.89 14.89 0 0 1-4.34-10.525c0-.764.058-1.517.169-2.25l42.85-251.85c1.588-6.673 7.498-11.559 14.547-11.559 3.826 0 7.317 1.438 9.959 3.804l49.416 49.418 132.612-132.612c2.666-2.511 6.267-4.054 10.229-4.054s7.564 1.543 10.237 4.061l91.387 90.94c2.511 2.666 4.054 6.267 4.054 10.229s-1.543 7.564-4.061 10.237L292.324 779.894l49.431 49.431a14.87 14.87 0 0 1 3.767 9.916c0 7.095-4.949 13.034-11.582 14.556z" glyph-name="arrows-out" unicode=""/><glyph d="M569.856 960c-10.085 0-18.261-8.176-18.261-18.261a17.291 17.291 0 0 1 .004-2.792l-.004.062V505.516c0-10.085 8.176-18.261 18.261-18.261h433.152a17.291 17.291 0 0 1 2.792.004c10.024-.004 18.2 8.172 18.2 18.257-2.666 249.806-204.366 451.626-453.872 454.483zm348.501-559.787c0 10.085-8.176 18.261-18.261 18.261H501.76c-10.085 0-18.261 8.176-18.261 18.261v397.141a21.136 21.136 0 0 1-.004 2.794c.003 10.021-8.172 18.197-18.258 18.197h-6.315C205.183 854.867-.513 649.171-.513 395.432S205.183-64.003 458.922-64.003s459.435 205.696 459.435 459.435v4.437c0 1.536 0 0 0 0z" glyph-name="graph-bar-2" unicode=""/><glyph d="M308.816 857.398a75.7 75.7 0 0 0 18.646 12.264c7.34 3.363 15.379 5.211 23.85 5.211s16.51-1.848 23.736-5.162a75.9 75.9 0 0 0 19.006-12.379l364.98-367.037a63.6 63.6 0 0 0 13.152-19.22c3.337-7.412 5.188-15.597 5.188-24.214s-1.851-16.803-5.178-24.179a64 64 0 0 0-13.162-19.084L393.124 38.2c-10.689-10.554-25.384-17.073-41.602-17.073q-.471 0-.941.007c.015-.001-.024-.001-.062-.001a62.6 62.6 0 0 0-24.03 4.761c-7.018 2.679-13.345 6.922-18.512 12.289L264.1 81.207a76 76 0 0 0-12.263 18.645c-3.364 7.341-5.212 15.381-5.212 23.851s1.848 16.51 5.162 23.736a76.4 76.4 0 0 0 12.381 19.008l281.02 281.351-279.723 280.576a60.3 60.3 0 0 0-12.821 18.893 59.1 59.1 0 0 0-5.609 23.519c-.003.196-.003.329-.003.462a62.1 62.1 0 0 0 4.761 23.928c2.85 6.986 7.257 13.255 12.781 18.327l43.387 43.895z" glyph-name="chevron-right" unicode=""/><glyph d="M102.581 212.996a75.8 75.8 0 0 0-12.264 18.811 57.2 57.2 0 0 0-5.179 23.822c0 8.746 1.964 17.033 5.474 24.444a76.3 76.3 0 0 0 12.035 18.159l366.185 365.664a74.1 74.1 0 0 0 19.152 12.272c7.482 3.354 15.667 5.199 24.283 5.199s16.801-1.845 24.181-5.162a74.6 74.6 0 0 0 19.333-12.378l366-367.035a60.2 60.2 0 0 0 12.822-18.894c2.75-6.785 4.259-14.202 4.259-21.972q0-.68-.015-1.356c.002-.015.002-.111.002-.208a61.8 61.8 0 0 0-4.76-23.857c-2.613-7.223-6.867-13.729-12.297-19.037l-42.506-43.359a76 76 0 0 0-18.811-12.264c-7.346-3.363-15.385-5.211-23.856-5.211s-16.51 1.848-23.736 5.162a76 76 0 0 0-18.832 12.376L512.182 449.197 231.606 169.474c-10.714-10.555-25.431-17.072-41.671-17.072q-.435 0-.869.006c.011-.001-.027-.001-.066-.001a62.6 62.6 0 0 0-24.03 4.761c-6.981 2.849-13.251 7.256-18.323 12.78l-44.066 41.509z" glyph-name="chevron-up" unicode=""/><glyph d="M487.166 82.894c-66.404 0-348.164 62.974-348.164 189.082v141.312L476.15 276.739c3.235-1.348 6.993-2.133 10.938-2.133s7.704.783 11.127 2.201L831.448 411.75l3.724-1.843V271.668c0-126.104-281.604-189.082-348.01-189.082zM1023.687 64l-65.319 78.49L892.894 64v380.311L709.503 536.47 1024 467.35zm-74.63 456.96-358.248 69.58c-4.658.072-7.647-2.885-7.647-6.532a6.57 6.57 0 0 1 2.665-5.281l193.028-126.732-291.689-118.119L48.152 511.759C8.811 527.7-10.159 572.514 5.781 611.856a76.86 76.86 0 0 0 42.386 42.377L487.166 832 949.02 644.978c34.251-13.869 50.773-52.879 36.904-87.129a66.9 66.9 0 0 0-36.867-36.889" glyph-name="academy" unicode=""/><glyph d="M114.335 124.187.89 10.405v7.172c0 130.93.028 261.861-.04 392.791-.007 14.057-1.071 28.124-.808 42.171 2.28 121.833 41.967 229.877 119.48 323.798 19.492 23.619 41.184 45.108 64.736 64.685a42 42 0 0 1 2.712 2.459c.304.301.441.772.8 1.433L75.303 957.623l.486 1.418h5.583c130.729 0 261.457-.032 392.187.044 14.935.008 29.878 1.111 44.804.885 118.38-1.799 223.831-39.896 316.319-113.972 26.184-20.971 49.824-44.586 71.313-70.366 1.057-1.268 2.177-2.484 3.544-4.039 37.904 38.044 75.565 75.844 113.225 113.646l1.236-.51V448.927H589.16l-1.546 1.88c1.607.878 3.531 1.437 4.776 2.681 41.474 41.477 82.844 83.06 124.384 124.469 3.17 3.16 3.269 5.171.79 8.74-42.557 61.26-100.337 97.799-174.249 108.273-9.338 1.323-18.663 2.781-28.036 3.77-6.083.642-6.14.313-6.132-5.734.066-54.452.14-108.904.211-163.356.003-1.757 0-3.512 0-5.269l-2.322-1.681c-.946 1.753-1.543 3.855-2.89 5.209-41.035 41.268-82.179 82.427-123.169 123.742-3.057 3.081-5.071 3.514-8.748.971-57.225-39.573-93.054-93.281-106.403-161.784-2.449-12.569-3.991-25.32-5.808-38.007-.971-6.785-.603-7.092 6.098-7.086 54.153.054 108.305.117 162.457.177 1.663.002 3.325.001 6.305.001-1.874-1.993-2.994-3.246-4.178-4.434-41.092-41.212-82.137-82.471-123.375-123.535-3.613-3.598-3.642-5.929-.847-9.944 41.284-59.287 97.11-95.568 168.433-107.409 10.496-1.743 21.026-3.747 31.614-4.383 22.49-1.348 44.651 1.572 66.59 6.665 38.584 8.955 71.277 28.858 101.054 54.209 22.663 19.296 41.229 42.027 55.808 68.022.29.518.675.982 1.395 2.017 1.328-1.186 2.569-2.178 3.678-3.299 47.473-48.004 94.944-96.009 142.393-144.039 12.558-12.713 24.964-25.578 37.617-38.196 2.631-2.624 2.641-4.311.394-7.201C883.315 93.09 845.917 57.347 803.019 27.45c-56.715-39.528-118.882-66.473-186.51-80.653a501.5 501.5 0 0 0-76.035-9.951c-25.784-1.389-51.524-1.133-77.195 1.293-55.054 5.206-107.949 18.945-158.537 41.439-34.715 15.435-66.629 35.527-97.999 56.924-34.407 23.469-62.862 52.803-89.716 84.102-.788.919-1.461 1.938-2.691 3.585z" glyph-name="recaptcha" unicode=""/><glyph d="M512 960C229.23 960 0 730.77 0 448S229.23-64 512-64s512 229.23 512 512-229.23 512-512 512m350.891-540.672c-4.096-39.595-19.456-114.005-77.824-159.061-34.957-26.992-79.245-43.462-127.358-44.031-.805-.012-1.601-.019-2.398-.019-19.34 0-37.801 3.767-54.688 10.607-33.156 14.157-67.29 50.85-65.412 92.834v1.877l17.067 93.184c2.684 11.537 4.293 24.827 4.436 38.469.001 23.654-13.311 26.555-23.21 26.555-28.331 0-66.219-37.205-77.653-96.939l-23.04-110.592h-7.851l-.584-.002c-28.781 0-54.469 13.242-71.304 33.966-20.101 24.234-24.027 58.879-12.763 109.226l63.829 256-20.821-11.264c-76.89-45.504-127.642-128.014-127.642-222.379 0-142.167 115.196-257.429 257.338-257.536h.443c24.827 0 48.825 3.553 71.511 10.179l6.563 1.939 36.181-89.429-9.899-3.072c-32.113-10.603-69.078-16.718-107.47-16.718-195.394 0-353.792 158.398-353.792 353.792 0 133.919 74.407 250.459 184.134 310.535 25.211 13.761 52.281 24.364 80.775 31.338l6.231 1.501 7.339 35.157h113.835l-50.176-256-2.901-15.019 12.8 8.363c20.948 14.322 46.83 22.87 74.709 22.87h.226c55.626 0 90.271-36.693 90.271-95.573-.524-21.184-2.675-41.483-6.338-61.251l-14.824-78.013a30.6 30.6 0 0 1-.486-5.504 31.26 31.26 0 0 1 6.01-18.479 25.23 25.23 0 0 1 17.315-6.837q1.189 0 2.349.108c63.901-.007 86.258 74.062 89.33 117.923.662 6.619 1.04 14.305 1.04 22.079 0 54.114-18.303 103.953-49.057 143.665-35.194 40.291-79.737 72.393-130.243 92.845l16.979 94.18c69.482-23.968 128.484-63.065 175.37-113.566 42.976-47.054 71.974-107.047 80.465-173.451a331 331 0 0 0 2.737-42.602c0-11.217-.562-22.302-1.661-33.23z" glyph-name="hustle" unicode=""/><glyph d="m1007.275 365.996-174.251 82.773c41.455 28.313 68.313 75.348 68.313 128.655q0 1.995-.05 3.978c.004 82.919-57.852 150.162-129.191 150.162-25.188-.03-48.474-8.152-67.404-21.904 11.888-28.284 18.593-61.357 18.593-95.996v-.342c0-51.921-15.274-100.275-41.573-140.813 9.235-8.759 19.124-17.128 30.09-23.927l.561-.324L824.15 395.01c30.676-16.277 51.214-48.016 51.214-84.552q0-.862-.015-1.721l.001-144.981h119.467c16.264 1.302 28.97 14.821 28.97 31.308q0 1.493-.137 2.949l.009 136.409c.025.492.04 1.069.04 1.649 0 12.584-6.809 23.577-16.945 29.496zM314.881 449.11c9.565 6.404 17.855 13.609 25.152 21.725-26.524 40.018-42.391 89.074-42.391 141.835l.001.835v.028c0 35.404 7.023 69.167 19.751 99.973-18.433 10.702-40.452 18.255-64.218 18.569-71.416.001-129.272-67.242-129.272-150.357a147 147 0 0 1-.053-4.033c0-53.923 27.603-101.4 69.45-129.07L18.432 365.996C7.569 360.139.311 348.843.311 335.852q0-.755.032-1.5L.341 196.183a30 30 0 0 1-.127-2.825c0-16.487 12.706-30.007 28.859-31.301l115.823-.007v145.067c-.006.392-.009.856-.009 1.32 0 37.149 21.309 69.32 52.37 84.959zm486.058-102.4L586.24 448.939c28.689 18.918 51.133 45.202 64.919 76.188 12.279 26.534 19.194 56.282 19.22 87.643-.152 18.264-2.571 35.885-6.988 52.696-18.612 76.678-79.711 135.046-153.268 135.046s-131.584-56.491-151.381-132.949c-4.769-16.314-7.621-35.084-7.849-54.485-.002-.29-.002-.481-.002-.673 0-32.828 7.622-63.876 21.193-91.47 14.181-29.538 36.602-54.589 64.276-72.084l-60.551-29.096-155.648-72.533c-13.416-7.233-22.379-21.184-22.379-37.228q0-.708.023-1.411l-.002-170.598a38 38 0 0 1-.176-3.692c0-20.471 15.808-37.25 35.883-38.796l553.946-.008c20.092 1.681 35.762 18.402 35.762 38.784q0 1.42-.1 2.812l.007 170.542c.016.427.024.929.024 1.432 0 15.977-8.889 29.878-21.99 37.028z" glyph-name="community-people" unicode=""/><glyph d="M910.421 896H107.754c-24.165 0-43.755-19.59-43.755-43.755v-40.469c0-24.165 19.59-43.755 43.755-43.755h802.667c24.165 0 43.755 19.59 43.755 43.755v40.469c0 24.165-19.59 43.755-43.755 43.755m0-768.021H107.754c-24.165 0-43.755-19.59-43.755-43.755V43.755C63.999 19.59 83.589 0 107.754 0h802.667c24.165 0 43.755 19.59 43.755 43.755v40.32c0 24.165-19.59 43.755-43.755 43.755zm43.904 212.202c0 24.165-19.59 43.755-43.755 43.755H411.647c-24.165 0-43.755-19.59-43.755-43.755v-40.32c0-24.165 19.59-43.755 43.755-43.755H910.42c24.165 0 43.755 19.59 43.755 43.755v40.32zm0 254.614c0 24.165-19.59 43.755-43.755 43.755H411.647c-24.165 0-43.755-19.59-43.755-43.755v-40.469c0-24.165 19.59-43.755 43.755-43.755H910.42c24.165 0 43.755 19.59 43.755 43.755v40.32zM71.317 347.2a7.3 7.3 0 0 1 5.225 2.237l159.639 92.141c2.235 1.239 3.726 3.58 3.733 6.271v.041a7.32 7.32 0 0 1-4.285 6.661l-.046.019-159.189 92.139A7.32 7.32 0 0 1 64 541.641V354.517a7.317 7.317 0 0 1 7.317-7.317" glyph-name="indent-more" unicode=""/><glyph d="m604.501 902.144 82.603-15.189 16.043-200.021-71.68 47.616-173.568 31.915zM166.912 374.955l3.755 125.952-90.112-84.139zm656.896 4.778 153.6 74.069-19.968 254.464-168.789 113.493zm8.021-102.4c-59.051-28.672-142.848-68.267-233.301-111.616l184.32-89.429c113.835 54.443 217.429 104.789 217.088 107.691l-13.653 168.277zm-656.042 358.4 311.296 287.403L290.134 960 18.262 708.267l-7.68-226.133zM5.973 345.6 0 171.861 488.107-64s84.139 39.595 183.979 86.869z" glyph-name="upfront" horiz-adv-x="1000" unicode=""/><glyph d="M1023.402 916.159 875.952 78.543c-5.008-28.45-32.131-47.453-60.581-42.445a52 52 0 0 0-7.763 1.99L600.56 108.459a37.36 37.36 0 0 1-40.108-10.735L429.694-51.33c-13.607-15.511-37.212-17.055-52.723-3.447a37.36 37.36 0 0 0-12.723 28.085v200.199c0 8.707 3.041 17.14 8.597 23.843l466.486 562.749-580.279-485.01a37.36 37.36 0 0 0-37.204-6.268L24.42 343.669c-19.294 7.314-29.005 28.885-21.69 48.178a37.36 37.36 0 0 0 16.352 19.168l948.942 544.034c17.901 10.262 40.731 4.071 50.994-13.83a37.37 37.37 0 0 0 4.383-25.059z" glyph-name="send" unicode=""/><glyph d="M910.047 896H107.38c-24.165 0-43.755-19.59-43.755-43.755v-40.469c0-24.165 19.59-43.755 43.755-43.755h802.667c24.165 0 43.755 19.59 43.755 43.755v40.469c0 24.165-19.59 43.755-43.755 43.755m0-768.021H107.38c-24.165 0-43.755-19.59-43.755-43.755V43.755C63.625 19.59 83.215 0 107.38 0h802.667c24.165 0 43.755 19.59 43.755 43.755v40.32c0 24.165-19.59 43.755-43.755 43.755zm43.904 212.202c0 24.165-19.59 43.755-43.755 43.755H411.273c-24.165 0-43.755-19.59-43.755-43.755v-40.32c0-24.165 19.59-43.755 43.755-43.755h498.773c24.165 0 43.755 19.59 43.755 43.755v40.32zm0 254.614c0 24.165-19.59 43.755-43.755 43.755H411.273c-24.165 0-43.755-19.59-43.755-43.755v-40.469c0-24.165 19.59-43.755 43.755-43.755h498.773c24.165 0 43.755 19.59 43.755 43.755v40.32zM63.625 448v-.04a7.32 7.32 0 0 1 4.285-6.661l.046-.019 159.04-91.84a7.14 7.14 0 0 1 5.061-2.091h.02a7.317 7.317 0 0 1 7.315 7.161v186.974a7.317 7.317 0 0 1-7.317 7.317h-.021a7.15 7.15 0 0 1-5.201-2.236l-159.64-92.141c-2.16-1.262-3.588-3.569-3.588-6.209q0-.112.004-.222z" glyph-name="indent-less" unicode=""/><glyph d="M352 704c-53.019 0-96 42.981-96 96s42.981 96 96 96 96-42.981 96-96-42.981-96-96-96m320 0c-53.019 0-96 42.981-96 96s42.981 96 96 96 96-42.981 96-96-42.981-96-96-96M352 352c-53.019 0-96 42.981-96 96s42.981 96 96 96 96-42.981 96-96-42.981-96-96-96m320 0c-53.019 0-96 42.981-96 96s42.981 96 96 96 96-42.981 96-96-42.981-96-96-96M352 0c-53.019 0-96 42.981-96 96s42.981 96 96 96 96-42.981 96-96-42.981-96-96-96m320 0c-53.019 0-96 42.981-96 96s42.981 96 96 96 96-42.981 96-96-42.981-96-96-96" glyph-name="drag" unicode=""/><glyph d="M320 832h64c35.346 0 64-28.654 64-64V128c0-35.346-28.654-64-64-64h-64c-35.346 0-64 28.654-64 64v640c0 35.346 28.654 64 64 64m320 0h64c35.346 0 64-28.654 64-64V128c0-35.346-28.654-64-64-64h-64c-35.346 0-64 28.654-64 64v640c0 35.346 28.654 64 64 64" glyph-name="pause" unicode=""/><glyph d="M955.733 702.805 513.024-64c282.175.786 510.618 229.714 510.618 511.998 0 93.773-25.209 181.658-69.22 257.247zm-659.968-74.24L512 254.122l216.235 374.443H295.766zM131.243 789.333h762.368C799.677 894.716 663.551 960.759 512 960.759s-287.677-66.043-381.167-170.92zm-62.976-87.04C25.749 629.266.651 541.562.651 447.996.651 165.875 228.831-62.952 510.705-64z" glyph-name="smush" unicode=""/><glyph d="M832 960c35.346 0 64-28.654 64-64V0c0-35.346-28.654-64-64-64s-64 28.654-64 64v896c0 35.346 28.654 64 64 64M192 704h384c35.346 0 64-28.654 64-64V256c0-35.346-28.654-64-64-64H192c-35.346 0-64 28.654-64 64v384c0 35.346 28.654 64 64 64" glyph-name="align-x-right" unicode=""/><glyph d="M236.715 448c0-65.32-52.952-118.272-118.272-118.272S.171 382.68.171 448s52.952 118.272 118.272 118.272S236.715 513.32 236.715 448m393.557 0c0-65.32-52.952-118.272-118.272-118.272S393.728 382.68 393.728 448 446.68 566.272 512 566.272 630.272 513.32 630.272 448M1024 448c0-65.32-52.952-118.272-118.272-118.272S787.456 382.68 787.456 448s52.952 118.272 118.272 118.272S1024 513.32 1024 448" glyph-name="more" unicode=""/><glyph d="M322.35 672.58a304 304 0 0 0 3.872 3.467c69.009 60.732 161.584 87.586 253.821 71.323 165.344-29.155 275.747-186.827 246.593-352.171S639.809 119.452 474.465 148.606c-77.947 13.744-145.751 56.436-191.797 118.844-26.232 35.553-76.318 43.109-111.871 16.877s-43.109-76.318-16.877-111.871C224.109 77.328 327.891 11.984 446.682-8.962c252.367-44.499 493.024 124.011 537.524 376.378S860.195 860.44 607.828 904.94c-140.63 24.797-282.185-16.266-387.309-108.781a465 465 0 0 1-17.455-16.171l-48.279 43.47a64 64 0 0 1-42.81 16.439c-35.346.008-64.006-28.639-64.014-63.986l-.048-215.702c0-2.244.117-4.487.352-6.718 3.703-35.152 35.2-60.646 70.352-56.944l214.515 22.595a64 64 0 0 1 40.857 20.824c23.651 26.267 21.53 66.734-4.737 90.386l-46.901 42.23z" glyph-name="undo" unicode=""/><glyph d="M512 960C229.23 960 0 730.77 0 448S229.23-64 512-64s512 229.23 512 512-229.23 512-512 512m335.019-614.4c.009-.584.014-1.273.014-1.964 0-35.154-12.93-67.288-34.294-91.906-20.619-23.931-51.098-39.171-85.143-39.421-66.262 0-119.51 59.733-119.51 133.12V550.4c.271 1.352.427 2.905.427 4.495 0 13.196-10.697 23.893-23.893 23.893s-23.893-10.697-23.893-23.893c0-1.59.155-3.144.452-4.647l-.025-204.648c.011-.64.017-1.395.017-2.151 0-35.094-12.934-67.168-34.294-91.714-20.621-23.935-51.101-39.175-85.146-39.425-66.262 0-119.51 59.733-119.51 133.12v204.971c.049.602.078 1.304.078 2.012 0 13.487-10.225 24.586-23.346 25.967-14.416-.145-25.952-11.776-25.952-26.101q0-.992.073-1.965l-.005-390.74-96.427-75.093v465.92c-.008.565-.013 1.233-.013 1.901 0 35.174 12.929 67.328 34.294 91.97 20.643 23.895 51.106 39.122 85.133 39.42 66.271 0 119.519-59.733 119.519-133.29v-204.8a25 25 0 0 1-.077-1.996c0-13.453 10.24-24.514 23.351-25.814 13.942.61 24.924 11.977 24.924 25.908q0 1.004-.075 1.989l.005 204.713c0 73.387 53.931 133.291 119.467 133.291s119.467-59.733 119.467-133.291v-204.8c0-13.337 10.812-24.149 24.149-24.149s24.149 10.812 24.149 24.149v390.827l96.427 74.923z" glyph-name="wpmudev-logo" unicode=""/><glyph d="M640 384H384c-35.346 0-64 28.654-64 64s28.654 64 64 64h256v80.297a64 64 0 0 0 16.429 42.814c23.645 26.273 64.112 28.402 90.385 4.757l160.33-144.297a64 64 0 0 0 4.757-4.757c23.645-26.273 21.516-66.739-4.757-90.385l-160.33-144.297A64 64 0 0 0 704 239.703c-35.346 0-64 28.654-64 64zM192 64h320c35.346 0 64-28.654 64-64s-28.654-64-64-64H128C92.654-64 64-35.346 64 0v896c0 35.346 28.654 64 64 64h384c35.346 0 64-28.654 64-64s-28.654-64-64-64H192z" glyph-name="logout" unicode=""/><glyph d="M926.35 751.857 784.501 610.008a101 101 0 0 0-6.154-.181c-57.726 0-104.521 46.795-104.521 104.521q0 3.248.196 6.447l54.336 54.058 87.499 87.499c1.356 1.329 2.196 3.18 2.196 5.225s-.841 3.896-2.195 5.224a7.6 7.6 0 0 1-1.748 1.176l-.046.021h-1.195c-29.451 13.406-63.872 21.218-100.119 21.218-136.314 0-246.818-110.504-246.818-246.818 0-26.508 4.178-52.038 11.912-75.971L219.786 316.605c-86.304-1.44-155.716-71.741-155.716-158.253C64.07 70.94 134.933.077 222.345.077c86.514 0 156.813 69.41 158.251 155.58l257.57 257.853c22.47-7.454 48.34-11.755 75.213-11.755 136.15 0 246.52 110.371 246.52 246.52 0 36.432-7.903 71.019-22.09 102.139l.63-.2a8 8 0 0 1-.906 1.357c-1.319 1.343-3.168 2.183-5.215 2.183s-3.896-.841-5.224-2.195zM288.026 158.329c-.17-35.991-29.385-65.1-65.399-65.1-36.12 0-65.4 29.281-65.4 65.4 0 36.014 29.111 65.229 65.085 65.399l.315.001c36.12 0 65.4-29.281 65.4-65.4l-.001-.315z" glyph-name="wrench-tool" unicode=""/><glyph d="m750.246 672.721-58.326 44.618q-10.056 6.79-16.09 16.489c-6.034 9.699-6.704 13.579-8.045 21.339q-5.028 25.219 10.559 46.073c15.587 20.854 24.303 22.471 41.734 25.704l213.193 35.888q2.011.97 3.52.97h3.52q26.146 1.94 46.259-15.034c20.113-16.974 20.783-25.38 22.124-42.193l15.084-208.539q1.005-11.64-2.514-22.794c-3.519-11.154-5.866-14.064-10.559-19.884q-17.096-20.369-43.242-23.279c-26.146-2.91-33.186 2.263-47.264 12.609l-57.321 43.648-282.581-305.535q-20.112-22.309-50.281-23.279c-30.169-.97-37.543 5.82-52.293 19.399L339.952 409.864 122.736 181.925q-20.112-20.369-49.276-21.824c-29.164-1.455-36.203 5.011-50.281 17.944Q1.055 197.444.05 225.573c-1.005 28.129 5.698 35.241 19.107 49.468l266.491 279.346q20.113 21.34 50.281 21.824c30.168.484 37.208-6.305 51.287-19.884l136.765-129.003 226.266 245.398zm166.203-479.506 64.249-64.249c11.828-11.828 11.828-31.005 0-42.832l-42.832-42.832c-11.828-11.828-31.005-11.828-42.832 0l-64.249 64.249-64.249-64.249c-11.828-11.828-31.005-11.828-42.832 0l-42.832 42.832c-11.828 11.828-11.828 31.005 0 42.832l64.249 64.249-64.249 64.249c-11.828 11.828-11.828 31.005 0 42.832l42.832 42.832c11.828 11.828 31.005 11.828 42.832 0l64.249-64.249 64.249 64.249c11.828 11.828 31.005 11.828 42.832 0l42.832-42.832c11.828-11.828 11.828-31.005 0-42.832z" glyph-name="tracking-disabled" unicode=""/><glyph d="M707.353 621.728c-20.538 0-40.23-3.466-58.468-9.82C627.417 702.208 543.939 768 444.377 768c-107.128 0-195.634-76.172-209.42-174.917C104.793 587.733.967 486.429.003 361.746.001 233.007 114.689 128 249.175 128h585.729c102.892 0 186.43 78.231 189.092 175.7-.074 84.722-62.534 155.249-145.738 172.055-10.65 82.51-83.02 145.972-170.904 145.972z" glyph-name="cloud" unicode=""/><glyph d="M31.744 272.043C105.971 74.954 292.952-62.711 512.085-62.711S918.199 74.954 991.259 268.518zm960.512 351.914c-74.227 197.089-261.208 334.754-480.341 334.754S105.801 821.046 32.741 627.482zm-989.867-128C1.024 480.256 0 464.213 0 448s1.024-32.085 2.389-47.957H1021.61c1.536 15.872 2.389 31.744 2.389 47.957s-.853 32.256-2.389 47.957z" glyph-name="smart-crawl" unicode=""/><glyph d="M892.798 776.531c0 10.721-8.691 19.413-19.413 19.413h-40.32v-716.8c-.075-10.484-8.385-19.003-18.779-19.411l-604.389-.001c-9.345.103-17.108 6.741-18.943 15.553l-.021 42.836H753.92c10.74.085 19.413 8.811 19.413 19.563v738.754c0 10.752-8.673 19.478-19.405 19.563H150.762c-10.804 0-19.563-8.758-19.563-19.563V19.414C131.284 8.674 140.01.001 150.762.001h722.625c10.74.085 19.413 8.811 19.413 19.563v.001z" glyph-name="book" unicode=""/><glyph d="M947.712 597.675H76.287c-9.931 0-17.993-8.002-18.09-17.911V-45.909C58.197-55.9 66.296-64 76.288-64h871.424l.171-.001c9.897 0 17.92 8.023 17.92 17.92l-.001.181v625.655l.001.171c0 9.897-8.023 17.92-17.92 17.92l-.181-.001zM360.618 68.779c-31.96.064-62.513 6.006-90.661 16.801-1.627.778-3.962 4.026-3.962 7.818q0 .609.079 1.197l8.358 61.223a9.07 9.07 0 0 0 4.227 6.463c1.187.588 2.537.919 3.965.919s2.778-.331 3.979-.92c23.432-9.491 50.672-15.011 79.201-15.011q1.406 0 2.807.018c31.261-.001 53.106 14.847 53.106 36.009 0 26.283-12.629 40.448-82.091 44.373-4.77.279-8.533 4.215-8.533 9.031v60.968a9.047 9.047 0 0 0 8.332 9.018c60.106 4.781 66.591 21.847 66.591 36.013 0 9.045 0 24.405-40.448 24.405-24.992-.457-48.421-6.714-69.134-17.477-.327-.196-1.737-.55-3.229-.55s-2.902.355-4.149.984a8.88 8.88 0 0 0-4.72 6.583l-8.369 61.147a9.048 9.048 0 0 0 5.065 9.363c28.28 12.188 61.139 19.262 95.651 19.262q4.13 0 8.226-.134c72.818.01 121.97-34.123 121.97-85.323 0-37.888-19.627-65.877-59.904-85.333 34.133-13.312 69.803-37.547 69.803-88.576 0-73.045-61.269-119.467-156.331-119.467zm380.246 13.653a9.045 9.045 0 0 0-9.045-9.045H657.75a9.045 9.045 0 0 0-9.045 9.045v246.101l-48.981-18.603c-1.147-.565-2.498-.896-3.925-.896s-2.778.331-3.979.92a8.72 8.72 0 0 0-4.209 6.419l-8.367 61.312a8.875 8.875 0 0 0 4.897 9.193l106.719 52.759a9.1 9.1 0 0 0 4.089 1.024h37.212c4.858-.175 8.73-4.155 8.73-9.04q0-.363-.028-.72l.002-348.47zm206.848 797.013h-92.843v-43.52c0-46.08-26.283-95.232-100.181-95.232s-100.181 48.64-100.181 95.232v43.52H370.688v-43.52c0-46.08-26.283-95.232-100.181-95.232s-100.352 48.64-100.352 95.232v43.52H76.288l-.171.001c-9.897 0-17.92-8.023-17.92-17.92l.001-.181V678.229c0-9.991 8.099-18.091 18.091-18.091h871.424l.171-.001c9.897 0 17.92 8.023 17.92 17.92l-.001.181v183.116l.001.171c0 9.897-8.023 17.92-17.92 17.92l-.181-.001zm-677.206-80.554c29.867 0 41.984 10.752 41.984 37.035v86.869c0 26.453-12.117 37.205-41.984 37.205s-41.643-10.752-41.643-37.205v-86.869c0-26.453 12.117-37.035 41.984-37.035zm484.182 0c29.867 0 41.984 10.752 41.984 37.035v86.869c0 26.453-12.288 37.205-41.984 37.205s-41.984-10.752-41.984-37.205v-86.869c0-26.453 12.117-37.035 41.984-37.035" glyph-name="calendar" unicode=""/><glyph d="M512-64Q0 256 0 704q256 0 512 256 256-256 512-256 0-448-512-768m250.5 662.5-34 34q-3.5 3.5-7.75 5.5c-4.25 2-5.917 2-9.25 2q-5 0-9.5-2c-4.5-2-5.667-3.167-8-5.5L442.5 380l-111 111q-3 3.5-7.5 5.25c-4.5 1.75-6.167 1.75-9.5 1.75q-5 0-9.25-1.75c-4.25-1.75-5.417-2.917-7.75-5.25l-34-34q-3.5-3.5-5.5-7.75c-2-4.25-2-5.917-2-9.25q0-5 2-9.5c2-4.5 3.167-5.667 5.5-8l145.5-144q6.5-6.5 15-10.25c8.5-3.75 11.833-3.75 18.5-3.75q10 0 18.75 3.75c8.75 3.75 10.917 5.917 15.25 10.25l286 286q3.5 3.5 5.25 8c1.75 4.5 1.75 6.167 1.75 9.5q0 5-1.75 9.25c-1.75 4.25-2.917 5.417-5.25 7.75z" glyph-name="gdpr" unicode=""/><glyph d="M256 960V-64l256 256L768-64V960z" glyph-name="bookmark" unicode=""/><glyph d="M464 512h96c35.346 0 64-28.654 64-64V64c0-35.346-28.654-64-64-64h-96c-35.346 0-64 28.654-64 64v384c0 35.346 28.654 64 64 64M128 896h96c35.346 0 64-28.654 64-64V416c0-35.346-28.654-64-64-64h-96c-35.346 0-64 28.654-64 64v416c0 35.346 28.654 64 64 64m0-640h96c35.346 0 64-28.654 64-64V64c0-35.346-28.654-64-64-64h-96C92.654 0 64 28.654 64 64v128c0 35.346 28.654 64 64 64m672 640h96c35.346 0 64-28.654 64-64V512c0-35.346-28.654-64-64-64h-96c-35.346 0-64 28.654-64 64v320c0 35.346 28.654 64 64 64m0-544h96c35.346 0 64-28.654 64-64V64c0-35.346-28.654-64-64-64h-96c-35.346 0-64 28.654-64 64v224c0 35.346 28.654 64 64 64M464 896h96c35.346 0 64-28.654 64-64V672c0-35.346-28.654-64-64-64h-96c-35.346 0-64 28.654-64 64v160c0 35.346 28.654 64 64 64" glyph-name="layout-grid" unicode=""/><glyph d="M907.435 459.947 523.947 843.435c-5.437 5.441-12.949 8.806-21.248 8.806s-15.811-3.365-21.248-8.806l-62.806-62.806L284.16 914.944c-10.895 11.861-26.477 19.268-43.789 19.268-32.801 0-59.392-26.591-59.392-59.392 0-17.609 7.664-33.429 19.837-44.305l133.86-133.853L8.873 370.859c-5.39-5.428-8.721-12.906-8.721-21.163s3.331-15.735 8.723-21.164L392.532-55.125c5.437-5.441 12.949-8.806 21.248-8.806s15.811 3.365 21.248 8.806l472.406 472.576c5.4 5.455 8.736 12.962 8.736 21.248s-3.336 15.793-8.739 21.251zm-235.52-110.251H156.331l346.453 346.453 257.877-257.707zm330.752-198.656-71.339 123.563-1.195 2.731c-3.657 4.662-9.29 7.629-15.616 7.629s-11.959-2.967-15.584-7.586l-.032-.043v-1.195a20.5 20.5 0 0 1-2.509-4.303L826.709 151.04c-13.484-18.059-21.589-40.821-21.589-65.475 0-60.796 49.284-110.08 110.08-110.08s110.08 49.284 110.08 110.08c0 24.655-8.105 47.416-21.796 65.766z" glyph-name="paint-bucket" unicode=""/><glyph d="M839.23 548.523h-.032c-20.666 0-39.617-7.347-54.382-19.571-7.65 39.865-42.209 69.443-83.676 69.443-21.062 0-40.342-7.631-55.226-20.278-6.564 41.133-41.748 72.072-84.159 72.072-19.772 0-37.974-6.725-52.443-18.012l.19 242.489c0 47.128-38.205 85.333-85.333 85.333s-85.333-38.205-85.333-85.333V434.005l-100.352 95.403c-14.507 11.766-33.194 18.891-53.546 18.891-47.128 0-85.333-38.205-85.333-85.333 0-21.842 8.206-41.767 21.704-56.861l110.008-104.536c40.896-39.332 75.123-85.219 101.064-136.04l32.568-64.493C397.717 25.772 467.008-63.999 616-63.999c246.784 0 308.395 171.861 308.395 288.085v238.933c0 47.128-38.205 85.333-85.333 85.333z" glyph-name="finger-point" unicode=""/><glyph d="M198.338 511.69C230.709 508.508 256 481.207 256 448s-25.291-60.508-57.662-63.69c25.373-125.635 124.337-224.599 249.972-249.972C451.492 166.709 478.793 192 512 192s60.508-25.291 63.69-57.662c125.635 25.373 224.599 124.337 249.972 249.972C793.291 387.492 768 414.793 768 448s25.291 60.508 57.662 63.69C800.289 637.325 701.325 736.289 575.69 761.662 572.508 729.291 545.207 704 512 704s-60.508 25.291-63.69 57.662C322.675 736.289 223.711 637.325 198.338 511.69M68.537 384H64c-35.346 0-64 28.654-64 64s28.654 64 64 64h4.537C96.602 708.204 251.796 863.398 448 891.463V896c0 35.346 28.654 64 64 64s64-28.654 64-64v-4.537C772.204 863.398 927.398 708.204 955.463 512H960c35.346 0 64-28.654 64-64s-28.654-64-64-64h-4.537C927.398 187.796 772.204 32.602 576 4.537V0c0-35.346-28.654-64-64-64s-64 28.654-64 64v4.537C251.796 32.602 96.602 187.796 68.537 384M512 512c-35.346 0-64-28.654-64-64s28.654-64 64-64 64 28.654 64 64-28.654 64-64 64m0 128c106.039 0 192-85.961 192-192s-85.961-192-192-192-192 85.961-192 192 85.961 192 192 192" glyph-name="target" unicode=""/><glyph d="m377.603 70.087 44.959 271.996c.108.699.17 1.506.17 2.326 0 4.32-1.712 8.241-4.494 11.12l.005-.005a15.94 15.94 0 0 1-11.114 4.49c-.82 0-1.628-.062-2.414-.181l-270.627-46.228c-6.921-1.864-11.931-8.084-11.931-15.474 0-3.855 1.363-7.391 3.634-10.154l52.937-52.931L36.49 92.328c-2.69-2.856-4.343-6.715-4.343-10.96S33.8 73.264 36.498 70.4l97.911-97.91c2.856-2.69 6.715-4.343 10.96-4.343s8.104 1.653 10.968 4.351l142.069 142.07 53.599-52.799a15.93 15.93 0 0 1 10.625-4.036c7.602 0 13.965 5.3 15.595 12.408zm268.795 755.826-44.959-271.996a15.6 15.6 0 0 1-.17-2.326c0-4.32 1.712-8.241 4.494-11.12l-.005.005a15.94 15.94 0 0 1 11.114-4.49c.82 0 1.628.062 2.414.181l270.627 45.748c7.09 1.744 12.266 8.046 12.266 15.557 0 4.037-1.495 7.725-3.962 10.54l-52.943 52.942 142.077 142.077c2.69 2.856 4.343 6.715 4.343 10.96s-1.653 8.104-4.351 10.968l-97.75 98.55c-2.856 2.69-6.715 4.343-10.96 4.343s-8.104-1.653-10.968-4.351l-142.069-142.07-53.599 52.799a15.93 15.93 0 0 1-10.625 4.036c-7.602 0-13.965-5.3-15.595-12.408zm243.516-512.31-271.996 44.959a15.6 15.6 0 0 1-2.326.17c-4.32 0-8.241-1.712-11.12-4.494l.005.005a15.94 15.94 0 0 1-4.49-11.114c0-.82.062-1.628.181-2.414l46.228-270.627c1.701-7.148 8.032-12.383 15.586-12.383 4.099 0 7.838 1.541 10.67 4.076l52.943 52.945L867.672-27.351c2.856-2.69 6.715-4.343 10.96-4.343s8.104 1.653 10.968 4.351l97.91 97.911c2.69 2.856 4.343 6.715 4.343 10.96s-1.653 8.104-4.351 10.968l-142.07 142.069 52.799 53.439a15.93 15.93 0 0 1 4.036 10.625c0 7.602-5.3 13.965-12.408 15.595zM134.088 582.397l271.996-44.959a15.6 15.6 0 0 1 2.326-.17c4.32 0 8.241 1.712 11.12 4.494l-.005-.005a15.94 15.94 0 0 1 4.49 11.114c0 .82-.062 1.628-.181 2.414l-46.228 270.627c-1.864 6.921-8.084 11.931-15.474 11.931a15.94 15.94 0 0 1-10.154-3.634l-53.572-52.937L156.329 923.51c-2.856 2.69-6.715 4.343-10.96 4.343s-8.104-1.653-10.968-4.351l-97.91-97.911c-2.69-2.856-4.343-6.715-4.343-10.96s1.653-8.104 4.351-10.968l142.07-142.069-52.799-53.599a15.93 15.93 0 0 1-4.036-10.625c0-7.602 5.3-13.965 12.408-15.595z" glyph-name="arrows-in" unicode=""/><glyph d="m408.042 79.04 48.96 295.36c.182.906.286 1.946.286 3.011a15.95 15.95 0 0 1-4.921 11.543l-.006.006a16.74 16.74 0 0 1-11.846 4.887c-1.015 0-2.01-.09-2.976-.263l-294.458-49.585c-8.028-1.361-14.065-8.263-14.065-16.576 0-4.652 1.89-8.861 4.944-11.903l57.601-57.601-154.56-154.56c-2.923-3.019-4.724-7.139-4.724-11.68s1.802-8.661 4.729-11.684L144.041-27.04c3.044-3.065 7.261-4.961 11.92-4.961s8.876 1.897 11.919 4.96L321.961 128l57.6-57.6a16.75 16.75 0 0 1 11.904-4.945c8.313 0 15.215 6.038 16.562 13.966zm207.999 737.92-49.12-295.36a16.3 16.3 0 0 1-.224-2.737 16.75 16.75 0 0 1 4.866-11.825l-.001.001a16.9 16.9 0 0 1 11.901-4.876c.996 0 1.972.086 2.921.25l294.619 49.585c8.028 1.361 14.065 8.263 14.065 16.576 0 4.652-1.89 8.861-4.944 11.903l-58.081 57.601 154.72 154.72c3.065 3.044 4.961 7.261 4.961 11.92s-1.897 8.876-4.96 11.919L880.043 923.038c-3.044 3.065-7.261 4.961-11.92 4.961s-8.876-1.897-11.919-4.96L702.123 767.998l-57.6 57.6a16.75 16.75 0 0 1-11.904 4.945c-8.313 0-15.215-6.038-16.562-13.966z" glyph-name="arrows-compress" unicode=""/><glyph d="M910.161 573.61H468.817c-44.245 75.622-125.067 125.611-217.564 125.611C112.507 699.221.032 586.745.032 448s112.476-251.221 251.221-251.221c92.497 0 173.319 49.989 216.922 124.425l48.087 1.186h.05a8.5 8.5 0 0 1 6.093 2.559l88.236 88.919c1.547 1.559 3.69 2.524 6.059 2.524s4.512-.965 6.058-2.524l62.123-62.123c1.547-1.559 3.69-2.524 6.059-2.524s4.512.965 6.058 2.524l39.254 39.254c1.547 1.559 3.69 2.524 6.059 2.524s4.512-.965 6.058-2.524l45.057-45.398c1.547-1.559 3.69-2.524 6.059-2.524s4.512.965 6.058 2.524l44.886 45.057c1.547 1.559 3.69 2.524 6.059 2.524s4.512-.965 6.058-2.524l36.353-36.353c1.538-1.508 3.647-2.439 5.973-2.439s4.435.931 5.975 2.441l110.42 103.593c1.664 1.561 2.701 3.774 2.701 6.229s-1.037 4.668-2.697 6.225l-105.306 101.38a8.67 8.67 0 0 1-5.972 2.389zM136.529 390.826c-31.355.29-56.661 25.775-56.661 57.171 0 31.576 25.597 57.173 57.173 57.173s57.172-25.596 57.173-57.171v-.002c0-31.576-25.597-57.173-57.173-57.173l-.539.002z" glyph-name="key" unicode=""/><glyph d="M59.905 468.992 448.854 857.6c5.491 5.46 13.061 8.836 21.419 8.836s15.927-3.375 21.42-8.837l62.463-62.463c5.46-5.491 8.836-13.061 8.836-21.419s-3.375-15.927-8.837-21.42L324.268 522.24h621.227c.203.006.443.009.683.009 14.647 0 26.532-11.828 26.623-26.453v-95.582c0-14.704-11.92-26.624-26.624-26.624H324.268l230.4-230.4c5.46-5.491 8.836-13.061 8.836-21.419s-3.375-15.927-8.837-21.42L491.692 38.4c-5.491-5.46-13.061-8.836-21.419-8.836s-15.927 3.375-21.42 8.837L59.905 427.008c-5.38 5.401-8.706 12.851-8.706 21.077s3.326 15.677 8.707 21.078z" glyph-name="arrow-left" unicode=""/><glyph d="m52.224 749.227 312.832 180.736-208.555-361.472zm295.595-90.283L226.134 448l120.832-209.579v-1.365h247.808l121.173 204.8-124.416 216.576zm486.741 120.32L521.728 960 417.28 779.264zM0 598.699V237.227h208.725zm730.283 60.245 208.384-361.472v361.301zm156.501-512L785.067 323.072 575.318-32.768zM417.621-64l106.155 180.224H104.277L417.45-64z" glyph-name="snapshot" horiz-adv-x="939" unicode=""/><glyph d="M602.283 538.283H421.718l-.171 120.491-90.283 60.245-90.283-60.245V237.227l90.283-60.245 90.795 58.709v122.027h180.224V237.227l90.453-60.245 90.283 60.245v421.547l-90.283 60.245-90.453-60.245zM120.491 185.856v525.312l214.016 128.341h354.987L903.51 710.997V185.002L689.494 56.49H334.678zM301.227 960 0 779.264V117.76L301.227-64h421.547l301.227 180.736v662.528L722.774 960z" glyph-name="hub" unicode=""/></font>
</defs>
</svg>
